G04 ================== begin FILE IDENTIFICATION RECORD ==================*
G04 Layout Name:  E:\UOB-HEP-PC005A\worklib\qpll\physical\pc005-unplaced-g.brd*
G04 Film Name:    bottomsilk*
G04 File Format:  Gerber RS274X*
G04 File Origin:  -unreleased*
G04 Origin Date:  Wed Jun 18 09:06:14 2003*
G04 ================== end FILE IDENTIFICATION RECORD ====================*
%FSLAX53Y53*MOIN*%
%IR0*IPPOS*OFA0.00000B0.00000*MIA0B0*SFA1.00000B1.00000*%
%ADD10C,.007874*%
G75*
%LPD*%
G75*
G54D10*
G01X-5175Y-1603D02*
Y-1653D01*
G01X-4925Y-1678D02*
X-4975D01*
G01X-5025D02*
X-5075D01*
G01X-5175D02*
X-5125D01*
G01X-5175Y-1503D02*
Y-1553D01*
G01Y-1403D02*
Y-1453D01*
G01Y-1303D02*
Y-1353D01*
G01X-5025Y-1178D02*
X-5075D01*
G01X-4925D02*
X-4975D01*
G01X-5175Y-1203D02*
Y-1253D01*
G01X-5125Y-1178D02*
X-5175D01*
G01X-5069Y49D02*
X-5108D01*
Y89D01*
G01X-4990Y49D02*
X-4951D01*
Y89D01*
G01X-5108Y364D02*
Y482D01*
G01Y167D02*
Y285D01*
G01X-5154Y389D02*
X-5150Y384D01*
X-5148Y378D01*
Y373D01*
X-5150Y368D01*
X-5154Y364D01*
X-5160Y362D01*
X-5166Y364D01*
X-5171Y367D01*
X-5174Y373D01*
X-5176Y380D01*
X-5179Y385D01*
X-5185Y387D01*
X-5191Y385D01*
X-5195Y382D01*
X-5198Y378D01*
Y373D01*
X-5196Y369D01*
X-5192Y365D01*
G01X-5148Y339D02*
X-5198D01*
G01Y315D02*
X-5167Y339D01*
G01X-5148Y311D02*
X-5181Y328D01*
G01X-5148Y274D02*
X-5198D01*
X-5188Y281D01*
G01X-5148D02*
Y266D01*
G01X-5108Y561D02*
Y600D01*
X-5069D01*
G01X-4951Y561D02*
Y600D01*
X-4990D01*
G01X-4725Y-1603D02*
Y-1653D01*
G01X-4825Y-1678D02*
X-4875D01*
G01X-4775D02*
X-4725D01*
G01Y-1503D02*
Y-1553D01*
G01Y-1403D02*
Y-1453D01*
G01Y-1303D02*
Y-1353D01*
G01X-4692Y-1507D02*
X-4697Y-1501D01*
X-4700Y-1494D01*
Y-1488D01*
X-4697Y-1482D01*
X-4692Y-1477D01*
X-4684Y-1475D01*
X-4677Y-1476D01*
X-4671Y-1480D01*
X-4666Y-1487D01*
X-4664Y-1496D01*
X-4660Y-1502D01*
X-4653Y-1504D01*
X-4645Y-1503D01*
X-4640Y-1499D01*
X-4637Y-1493D01*
Y-1488D01*
X-4639Y-1482D01*
X-4644Y-1478D01*
G01X-4700Y-1445D02*
X-4637D01*
G01Y-1415D02*
X-4676Y-1445D01*
G01X-4700Y-1411D02*
X-4658Y-1432D01*
G01X-4648Y-1380D02*
X-4641Y-1375D01*
X-4638Y-1370D01*
X-4637Y-1363D01*
X-4639Y-1356D01*
X-4644Y-1350D01*
X-4651Y-1349D01*
X-4657Y-1349D01*
X-4662Y-1352D01*
X-4673Y-1368D01*
X-4680Y-1375D01*
X-4691Y-1380D01*
X-4700Y-1381D01*
Y-1349D01*
G01X-4725Y-1203D02*
Y-1253D01*
G01X-4825Y-1178D02*
X-4875D01*
G01X-4725D02*
X-4775D01*
G01X-4951Y364D02*
Y482D01*
G01Y167D02*
Y285D01*
G01X-2860Y617D02*
X-2865Y613D01*
X-2871Y610D01*
X-2876D01*
X-2881Y613D01*
X-2885Y617D01*
X-2887Y623D01*
X-2885Y629D01*
X-2882Y634D01*
X-2876Y637D01*
X-2869Y639D01*
X-2864Y642D01*
X-2863Y648D01*
X-2864Y654D01*
X-2867Y658D01*
X-2871Y660D01*
X-2876D01*
X-2880Y659D01*
X-2884Y654D01*
G01X-2934Y639D02*
X-2930Y643D01*
X-2926Y644D01*
X-2921Y642D01*
X-2917Y639D01*
X-2915Y633D01*
X-2914Y627D01*
X-2915Y621D01*
X-2917Y616D01*
X-2921Y612D01*
X-2926Y610D01*
X-2931Y612D01*
X-2934Y615D01*
G01X-2965Y610D02*
Y660D01*
G01Y636D02*
X-2968Y640D01*
X-2971Y643D01*
X-2976Y644D01*
X-2980Y643D01*
X-2984Y639D01*
X-2986Y634D01*
Y610D01*
G01X-3017Y633D02*
X-3037D01*
X-3035Y639D01*
X-3032Y642D01*
X-3028Y644D01*
X-3023Y643D01*
X-3019Y640D01*
X-3017Y634D01*
X-3016Y629D01*
Y624D01*
X-3017Y619D01*
X-3020Y614D01*
X-3024Y611D01*
X-3028Y610D01*
X-3033Y612D01*
X-3037Y617D01*
G01X-3058Y610D02*
Y644D01*
G01Y634D02*
X-3060Y639D01*
X-3063Y642D01*
X-3068Y644D01*
X-3072Y642D01*
X-3075Y639D01*
X-3077Y634D01*
Y610D01*
G01Y634D02*
X-3079Y639D01*
X-3082Y642D01*
X-3087Y644D01*
X-3091Y642D01*
X-3094Y639D01*
X-3096Y634D01*
Y610D01*
G01X-3140D02*
Y644D01*
G01Y638D02*
X-3137Y641D01*
X-3133Y643D01*
X-3129Y644D01*
X-3125Y642D01*
X-3121Y639D01*
X-3118Y634D01*
X-3117Y627D01*
X-3118Y620D01*
X-3121Y615D01*
X-3125Y612D01*
X-3129Y610D01*
X-3133Y611D01*
X-3137Y614D01*
X-3140Y617D01*
G01X-3179Y660D02*
Y610D01*
G01X-3170Y644D02*
X-3188D01*
G01X-3230D02*
Y610D01*
G01Y657D02*
X-3229Y658D01*
Y659D01*
X-3230Y660D01*
X-3232Y659D01*
Y658D01*
X-3230Y657D01*
G01X-3291Y639D02*
X-3287Y643D01*
X-3283Y644D01*
X-3278Y642D01*
X-3274Y639D01*
X-3272Y633D01*
X-3271Y627D01*
X-3272Y621D01*
X-3274Y616D01*
X-3278Y612D01*
X-3283Y610D01*
X-3288Y612D01*
X-3291Y615D01*
G01X-3332Y609D02*
X-3331Y609D01*
Y611D01*
X-3332Y612D01*
X-3334Y611D01*
Y609D01*
X-3332Y609D01*
G01Y631D02*
X-3331Y632D01*
Y634D01*
X-3332Y634D01*
X-3334Y634D01*
Y632D01*
X-3332Y631D01*
G01X-3420Y610D02*
Y660D01*
X-3433D01*
X-3438Y658D01*
X-3442Y654D01*
X-3445Y649D01*
X-3448Y644D01*
X-3448Y635D01*
X-3448Y627D01*
X-3445Y621D01*
X-3442Y616D01*
X-3438Y613D01*
X-3433Y610D01*
X-3420D01*
G01X-3497D02*
Y644D01*
G01Y638D02*
X-3494Y641D01*
X-3490Y643D01*
X-3486Y644D01*
X-3482Y642D01*
X-3478Y639D01*
X-3475Y634D01*
X-3474Y627D01*
X-3475Y620D01*
X-3478Y615D01*
X-3482Y612D01*
X-3486Y610D01*
X-3490Y611D01*
X-3494Y614D01*
X-3497Y617D01*
G01X-3525Y644D02*
X-3536Y610D01*
X-3548Y644D01*
G01X-3587D02*
Y610D01*
G01Y657D02*
X-3586Y658D01*
Y659D01*
X-3587Y660D01*
X-3589Y659D01*
Y658D01*
X-3587Y657D01*
G01X-3650Y660D02*
Y610D01*
G01Y618D02*
X-3647Y614D01*
X-3643Y611D01*
X-3639Y610D01*
X-3634Y612D01*
X-3630Y616D01*
X-3628Y621D01*
X-3627Y627D01*
X-3628Y633D01*
X-3630Y638D01*
X-3634Y642D01*
X-3639Y644D01*
X-3643Y643D01*
X-3647Y641D01*
X-3650Y638D01*
G01X-3689Y609D02*
X-3688Y609D01*
Y611D01*
X-3689Y612D01*
X-3691Y611D01*
Y609D01*
X-3689Y609D01*
G01X-3754Y656D02*
X-3750Y659D01*
X-3746Y660D01*
X-3741D01*
X-3735Y658D01*
X-3731Y654D01*
X-3728Y649D01*
X-3725Y640D01*
X-3724Y633D01*
X-3726Y625D01*
X-3728Y620D01*
X-3731Y615D01*
X-3736Y612D01*
X-3740Y610D01*
X-3745D01*
X-3749Y612D01*
X-3753Y614D01*
X-3756Y618D01*
G01X-3781Y644D02*
Y620D01*
X-3783Y614D01*
X-3787Y611D01*
X-3791Y610D01*
X-3796Y611D01*
X-3800Y614D01*
X-3802Y620D01*
G01Y610D02*
Y644D01*
G01X-3833Y616D02*
X-3836Y613D01*
X-3840Y610D01*
X-3844D01*
X-3848Y612D01*
X-3851Y614D01*
X-3852Y618D01*
X-3851Y623D01*
X-3849Y625D01*
X-3837Y630D01*
X-3835Y636D01*
X-3836Y640D01*
X-3839Y643D01*
X-3842Y644D01*
X-3846Y643D01*
X-3850Y640D01*
G01X-3884Y616D02*
X-3887Y613D01*
X-3891Y610D01*
X-3895D01*
X-3899Y612D01*
X-3902Y614D01*
X-3903Y618D01*
X-3902Y623D01*
X-3900Y625D01*
X-3888Y630D01*
X-3886Y636D01*
X-3887Y640D01*
X-3890Y643D01*
X-3893Y644D01*
X-3897Y643D01*
X-3901Y640D01*
G01X-3956Y610D02*
Y644D01*
G01Y638D02*
X-3953Y641D01*
X-3949Y643D01*
X-3945Y644D01*
X-3941Y642D01*
X-3937Y639D01*
X-3934Y634D01*
X-3933Y627D01*
X-3934Y620D01*
X-3937Y615D01*
X-3941Y612D01*
X-3945Y610D01*
X-3949Y611D01*
X-3953Y614D01*
X-3956Y617D01*
G01X-3985Y610D02*
Y644D01*
G01Y635D02*
X-3987Y639D01*
X-3991Y643D01*
X-3996Y644D01*
X-4000Y643D01*
X-4004Y639D01*
X-4006Y634D01*
Y610D01*
G01X-4037Y616D02*
X-4040Y613D01*
X-4044Y610D01*
X-4048D01*
X-4052Y612D01*
X-4055Y614D01*
X-4056Y618D01*
X-4055Y623D01*
X-4053Y625D01*
X-4041Y630D01*
X-4039Y636D01*
X-4040Y640D01*
X-4043Y643D01*
X-4046Y644D01*
X-4050Y643D01*
X-4054Y640D01*
G01X-4107Y619D02*
X-4100Y610D01*
X-4094D01*
X-4088Y619D01*
Y635D01*
X-4094Y644D01*
X-4100D01*
X-4107Y635D01*
Y619D01*
X-4111Y612D01*
X-4116Y619D01*
Y652D01*
X-4110Y660D01*
X-4085D01*
X-4078Y652D01*
Y602D01*
X-4085Y594D01*
X-4110D01*
X-4116Y602D01*
G01X-4137Y610D02*
Y660D01*
G01Y635D02*
X-4140Y640D01*
X-4144Y643D01*
X-4148Y644D01*
X-4153Y642D01*
X-4157Y639D01*
X-4160Y633D01*
Y626D01*
X-4158Y619D01*
X-4156Y614D01*
X-4151Y611D01*
X-4148Y610D01*
X-4144Y611D01*
X-4140Y614D01*
X-4137Y618D01*
G01X-4190Y610D02*
Y644D01*
G01Y637D02*
X-4194Y640D01*
X-4197Y643D01*
X-4201Y644D01*
X-4204Y643D01*
X-4208Y640D01*
G01X-4250Y644D02*
Y610D01*
G01Y657D02*
X-4249Y658D01*
Y659D01*
X-4250Y660D01*
X-4252Y659D01*
Y658D01*
X-4250Y657D01*
G01X-4292Y616D02*
X-4295Y613D01*
X-4299Y610D01*
X-4303D01*
X-4307Y612D01*
X-4310Y614D01*
X-4311Y618D01*
X-4310Y623D01*
X-4308Y625D01*
X-4296Y630D01*
X-4294Y636D01*
X-4295Y640D01*
X-4298Y643D01*
X-4301Y644D01*
X-4305Y643D01*
X-4309Y640D01*
G01X-4352Y660D02*
Y610D01*
G01X-4343Y644D02*
X-4361D01*
G01X-4403Y610D02*
X-4400Y611D01*
X-4396Y614D01*
X-4393Y620D01*
X-4392Y627D01*
X-4393Y634D01*
X-4396Y639D01*
X-4400Y643D01*
X-4403Y644D01*
X-4407Y643D01*
X-4411Y639D01*
X-4413Y634D01*
X-4414Y627D01*
X-4413Y620D01*
X-4411Y614D01*
X-4407Y611D01*
X-4403Y610D01*
G01X-4454D02*
Y660D01*
G01X-4505Y609D02*
X-4504Y609D01*
Y611D01*
X-4505Y612D01*
X-4507Y611D01*
Y609D01*
X-4505Y609D01*
G01X-4568Y610D02*
Y644D01*
G01Y638D02*
X-4565Y641D01*
X-4561Y643D01*
X-4557Y644D01*
X-4553Y642D01*
X-4549Y639D01*
X-4546Y634D01*
X-4545Y627D01*
X-4546Y620D01*
X-4549Y615D01*
X-4553Y612D01*
X-4557Y610D01*
X-4561Y611D01*
X-4565Y614D01*
X-4568Y617D01*
G01X-4617Y639D02*
X-4613Y643D01*
X-4609Y644D01*
X-4604Y642D01*
X-4600Y639D01*
X-4598Y633D01*
X-4597Y627D01*
X-4598Y621D01*
X-4600Y616D01*
X-4604Y612D01*
X-4609Y610D01*
X-4614Y612D01*
X-4617Y615D01*
G01X-4658Y609D02*
X-4657Y609D01*
Y611D01*
X-4658Y612D01*
X-4660Y611D01*
Y609D01*
X-4658Y609D01*
G01X-4699Y644D02*
Y620D01*
X-4701Y614D01*
X-4705Y611D01*
X-4709Y610D01*
X-4714Y611D01*
X-4718Y614D01*
X-4720Y620D01*
G01Y610D02*
Y644D01*
G01X-4750Y610D02*
Y660D01*
G01X-4770Y644D02*
X-4750Y624D01*
G01X-4758Y632D02*
X-4771Y610D01*
G01X-4466Y-1603D02*
Y-1653D01*
G01Y-1678D02*
X-4416D01*
G01X-4466Y-1503D02*
Y-1553D01*
G01Y-1403D02*
Y-1453D01*
G01Y-1303D02*
Y-1353D01*
G01Y-1203D02*
Y-1253D01*
G01X-4416Y-1178D02*
X-4466D01*
G01X-3018Y581D02*
Y531D01*
X-3043D01*
G01X-3093D02*
Y565D01*
G01Y559D02*
X-3091Y562D01*
X-3087Y564D01*
X-3082Y565D01*
X-3078Y563D01*
X-3074Y560D01*
X-3072Y555D01*
X-3070Y548D01*
X-3072Y541D01*
X-3074Y536D01*
X-3078Y533D01*
X-3082Y531D01*
X-3087Y532D01*
X-3091Y535D01*
X-3093Y538D01*
G01X-3120Y516D02*
X-3123Y515D01*
X-3128Y516D01*
X-3132Y520D01*
X-3134Y524D01*
X-3138Y537D01*
X-3146Y565D01*
G01X-3126D02*
X-3138Y537D01*
G01X-3184Y531D02*
X-3180Y532D01*
X-3176Y536D01*
X-3174Y541D01*
X-3172Y548D01*
X-3174Y555D01*
X-3176Y561D01*
X-3180Y564D01*
X-3184Y565D01*
X-3188Y564D01*
X-3191Y561D01*
X-3194Y555D01*
X-3195Y548D01*
X-3194Y541D01*
X-3191Y536D01*
X-3188Y532D01*
X-3184Y531D01*
G01X-3224Y565D02*
Y541D01*
X-3227Y536D01*
X-3230Y532D01*
X-3235Y531D01*
X-3239Y532D01*
X-3243Y536D01*
X-3246Y541D01*
G01Y531D02*
Y565D01*
G01X-3286Y581D02*
Y531D01*
G01X-3277Y565D02*
X-3295D01*
G01X-3337Y530D02*
X-3336Y531D01*
Y532D01*
X-3337Y533D01*
X-3338Y532D01*
Y531D01*
X-3337Y530D01*
G01Y552D02*
X-3336Y553D01*
Y555D01*
X-3337Y556D01*
X-3338Y555D01*
Y553D01*
X-3337Y552D01*
G01X-3426Y538D02*
X-3431Y534D01*
X-3436Y531D01*
X-3441D01*
X-3446Y534D01*
X-3450Y538D01*
X-3452Y544D01*
X-3451Y550D01*
X-3448Y555D01*
X-3442Y558D01*
X-3434Y560D01*
X-3430Y563D01*
X-3428Y569D01*
X-3429Y575D01*
X-3432Y579D01*
X-3437Y581D01*
X-3441D01*
X-3446Y580D01*
X-3450Y576D01*
G01X-3490Y530D02*
X-3489Y531D01*
Y532D01*
X-3490Y533D01*
X-3491Y532D01*
Y531D01*
X-3490Y530D01*
G01X-3528Y541D02*
X-3531Y536D01*
X-3535Y533D01*
X-3540Y531D01*
X-3545Y533D01*
X-3548Y536D01*
X-3552Y541D01*
X-3553Y548D01*
Y581D01*
G01X-3592Y530D02*
X-3591Y531D01*
Y532D01*
X-3592Y533D01*
X-3593Y532D01*
Y531D01*
X-3592Y530D01*
G01X-3628Y531D02*
Y581D01*
X-3657Y531D01*
Y581D01*
G01X-3705Y531D02*
Y565D01*
G01Y559D02*
X-3703Y562D01*
X-3699Y564D01*
X-3694Y565D01*
X-3690Y563D01*
X-3686Y560D01*
X-3684Y555D01*
X-3682Y548D01*
X-3684Y541D01*
X-3686Y536D01*
X-3690Y533D01*
X-3694Y531D01*
X-3699Y532D01*
X-3703Y535D01*
X-3705Y538D01*
G01X-3735Y537D02*
X-3738Y534D01*
X-3743Y531D01*
X-3747D01*
X-3751Y533D01*
X-3753Y536D01*
X-3754Y539D01*
X-3754Y544D01*
X-3751Y546D01*
X-3740Y551D01*
X-3737Y557D01*
X-3738Y561D01*
X-3741Y564D01*
X-3745Y565D01*
X-3749Y564D01*
X-3752Y561D01*
G01X-3785Y531D02*
Y581D01*
G01Y557D02*
X-3788Y561D01*
X-3791Y564D01*
X-3796Y565D01*
X-3800Y564D01*
X-3805Y561D01*
X-3807Y556D01*
Y531D01*
G01X-3856Y540D02*
X-3850Y531D01*
X-3844D01*
X-3837Y540D01*
Y556D01*
X-3844Y565D01*
X-3850D01*
X-3856Y556D01*
Y540D01*
X-3861Y533D01*
X-3866Y540D01*
Y573D01*
X-3859Y581D01*
X-3834D01*
X-3828Y573D01*
Y523D01*
X-3834Y515D01*
X-3859D01*
X-3866Y523D01*
G01X-3886Y531D02*
Y581D01*
G01Y556D02*
X-3890Y561D01*
X-3893Y564D01*
X-3897Y565D01*
X-3903Y563D01*
X-3907Y560D01*
X-3909Y554D01*
Y547D01*
X-3908Y541D01*
X-3905Y536D01*
X-3901Y532D01*
X-3897Y531D01*
X-3893Y532D01*
X-3890Y535D01*
X-3886Y539D01*
G01X-3940Y531D02*
Y565D01*
G01Y558D02*
X-3943Y561D01*
X-3946Y564D01*
X-3951Y565D01*
X-3954Y564D01*
X-3958Y561D01*
G01X-4000Y565D02*
Y531D01*
G01Y578D02*
X-3999Y579D01*
Y581D01*
X-4000Y581D01*
X-4001Y581D01*
Y579D01*
X-4000Y578D01*
G01X-4041Y537D02*
X-4044Y534D01*
X-4049Y531D01*
X-4053D01*
X-4057Y533D01*
X-4059Y536D01*
X-4060Y539D01*
X-4060Y544D01*
X-4057Y546D01*
X-4046Y551D01*
X-4043Y557D01*
X-4044Y561D01*
X-4047Y564D01*
X-4051Y565D01*
X-4055Y564D01*
X-4058Y561D01*
G01X-4102Y581D02*
Y531D01*
G01X-4093Y565D02*
X-4111D01*
G01X-4153Y531D02*
X-4149Y532D01*
X-4145Y536D01*
X-4143Y541D01*
X-4141Y548D01*
X-4143Y555D01*
X-4145Y561D01*
X-4149Y564D01*
X-4153Y565D01*
X-4157Y564D01*
X-4160Y561D01*
X-4163Y555D01*
X-4164Y548D01*
X-4163Y541D01*
X-4160Y536D01*
X-4157Y532D01*
X-4153Y531D01*
G01X-4204D02*
Y581D01*
G01X-4255Y530D02*
X-4254Y531D01*
Y532D01*
X-4255Y533D01*
X-4256Y532D01*
Y531D01*
X-4255Y530D01*
G01X-4317Y531D02*
Y565D01*
G01Y559D02*
X-4315Y562D01*
X-4311Y564D01*
X-4306Y565D01*
X-4302Y563D01*
X-4298Y560D01*
X-4296Y555D01*
X-4294Y548D01*
X-4296Y541D01*
X-4298Y536D01*
X-4302Y533D01*
X-4306Y531D01*
X-4311Y532D01*
X-4315Y535D01*
X-4317Y538D01*
G01X-4367Y561D02*
X-4363Y564D01*
X-4359Y565D01*
X-4354Y563D01*
X-4350Y560D01*
X-4347Y554D01*
X-4347Y548D01*
X-4347Y542D01*
X-4350Y537D01*
X-4354Y533D01*
X-4359Y531D01*
X-4363Y533D01*
X-4367Y536D01*
G01X-4408Y530D02*
X-4407Y531D01*
Y532D01*
X-4408Y533D01*
X-4409Y532D01*
Y531D01*
X-4408Y530D01*
G01X-4448Y565D02*
Y541D01*
X-4451Y536D01*
X-4454Y532D01*
X-4459Y531D01*
X-4463Y532D01*
X-4467Y536D01*
X-4470Y541D01*
G01Y531D02*
Y565D01*
G01X-4499Y531D02*
Y581D01*
G01X-4519Y565D02*
X-4499Y546D01*
G01X-4507Y553D02*
X-4521Y531D01*
G01X-2867Y742D02*
Y705D01*
X-2871Y696D01*
X-2877Y690D01*
X-2884Y689D01*
X-2891Y690D01*
X-2897Y696D01*
X-2901Y705D01*
G01Y689D02*
Y742D01*
G01X-2964Y689D02*
X-2958Y690D01*
X-2952Y696D01*
X-2948Y705D01*
X-2946Y716D01*
X-2948Y726D01*
X-2952Y736D01*
X-2958Y741D01*
X-2964Y742D01*
X-2970Y741D01*
X-2976Y736D01*
X-2980Y726D01*
X-2981Y716D01*
X-2980Y705D01*
X-2976Y696D01*
X-2970Y690D01*
X-2964Y689D01*
G01X-3026D02*
Y769D01*
G01Y729D02*
X-3031Y737D01*
X-3037Y741D01*
X-3043Y742D01*
X-3052Y740D01*
X-3058Y734D01*
X-3062Y725D01*
Y714D01*
X-3060Y704D01*
X-3056Y696D01*
X-3049Y690D01*
X-3043Y689D01*
X-3037Y690D01*
X-3031Y694D01*
X-3026Y701D01*
G01X-3111Y716D02*
X-3137D01*
G01X-3187Y689D02*
Y769D01*
G01Y730D02*
X-3192Y737D01*
X-3197Y741D01*
X-3205Y742D01*
X-3211Y741D01*
X-3218Y736D01*
X-3221Y728D01*
Y689D01*
G01X-3269Y725D02*
X-3301D01*
X-3298Y734D01*
X-3293Y740D01*
X-3286Y742D01*
X-3279Y741D01*
X-3273Y737D01*
X-3269Y728D01*
X-3267Y720D01*
Y712D01*
X-3269Y704D01*
X-3274Y696D01*
X-3280Y690D01*
X-3287Y689D01*
X-3294Y692D01*
X-3301Y700D01*
G01X-3346Y662D02*
Y742D01*
G01Y730D02*
X-3351Y737D01*
X-3356Y741D01*
X-3364Y742D01*
X-3371Y741D01*
X-3378Y734D01*
X-3381Y725D01*
X-3382Y716D01*
X-3381Y706D01*
X-3378Y697D01*
X-3372Y692D01*
X-3364Y689D01*
X-3357Y690D01*
X-3350Y694D01*
X-3346Y700D01*
G01X-3431Y716D02*
X-3457D01*
G01X-3506Y662D02*
Y742D01*
G01Y730D02*
X-3511Y737D01*
X-3516Y741D01*
X-3524Y742D01*
X-3531Y741D01*
X-3538Y734D01*
X-3541Y725D01*
X-3542Y716D01*
X-3541Y706D01*
X-3538Y697D01*
X-3532Y692D01*
X-3524Y689D01*
X-3517Y690D01*
X-3510Y694D01*
X-3506Y700D01*
G01X-3620Y736D02*
X-3613Y741D01*
X-3607Y742D01*
X-3599Y740D01*
X-3593Y734D01*
X-3589Y725D01*
X-3588Y716D01*
X-3589Y706D01*
X-3593Y698D01*
X-3599Y692D01*
X-3607Y689D01*
X-3614Y692D01*
X-3620Y697D01*
G01X-3684Y769D02*
X-3676Y766D01*
X-3670Y760D01*
X-3666Y752D01*
X-3663Y741D01*
X-3662Y729D01*
X-3663Y717D01*
X-3666Y706D01*
X-3670Y698D01*
X-3676Y692D01*
X-3684Y689D01*
X-3692Y692D01*
X-3698Y698D01*
X-3702Y706D01*
X-3705Y717D01*
X-3706Y729D01*
X-3705Y741D01*
X-3702Y752D01*
X-3698Y760D01*
X-3692Y766D01*
X-3684Y769D01*
G01X-3764D02*
X-3756Y766D01*
X-3750Y760D01*
X-3746Y752D01*
X-3743Y741D01*
X-3742Y729D01*
X-3743Y717D01*
X-3746Y706D01*
X-3750Y698D01*
X-3756Y692D01*
X-3764Y689D01*
X-3772Y692D01*
X-3778Y698D01*
X-3782Y706D01*
X-3785Y717D01*
X-3786Y729D01*
X-3785Y741D01*
X-3782Y752D01*
X-3778Y760D01*
X-3772Y766D01*
X-3764Y769D01*
G01X-3822Y701D02*
X-3828Y694D01*
X-3835Y690D01*
X-3844Y689D01*
X-3853Y692D01*
X-3860Y697D01*
X-3865Y706D01*
X-3866Y717D01*
X-3864Y728D01*
X-3859Y734D01*
X-3852Y740D01*
X-3845Y741D01*
X-3838Y740D01*
X-3829Y734D01*
X-3832Y769D01*
X-3859D01*
G01X-4004Y686D02*
X-4002Y688D01*
Y690D01*
X-4004Y692D01*
X-4006Y690D01*
Y688D01*
X-4004Y686D01*
G01Y722D02*
X-4002Y724D01*
Y726D01*
X-4004Y728D01*
X-4006Y726D01*
Y724D01*
X-4004Y722D01*
G01X-4164Y689D02*
X-4156Y690D01*
X-4149Y696D01*
X-4143Y704D01*
X-4139Y713D01*
X-4137Y724D01*
Y734D01*
X-4139Y745D01*
X-4143Y754D01*
X-4149Y762D01*
X-4156Y768D01*
X-4164Y769D01*
X-4172Y768D01*
X-4179Y762D01*
X-4185Y754D01*
X-4189Y745D01*
X-4191Y734D01*
Y724D01*
X-4189Y713D01*
X-4185Y704D01*
X-4179Y696D01*
X-4172Y690D01*
X-4164Y689D01*
G01X-4172Y710D02*
X-4184Y689D01*
G01X-4224D02*
Y769D01*
X-4248D01*
X-4256Y765D01*
X-4262Y756D01*
X-4264Y745D01*
X-4262Y734D01*
X-4257Y726D01*
X-4248Y722D01*
X-4224D01*
G01X-4304Y769D02*
Y689D01*
X-4344D01*
G01X-4384Y769D02*
Y689D01*
X-4424D01*
G01X-4116Y-1678D02*
X-4166D01*
G01X-4216D02*
X-4266D01*
G01X-4316D02*
X-4366D01*
G01X-4316Y-1178D02*
X-4366D01*
G01X-4216D02*
X-4266D01*
G01X-4116D02*
X-4166D01*
G01X-4086Y-1142D02*
X-4091Y-1136D01*
X-4094Y-1129D01*
Y-1123D01*
X-4091Y-1117D01*
X-4086Y-1112D01*
X-4079Y-1110D01*
X-4071Y-1111D01*
X-4065Y-1115D01*
X-4061Y-1122D01*
X-4059Y-1131D01*
X-4055Y-1137D01*
X-4047Y-1139D01*
X-4040Y-1138D01*
X-4035Y-1134D01*
X-4031Y-1128D01*
Y-1123D01*
X-4034Y-1117D01*
X-4039Y-1113D01*
G01X-4094Y-1080D02*
X-4031D01*
G01Y-1050D02*
X-4070Y-1080D01*
G01X-4094Y-1046D02*
X-4052Y-1067D01*
G01X-4094Y-991D02*
X-4031D01*
X-4077Y-1020D01*
Y-980D01*
G01X-4334Y-1106D02*
X-4284D01*
Y-1090D01*
X-4287Y-1085D01*
X-4290Y-1082D01*
X-4297Y-1081D01*
X-4304Y-1082D01*
X-4308Y-1086D01*
X-4310Y-1090D01*
Y-1106D01*
G01Y-1090D02*
X-4334Y-1081D01*
G01Y-1057D02*
X-4284D01*
X-4334Y-1028D01*
X-4284D01*
G01X-4334Y-992D02*
X-4284D01*
X-4294Y-999D01*
G01X-4334D02*
Y-984D01*
G01X-4191Y-617D02*
X-4194Y-619D01*
X-4199Y-621D01*
X-4204D01*
X-4210Y-618D01*
X-4214Y-614D01*
X-4217Y-609D01*
X-4220Y-601D01*
X-4220Y-593D01*
X-4219Y-586D01*
X-4217Y-581D01*
X-4213Y-576D01*
X-4209Y-573D01*
X-4205Y-571D01*
X-4200D01*
X-4196Y-573D01*
X-4192Y-575D01*
X-4189Y-578D01*
G01X-4154Y-571D02*
Y-621D01*
X-4161Y-611D01*
G01Y-571D02*
X-4146D01*
G01X-4095D02*
Y-621D01*
X-4118Y-585D01*
X-4087D01*
G01X-4191Y-203D02*
X-4194Y-206D01*
X-4199Y-207D01*
X-4204D01*
X-4210Y-205D01*
X-4214Y-201D01*
X-4217Y-196D01*
X-4220Y-187D01*
X-4220Y-180D01*
X-4219Y-172D01*
X-4217Y-167D01*
X-4213Y-162D01*
X-4209Y-159D01*
X-4205Y-157D01*
X-4200D01*
X-4196Y-159D01*
X-4192Y-162D01*
X-4189Y-165D01*
G01X-4154Y-157D02*
Y-207D01*
X-4161Y-197D01*
G01Y-157D02*
X-4146D01*
G01X-4116Y-165D02*
X-4113Y-161D01*
X-4108Y-158D01*
X-4103Y-157D01*
X-4097Y-159D01*
X-4092Y-162D01*
X-4089Y-168D01*
X-4089Y-175D01*
X-4090Y-182D01*
X-4093Y-186D01*
X-4097Y-189D01*
X-4102Y-190D01*
X-4106Y-189D01*
X-4112Y-186D01*
X-4110Y-207D01*
X-4093D01*
G01X-3955Y-1603D02*
Y-1653D01*
G01X-3805Y-1678D02*
X-3855D01*
G01X-3955D02*
X-3905D01*
G01X-4016Y-1603D02*
Y-1653D01*
G01X-4066Y-1678D02*
X-4016D01*
G01X-3955Y-1503D02*
Y-1553D01*
G01Y-1403D02*
Y-1453D01*
G01Y-1303D02*
Y-1353D01*
G01X-4016Y-1503D02*
Y-1553D01*
G01Y-1403D02*
Y-1453D01*
G01Y-1303D02*
Y-1353D01*
G01X-3805Y-1178D02*
X-3855D01*
G01X-3955Y-1203D02*
Y-1253D01*
G01X-3905Y-1178D02*
X-3955D01*
G01X-3771Y-1142D02*
X-3776Y-1136D01*
X-3780Y-1129D01*
Y-1123D01*
X-3776Y-1117D01*
X-3771Y-1112D01*
X-3764Y-1110D01*
X-3756Y-1111D01*
X-3750Y-1115D01*
X-3746Y-1122D01*
X-3744Y-1131D01*
X-3740Y-1137D01*
X-3732Y-1139D01*
X-3725Y-1138D01*
X-3720Y-1134D01*
X-3717Y-1128D01*
Y-1123D01*
X-3719Y-1117D01*
X-3724Y-1113D01*
G01X-3780Y-1080D02*
X-3717D01*
G01Y-1050D02*
X-3755Y-1080D01*
G01X-3780Y-1046D02*
X-3738Y-1067D01*
G01X-3767Y-1017D02*
X-3774Y-1013D01*
X-3778Y-1006D01*
X-3780Y-999D01*
X-3778Y-993D01*
X-3773Y-987D01*
X-3767Y-983D01*
X-3761Y-982D01*
X-3753Y-984D01*
X-3748Y-989D01*
X-3746Y-995D01*
Y-1002D01*
G01Y-995D02*
X-3743Y-990D01*
X-3738Y-986D01*
X-3731Y-984D01*
X-3725Y-986D01*
X-3720Y-990D01*
X-3717Y-997D01*
X-3718Y-1004D01*
X-3722Y-1011D01*
G01X-4016Y-1203D02*
Y-1253D01*
G01Y-1178D02*
X-4066D01*
G01X-3880Y-368D02*
X-3876Y-365D01*
X-3872Y-363D01*
X-3867D01*
X-3861Y-366D01*
X-3857Y-370D01*
X-3854Y-375D01*
X-3851Y-383D01*
X-3850Y-391D01*
X-3852Y-398D01*
X-3854Y-403D01*
X-3857Y-408D01*
X-3862Y-412D01*
X-3866Y-413D01*
X-3871D01*
X-3875Y-412D01*
X-3879Y-409D01*
X-3882Y-406D01*
G01X-3917Y-413D02*
Y-363D01*
X-3910Y-373D01*
G01Y-413D02*
X-3925D01*
G01X-3967D02*
X-3968Y-403D01*
X-3970Y-393D01*
X-3973Y-385D01*
X-3976Y-376D01*
X-3981Y-363D01*
X-3956D01*
G01X-3505Y-1603D02*
Y-1653D01*
G01X-3605Y-1678D02*
X-3655D01*
G01X-3705D02*
X-3755D01*
G01X-3555D02*
X-3505D01*
G01Y-1503D02*
Y-1553D01*
G01Y-1403D02*
Y-1453D01*
G01Y-1303D02*
Y-1353D01*
G01Y-1203D02*
Y-1253D01*
G01X-3705Y-1178D02*
X-3755D01*
G01X-3605D02*
X-3655D01*
G01X-3505D02*
X-3555D01*
G01X-3701Y-694D02*
X-3651D01*
Y-678D01*
X-3653Y-673D01*
X-3657Y-670D01*
X-3663Y-668D01*
X-3670Y-670D01*
X-3674Y-673D01*
X-3677Y-678D01*
Y-694D01*
G01Y-678D02*
X-3701Y-668D01*
G01Y-630D02*
X-3651D01*
X-3661Y-638D01*
G01X-3701D02*
Y-622D01*
G01Y-579D02*
X-3700Y-574D01*
X-3697Y-569D01*
X-3693Y-566D01*
X-3687Y-565D01*
X-3682Y-566D01*
X-3677Y-570D01*
X-3674Y-576D01*
Y-582D01*
X-3672Y-586D01*
X-3668Y-589D01*
X-3662Y-590D01*
X-3657Y-588D01*
X-3652Y-584D01*
X-3651Y-579D01*
X-3652Y-574D01*
X-3657Y-569D01*
X-3662Y-568D01*
X-3668Y-569D01*
X-3672Y-572D01*
X-3674Y-576D01*
Y-582D01*
X-3677Y-588D01*
X-3682Y-592D01*
X-3687Y-593D01*
X-3693Y-592D01*
X-3697Y-588D01*
X-3700Y-583D01*
X-3701Y-579D01*
G01X-3368Y-368D02*
X-3365Y-365D01*
X-3360Y-363D01*
X-3355D01*
X-3349Y-366D01*
X-3345Y-370D01*
X-3342Y-375D01*
X-3339Y-383D01*
X-3339Y-391D01*
X-3340Y-398D01*
X-3342Y-403D01*
X-3346Y-408D01*
X-3350Y-412D01*
X-3355Y-413D01*
X-3359D01*
X-3363Y-412D01*
X-3367Y-409D01*
X-3370Y-406D01*
G01X-3393Y-372D02*
X-3397Y-367D01*
X-3402Y-364D01*
X-3407Y-363D01*
X-3413Y-365D01*
X-3418Y-369D01*
X-3419Y-374D01*
X-3418Y-379D01*
X-3416Y-383D01*
X-3403Y-392D01*
X-3397Y-398D01*
X-3393Y-406D01*
X-3392Y-413D01*
X-3419D01*
G01X-3457Y-363D02*
X-3451Y-365D01*
X-3448Y-369D01*
X-3445Y-374D01*
X-3443Y-381D01*
X-3443Y-388D01*
X-3443Y-396D01*
X-3445Y-403D01*
X-3448Y-408D01*
X-3451Y-412D01*
X-3457Y-413D01*
X-3462Y-412D01*
X-3465Y-408D01*
X-3468Y-403D01*
X-3470Y-396D01*
X-3470Y-388D01*
X-3470Y-381D01*
X-3468Y-374D01*
X-3465Y-369D01*
X-3462Y-365D01*
X-3457Y-363D01*
G01X-3701Y-201D02*
X-3651D01*
Y-186D01*
X-3653Y-181D01*
X-3657Y-177D01*
X-3663Y-176D01*
X-3670Y-177D01*
X-3674Y-181D01*
X-3677Y-186D01*
Y-201D01*
G01Y-186D02*
X-3701Y-176D01*
G01Y-138D02*
X-3651D01*
X-3661Y-145D01*
G01X-3701D02*
Y-130D01*
G01Y-88D02*
X-3690Y-87D01*
X-3681Y-85D01*
X-3672Y-82D01*
X-3663Y-79D01*
X-3651Y-74D01*
Y-99D01*
G01X-3647Y45D02*
Y484D01*
X-2733D01*
Y45D01*
X-3647D01*
G01X-3443Y-1603D02*
Y-1653D01*
G01X-3193Y-1678D02*
X-3243D01*
G01X-3293D02*
X-3343D01*
G01X-3443D02*
X-3393D01*
G01X-3443Y-1503D02*
Y-1553D01*
G01Y-1403D02*
Y-1453D01*
G01Y-1303D02*
Y-1353D01*
G01X-3293Y-1178D02*
X-3343D01*
G01X-3193D02*
X-3243D01*
G01X-3443Y-1203D02*
Y-1253D01*
G01X-3393Y-1178D02*
X-3443D01*
G01X-2993Y-1603D02*
Y-1653D01*
G01X-3093Y-1678D02*
X-3143D01*
G01X-3043D02*
X-2993D01*
G01X-2886Y-1700D02*
Y-1650D01*
G01X-2993Y-1503D02*
Y-1553D01*
G01Y-1403D02*
Y-1453D01*
G01Y-1303D02*
Y-1353D01*
G01X-2959Y-1507D02*
X-2965Y-1501D01*
X-2968Y-1494D01*
Y-1488D01*
X-2965Y-1482D01*
X-2959Y-1477D01*
X-2952Y-1475D01*
X-2945Y-1476D01*
X-2938Y-1480D01*
X-2934Y-1487D01*
X-2932Y-1496D01*
X-2928Y-1502D01*
X-2920Y-1504D01*
X-2913Y-1503D01*
X-2908Y-1499D01*
X-2905Y-1493D01*
Y-1488D01*
X-2907Y-1482D01*
X-2912Y-1478D01*
G01X-2968Y-1445D02*
X-2905D01*
G01Y-1415D02*
X-2944Y-1445D01*
G01X-2968Y-1411D02*
X-2926Y-1432D01*
G01X-2958Y-1382D02*
X-2964Y-1377D01*
X-2967Y-1372D01*
X-2968Y-1365D01*
X-2966Y-1358D01*
X-2961Y-1352D01*
X-2954Y-1349D01*
X-2946Y-1348D01*
X-2937Y-1349D01*
X-2932Y-1353D01*
X-2928Y-1359D01*
X-2927Y-1364D01*
X-2928Y-1370D01*
X-2932Y-1377D01*
X-2905Y-1374D01*
Y-1353D01*
G01X-2886Y-1500D02*
Y-1450D01*
G01Y-1600D02*
Y-1550D01*
G01X-2993Y-1203D02*
Y-1253D01*
G01X-3093Y-1178D02*
X-3143D01*
G01X-2993D02*
X-3043D01*
G01X-2661Y-1725D02*
X-2611D01*
G01X-2761D02*
X-2711D01*
G01X-2586Y-1700D02*
Y-1650D01*
G01X-2861Y-1725D02*
X-2811D01*
G01X-2586Y-1500D02*
Y-1450D01*
G01X-2861Y-1425D02*
X-2811D01*
G01X-2761D02*
X-2711D01*
G01X-2661D02*
X-2611D01*
G01X-2586Y-1600D02*
Y-1550D01*
G01X-2348Y-1672D02*
X-2383D01*
G01X-2248D02*
X-2298D01*
G01X-2383D02*
Y-1637D01*
G01X-2262Y-1705D02*
X-2256Y-1700D01*
X-2249Y-1697D01*
X-2243D01*
X-2236Y-1700D01*
X-2232Y-1705D01*
X-2229Y-1712D01*
X-2231Y-1720D01*
X-2235Y-1726D01*
X-2242Y-1730D01*
X-2251Y-1732D01*
X-2257Y-1737D01*
X-2259Y-1744D01*
X-2258Y-1751D01*
X-2254Y-1756D01*
X-2248Y-1760D01*
X-2243D01*
X-2237Y-1758D01*
X-2233Y-1752D01*
G01X-2200Y-1697D02*
Y-1760D01*
G01X-2170D02*
X-2200Y-1721D01*
G01X-2166Y-1697D02*
X-2187Y-1739D01*
G01X-2121Y-1697D02*
X-2120Y-1710D01*
X-2118Y-1722D01*
X-2114Y-1732D01*
X-2110Y-1744D01*
X-2104Y-1760D01*
X-2136D01*
G01X-2508Y-1495D02*
X-2503Y-1502D01*
X-2500Y-1509D01*
Y-1515D01*
X-2503Y-1521D01*
X-2508Y-1526D01*
X-2516Y-1528D01*
X-2523Y-1527D01*
X-2529Y-1523D01*
X-2534Y-1516D01*
X-2536Y-1506D01*
X-2540Y-1501D01*
X-2547Y-1498D01*
X-2555Y-1500D01*
X-2560Y-1504D01*
X-2563Y-1509D01*
Y-1515D01*
X-2561Y-1520D01*
X-2556Y-1525D01*
G01X-2500Y-1558D02*
X-2563D01*
G01Y-1587D02*
X-2524Y-1558D01*
G01X-2500Y-1592D02*
X-2542Y-1571D01*
G01X-2526Y-1623D02*
X-2534Y-1628D01*
X-2538Y-1633D01*
X-2540Y-1639D01*
X-2538Y-1645D01*
X-2534Y-1649D01*
X-2527Y-1652D01*
X-2520Y-1653D01*
X-2514Y-1652D01*
X-2507Y-1649D01*
X-2502Y-1644D01*
X-2500Y-1639D01*
X-2502Y-1632D01*
X-2508Y-1627D01*
X-2518Y-1624D01*
X-2528Y-1623D01*
X-2542Y-1624D01*
X-2549Y-1627D01*
X-2557Y-1631D01*
X-2562Y-1636D01*
X-2563Y-1642D01*
X-2561Y-1647D01*
X-2556Y-1651D01*
G01X-2383Y-1587D02*
Y-1537D01*
G01Y-1387D02*
Y-1337D01*
G01Y-1487D02*
Y-1437D01*
G01Y-1187D02*
Y-1137D01*
G01Y-1287D02*
Y-1237D01*
G01Y-1087D02*
Y-1037D01*
G01X-2283Y-837D02*
X-2308D01*
G01X-2383Y-887D02*
Y-837D01*
G01Y-987D02*
Y-937D01*
G01Y-787D02*
Y-737D01*
G01Y-687D02*
Y-637D01*
G01Y-487D02*
Y-437D01*
G01Y-587D02*
Y-537D01*
G01X-2283Y-337D02*
X-2308D01*
G01X-2383Y-187D02*
Y-137D01*
G01Y-287D02*
Y-237D01*
G01Y-387D02*
Y-337D01*
G01Y13D02*
Y63D01*
G01Y-87D02*
Y-37D01*
G01Y113D02*
Y163D01*
G01X-2283D02*
X-2308D01*
G01X-2383Y213D02*
Y263D01*
G01Y413D02*
Y463D01*
G01Y313D02*
Y363D01*
G01Y513D02*
Y563D01*
G01Y713D02*
Y763D01*
G01Y613D02*
Y663D01*
G01X-2363Y848D02*
X-2383D01*
G01X-2248D02*
X-2298D01*
G01X-2348D02*
X-2383D01*
G01X-2248D02*
X-2298D01*
G01X-2383Y813D02*
Y848D01*
G01X-2148Y-1672D02*
X-2198D01*
G01X-2048D02*
X-2098D01*
G01X-1963D02*
X-1998D01*
G01X-2208Y-1087D02*
X-2233D01*
G01X-2083Y-1287D02*
X-2058Y-1312D01*
X-2108D01*
X-2083Y-1287D01*
G01X-2133Y-1037D02*
X-2158D01*
G01X-2058Y-787D02*
X-2083D01*
G01X-2208Y-587D02*
X-2233D01*
G01X-2133Y-537D02*
X-2158D01*
G01X-2058Y-287D02*
X-2083D01*
G01X-2208Y-87D02*
X-2233D01*
G01X-2133Y-37D02*
X-2158D01*
G01X-2058Y213D02*
X-2083D01*
G01X-2213Y413D02*
X-2238D01*
G01X-1963Y848D02*
X-1998D01*
G01X-2048D02*
X-2098D01*
G01X-2148D02*
X-2198D01*
G01X-2148D02*
X-2198D01*
G01X-1963Y-1672D02*
Y-1637D01*
G01X243Y-1659D02*
Y-1697D01*
X239Y-1706D01*
X233Y-1711D01*
X226Y-1713D01*
X219Y-1711D01*
X213Y-1706D01*
X209Y-1697D01*
G01Y-1713D02*
Y-1659D01*
G01X146Y-1713D02*
X152Y-1711D01*
X158Y-1706D01*
X162Y-1697D01*
X164Y-1686D01*
X162Y-1675D01*
X158Y-1666D01*
X152Y-1661D01*
X146Y-1659D01*
X140Y-1661D01*
X134Y-1666D01*
X130Y-1675D01*
X129Y-1686D01*
X130Y-1697D01*
X134Y-1706D01*
X140Y-1711D01*
X146Y-1713D01*
G01X84D02*
Y-1633D01*
G01Y-1673D02*
X79Y-1665D01*
X73Y-1661D01*
X67Y-1659D01*
X58Y-1662D01*
X52Y-1667D01*
X48Y-1677D01*
Y-1687D01*
X50Y-1698D01*
X54Y-1706D01*
X61Y-1711D01*
X67Y-1713D01*
X73Y-1711D01*
X79Y-1707D01*
X84Y-1701D01*
G01X-1Y-1686D02*
X-27D01*
G01X-77Y-1713D02*
Y-1633D01*
G01Y-1671D02*
X-82Y-1665D01*
X-87Y-1661D01*
X-95Y-1659D01*
X-101Y-1661D01*
X-108Y-1666D01*
X-111Y-1674D01*
Y-1713D01*
G01X-159Y-1677D02*
X-191D01*
X-188Y-1667D01*
X-183Y-1662D01*
X-176Y-1659D01*
X-169Y-1661D01*
X-163Y-1665D01*
X-159Y-1674D01*
X-157Y-1682D01*
Y-1690D01*
X-159Y-1698D01*
X-164Y-1706D01*
X-170Y-1711D01*
X-177Y-1713D01*
X-184Y-1710D01*
X-191Y-1702D01*
G01X-236Y-1739D02*
Y-1659D01*
G01Y-1671D02*
X-241Y-1665D01*
X-246Y-1661D01*
X-254Y-1659D01*
X-261Y-1661D01*
X-268Y-1667D01*
X-271Y-1677D01*
X-272Y-1686D01*
X-271Y-1695D01*
X-268Y-1705D01*
X-262Y-1710D01*
X-254Y-1713D01*
X-247Y-1711D01*
X-240Y-1707D01*
X-236Y-1702D01*
G01X-321Y-1686D02*
X-347D01*
G01X-396Y-1739D02*
Y-1659D01*
G01Y-1671D02*
X-401Y-1665D01*
X-406Y-1661D01*
X-414Y-1659D01*
X-421Y-1661D01*
X-428Y-1667D01*
X-431Y-1677D01*
X-432Y-1686D01*
X-431Y-1695D01*
X-428Y-1705D01*
X-422Y-1710D01*
X-414Y-1713D01*
X-407Y-1711D01*
X-400Y-1707D01*
X-396Y-1702D01*
G01X-510Y-1666D02*
X-503Y-1661D01*
X-497Y-1659D01*
X-489Y-1662D01*
X-483Y-1667D01*
X-479Y-1677D01*
X-478Y-1686D01*
X-479Y-1695D01*
X-483Y-1703D01*
X-489Y-1710D01*
X-497Y-1713D01*
X-504Y-1710D01*
X-510Y-1705D01*
G01X-574Y-1633D02*
X-566Y-1635D01*
X-560Y-1642D01*
X-556Y-1650D01*
X-553Y-1661D01*
X-552Y-1673D01*
X-553Y-1685D01*
X-556Y-1695D01*
X-560Y-1703D01*
X-566Y-1710D01*
X-574Y-1713D01*
X-582Y-1710D01*
X-588Y-1703D01*
X-592Y-1695D01*
X-595Y-1685D01*
X-596Y-1673D01*
X-595Y-1661D01*
X-592Y-1650D01*
X-588Y-1642D01*
X-582Y-1635D01*
X-574Y-1633D01*
G01X-654D02*
X-646Y-1635D01*
X-640Y-1642D01*
X-636Y-1650D01*
X-633Y-1661D01*
X-632Y-1673D01*
X-633Y-1685D01*
X-636Y-1695D01*
X-640Y-1703D01*
X-646Y-1710D01*
X-654Y-1713D01*
X-662Y-1710D01*
X-668Y-1703D01*
X-672Y-1695D01*
X-675Y-1685D01*
X-676Y-1673D01*
X-675Y-1661D01*
X-672Y-1650D01*
X-668Y-1642D01*
X-662Y-1635D01*
X-654Y-1633D01*
G01X-712Y-1701D02*
X-718Y-1707D01*
X-725Y-1711D01*
X-734Y-1713D01*
X-743Y-1710D01*
X-750Y-1705D01*
X-755Y-1695D01*
X-756Y-1685D01*
X-754Y-1674D01*
X-749Y-1667D01*
X-742Y-1662D01*
X-735Y-1661D01*
X-728Y-1662D01*
X-719Y-1667D01*
X-722Y-1633D01*
X-749D01*
G01X-894Y-1715D02*
X-892Y-1714D01*
Y-1711D01*
X-894Y-1710D01*
X-896Y-1711D01*
Y-1714D01*
X-894Y-1715D01*
G01Y-1679D02*
X-892Y-1678D01*
Y-1675D01*
X-894Y-1674D01*
X-896Y-1675D01*
Y-1678D01*
X-894Y-1679D01*
G01X-1034Y-1713D02*
Y-1633D01*
X-1058D01*
X-1066Y-1637D01*
X-1072Y-1646D01*
X-1074Y-1657D01*
X-1072Y-1667D01*
X-1067Y-1675D01*
X-1058Y-1679D01*
X-1034D01*
G01X-1154Y-1713D02*
X-1114D01*
Y-1633D01*
X-1154D01*
G01X-1138Y-1671D02*
X-1114D01*
G01X-1236Y-1639D02*
X-1230Y-1635D01*
X-1223Y-1633D01*
X-1215D01*
X-1206Y-1637D01*
X-1199Y-1643D01*
X-1194Y-1651D01*
X-1190Y-1665D01*
X-1189Y-1677D01*
X-1191Y-1689D01*
X-1194Y-1697D01*
X-1200Y-1705D01*
X-1207Y-1710D01*
X-1214Y-1713D01*
X-1221D01*
X-1228Y-1710D01*
X-1234Y-1706D01*
X-1239Y-1701D01*
G01X-1274Y-1633D02*
Y-1713D01*
X-1314D01*
G01X-1361Y-1686D02*
X-1387D01*
G01X-1434Y-1713D02*
X-1474Y-1686D01*
X-1434Y-1659D01*
G01X-1554Y-1713D02*
X-1514D01*
Y-1633D01*
X-1554D01*
G01X-1538Y-1671D02*
X-1514D01*
G01X-1636Y-1639D02*
X-1630Y-1635D01*
X-1623Y-1633D01*
X-1615D01*
X-1606Y-1637D01*
X-1599Y-1643D01*
X-1594Y-1651D01*
X-1590Y-1665D01*
X-1589Y-1677D01*
X-1591Y-1689D01*
X-1594Y-1697D01*
X-1600Y-1705D01*
X-1607Y-1710D01*
X-1614Y-1713D01*
X-1621D01*
X-1628Y-1710D01*
X-1634Y-1706D01*
X-1639Y-1701D01*
G01X-1674Y-1633D02*
Y-1713D01*
X-1714D01*
G01X-1963Y-1387D02*
Y-1337D01*
G01Y-1487D02*
Y-1437D01*
G01Y-1587D02*
Y-1537D01*
G01Y-1087D02*
Y-1037D01*
G01Y-1187D02*
Y-1137D01*
G01Y-1287D02*
Y-1237D01*
G01Y-787D02*
Y-737D01*
G01Y-887D02*
Y-837D01*
G01Y-987D02*
Y-937D01*
G01Y-487D02*
Y-437D01*
G01Y-587D02*
Y-537D01*
G01Y-687D02*
Y-637D01*
G01Y-187D02*
Y-137D01*
G01Y-287D02*
Y-237D01*
G01Y-387D02*
Y-337D01*
G01Y113D02*
Y163D01*
G01Y13D02*
Y63D01*
G01Y-87D02*
Y-37D01*
G01Y413D02*
Y463D01*
G01Y313D02*
Y363D01*
G01Y213D02*
Y263D01*
G01Y713D02*
Y763D01*
G01Y613D02*
Y663D01*
G01Y513D02*
Y563D01*
G01Y813D02*
Y848D01*
G01X-1498Y175D02*
X-1496Y171D01*
X-1494Y167D01*
Y162D01*
X-1497Y156D01*
X-1501Y152D01*
X-1506Y148D01*
X-1514Y146D01*
X-1522Y145D01*
X-1529Y147D01*
X-1534Y148D01*
X-1539Y152D01*
X-1542Y157D01*
X-1544Y161D01*
Y166D01*
X-1542Y170D01*
X-1540Y174D01*
X-1537Y177D01*
G01X-1502Y200D02*
X-1497Y204D01*
X-1495Y208D01*
X-1494Y213D01*
X-1496Y220D01*
X-1500Y224D01*
X-1505Y225D01*
X-1510Y225D01*
X-1514Y222D01*
X-1522Y210D01*
X-1528Y204D01*
X-1537Y200D01*
X-1544Y199D01*
Y225D01*
G01X-1523Y251D02*
X-1517Y256D01*
X-1514Y259D01*
X-1512Y264D01*
X-1514Y269D01*
X-1517Y272D01*
X-1522Y275D01*
X-1528Y275D01*
X-1533Y275D01*
X-1538Y272D01*
X-1542Y268D01*
X-1544Y264D01*
X-1542Y259D01*
X-1537Y254D01*
X-1530Y252D01*
X-1522Y251D01*
X-1511Y252D01*
X-1505Y254D01*
X-1499Y257D01*
X-1495Y262D01*
X-1494Y266D01*
X-1496Y271D01*
X-1500Y274D01*
G01X-1498Y-41D02*
X-1496Y-45D01*
X-1494Y-50D01*
Y-55D01*
X-1497Y-60D01*
X-1501Y-65D01*
X-1506Y-68D01*
X-1514Y-71D01*
X-1522Y-71D01*
X-1529Y-70D01*
X-1534Y-68D01*
X-1539Y-64D01*
X-1542Y-60D01*
X-1544Y-55D01*
Y-51D01*
X-1542Y-47D01*
X-1540Y-43D01*
X-1537Y-40D01*
G01X-1502Y-16D02*
X-1497Y-13D01*
X-1495Y-8D01*
X-1494Y-3D01*
X-1496Y3D01*
X-1500Y8D01*
X-1505Y9D01*
X-1510Y8D01*
X-1514Y6D01*
X-1522Y-7D01*
X-1528Y-13D01*
X-1537Y-16D01*
X-1544Y-18D01*
Y9D01*
G01X-1537Y33D02*
X-1541Y36D01*
X-1543Y41D01*
X-1544Y47D01*
X-1542Y52D01*
X-1539Y57D01*
X-1533Y60D01*
X-1527Y61D01*
X-1520Y59D01*
X-1516Y56D01*
X-1512Y52D01*
X-1512Y47D01*
X-1512Y43D01*
X-1516Y37D01*
X-1494Y39D01*
Y56D01*
G01X-1498Y392D02*
X-1496Y388D01*
X-1494Y383D01*
Y378D01*
X-1497Y373D01*
X-1501Y368D01*
X-1506Y365D01*
X-1514Y363D01*
X-1522Y362D01*
X-1529Y363D01*
X-1534Y365D01*
X-1539Y369D01*
X-1542Y373D01*
X-1544Y378D01*
Y382D01*
X-1542Y387D01*
X-1540Y390D01*
X-1537Y394D01*
G01X-1502Y417D02*
X-1497Y420D01*
X-1495Y425D01*
X-1494Y430D01*
X-1496Y436D01*
X-1500Y441D01*
X-1505Y442D01*
X-1510Y441D01*
X-1514Y439D01*
X-1522Y426D01*
X-1528Y420D01*
X-1537Y417D01*
X-1544Y415D01*
Y442D01*
G01X-1538Y469D02*
X-1542Y473D01*
X-1544Y478D01*
X-1542Y484D01*
X-1537Y488D01*
X-1530Y491D01*
X-1522Y492D01*
X-1513D01*
X-1506Y491D01*
X-1499Y488D01*
X-1496Y484D01*
X-1494Y480D01*
X-1496Y475D01*
X-1499Y471D01*
X-1504Y468D01*
X-1511Y467D01*
X-1517Y468D01*
X-1522Y471D01*
X-1526Y475D01*
X-1527Y480D01*
X-1525Y485D01*
X-1521Y489D01*
X-1513Y492D01*
G01X-551Y-1368D02*
Y-1329D01*
X-512D01*
G01X-551Y-1447D02*
Y-1486D01*
X-512D01*
G01X-734Y-408D02*
Y-441D01*
X-414D01*
Y-408D01*
G01X-734Y-308D02*
Y-374D01*
G01Y-208D02*
Y-274D01*
G01Y-108D02*
Y-174D01*
G01Y-8D02*
Y-74D01*
G01Y92D02*
Y26D01*
G01Y192D02*
Y126D01*
G01Y292D02*
Y226D01*
G01Y392D02*
Y326D01*
G01Y492D02*
Y426D01*
G01Y592D02*
Y526D01*
G01Y692D02*
Y626D01*
G01X-414Y759D02*
X-524D01*
X-549Y734D01*
X-599D01*
X-624Y759D01*
X-734D01*
Y726D01*
G01X-610Y777D02*
Y813D01*
X-608Y820D01*
X-603Y825D01*
X-596Y827D01*
X-590Y825D01*
X-585Y820D01*
X-582Y813D01*
Y777D01*
G01X-556Y821D02*
X-552Y825D01*
X-547Y827D01*
X-542Y825D01*
X-537Y820D01*
X-534Y813D01*
X-533Y805D01*
Y796D01*
X-534Y788D01*
X-537Y782D01*
X-541Y778D01*
X-545Y777D01*
X-550Y778D01*
X-554Y782D01*
X-557Y787D01*
X-558Y793D01*
X-557Y799D01*
X-554Y805D01*
X-550Y808D01*
X-545Y809D01*
X-540Y808D01*
X-537Y803D01*
X-533Y796D01*
G01X-236Y-1486D02*
X-118D01*
G01X-433D02*
X-315D01*
G01X-236Y-1329D02*
X-118D01*
G01X-433D02*
X-315D01*
G01X-211Y-1283D02*
X-216Y-1287D01*
X-222Y-1289D01*
X-227D01*
X-232Y-1287D01*
X-236Y-1283D01*
X-238Y-1277D01*
X-237Y-1271D01*
X-233Y-1266D01*
X-228Y-1263D01*
X-220Y-1261D01*
X-216Y-1258D01*
X-214Y-1252D01*
X-215Y-1246D01*
X-218Y-1242D01*
X-223Y-1239D01*
X-227D01*
X-232Y-1241D01*
X-235Y-1245D01*
G01X-262Y-1289D02*
Y-1239D01*
G01X-286D02*
X-262Y-1270D01*
G01X-290Y-1289D02*
X-272Y-1256D01*
G01X-327Y-1289D02*
X-331Y-1289D01*
X-336Y-1286D01*
X-339Y-1282D01*
X-341Y-1276D01*
X-339Y-1270D01*
X-335Y-1265D01*
X-330Y-1263D01*
X-323D01*
X-320Y-1261D01*
X-316Y-1257D01*
X-315Y-1251D01*
X-317Y-1245D01*
X-322Y-1241D01*
X-327Y-1239D01*
X-332Y-1241D01*
X-336Y-1245D01*
X-338Y-1251D01*
X-337Y-1257D01*
X-334Y-1261D01*
X-330Y-1263D01*
X-323D01*
X-318Y-1265D01*
X-314Y-1270D01*
X-313Y-1276D01*
X-314Y-1282D01*
X-317Y-1286D01*
X-322Y-1289D01*
X-327Y-1289D01*
G01X-414Y-174D02*
Y-108D01*
G01Y-274D02*
Y-208D01*
G01Y-374D02*
Y-308D01*
G01Y126D02*
Y192D01*
G01Y26D02*
Y92D01*
G01Y-74D02*
Y-8D01*
G01Y426D02*
Y492D01*
G01Y326D02*
Y392D01*
G01Y226D02*
Y292D01*
G01X-74Y197D02*
Y247D01*
X-90D01*
X-95Y244D01*
X-98Y241D01*
X-99Y234D01*
X-98Y228D01*
X-94Y224D01*
X-90Y221D01*
X-74D01*
G01X-90D02*
X-99Y197D01*
G01X-145D02*
Y247D01*
X-122Y211D01*
X-154D01*
G01X-189Y197D02*
Y247D01*
X-181Y237D01*
G01Y197D02*
X-196D01*
G01X-133Y394D02*
Y444D01*
X-149D01*
X-154Y441D01*
X-157Y438D01*
X-159Y431D01*
X-157Y425D01*
X-153Y420D01*
X-149Y418D01*
X-133D01*
G01X-149D02*
X-159Y394D01*
G01X-204D02*
Y444D01*
X-181Y408D01*
X-213D01*
G01X-248Y444D02*
X-243Y442D01*
X-239Y438D01*
X-236Y433D01*
X-235Y426D01*
X-234Y419D01*
X-235Y411D01*
X-236Y405D01*
X-239Y400D01*
X-243Y395D01*
X-248Y394D01*
X-253Y395D01*
X-257Y400D01*
X-259Y405D01*
X-261Y411D01*
X-262Y419D01*
X-261Y426D01*
X-259Y433D01*
X-257Y438D01*
X-253Y442D01*
X-248Y444D01*
G01X-414Y752D02*
Y759D01*
G01Y626D02*
Y665D01*
G01Y526D02*
Y592D01*
G01X-39Y-1329D02*
X0D01*
Y-1368D01*
G01X-39Y-1486D02*
X0D01*
Y-1447D01*
G01X83Y-512D02*
Y-462D01*
X68D01*
X62Y-464D01*
X59Y-468D01*
X58Y-474D01*
X59Y-481D01*
X63Y-485D01*
X68Y-488D01*
X83D01*
G01X68D02*
X58Y-512D01*
G01X12D02*
Y-462D01*
X36Y-498D01*
X4D01*
G01X-17Y-504D02*
X-21Y-508D01*
X-26Y-511D01*
X-31Y-512D01*
X-37Y-510D01*
X-41Y-507D01*
X-45Y-501D01*
X-45Y-494D01*
X-44Y-488D01*
X-41Y-483D01*
X-36Y-480D01*
X-32Y-479D01*
X-28Y-480D01*
X-22Y-483D01*
X-24Y-462D01*
X-41D01*
G01X5Y-236D02*
Y-186D01*
X-11D01*
X-16Y-189D01*
X-19Y-192D01*
X-21Y-199D01*
X-19Y-205D01*
X-16Y-210D01*
X-11Y-212D01*
X5D01*
G01X-11D02*
X-21Y-236D01*
G01X-67D02*
Y-186D01*
X-43Y-222D01*
X-75D01*
G01X-118Y-236D02*
Y-186D01*
X-94Y-222D01*
X-126D01*
G01X441Y-1701D02*
X476D01*
G01X526D02*
X576D01*
G01X626D02*
X676D01*
G01X726D02*
X776D01*
G01X726D02*
X776D01*
G01X626D02*
X676D01*
G01X441Y-1666D02*
Y-1701D01*
G01Y-1566D02*
Y-1616D01*
G01Y-1466D02*
Y-1516D01*
G01Y-1366D02*
Y-1416D01*
G01X536Y-1066D02*
X561D01*
G01X441Y-1266D02*
Y-1316D01*
G01Y-1166D02*
Y-1216D01*
G01Y-1066D02*
Y-1116D01*
G01X686Y-866D02*
X711D01*
G01X611Y-816D02*
X636D01*
G01X441Y-966D02*
Y-1016D01*
G01Y-866D02*
Y-916D01*
G01Y-766D02*
Y-816D01*
G01X536Y-566D02*
X561D01*
G01X441Y-666D02*
Y-716D01*
G01Y-566D02*
Y-616D01*
G01Y-466D02*
Y-516D01*
G01X686Y-366D02*
X711D01*
G01X611Y-316D02*
X636D01*
G01X441Y-366D02*
Y-416D01*
G01Y-266D02*
Y-316D01*
G01Y-166D02*
Y-216D01*
G01X686Y134D02*
X711D01*
G01X536Y-66D02*
X561D01*
G01X441D02*
Y-116D01*
G01Y134D02*
Y84D01*
G01X611Y184D02*
X636D01*
G01X561Y434D02*
X536Y459D01*
X586D01*
X561Y434D01*
G01X441Y234D02*
Y184D01*
G01Y334D02*
Y284D01*
G01Y434D02*
Y384D01*
G01Y534D02*
Y484D01*
G01Y634D02*
Y584D01*
G01Y734D02*
Y684D01*
G01X726Y819D02*
X776D01*
G01X626D02*
X676D01*
G01X526D02*
X576D01*
G01X441D02*
X476D01*
G01X441D02*
Y784D01*
G01X740Y852D02*
X734Y847D01*
X727Y844D01*
X721D01*
X715Y847D01*
X710Y852D01*
X708Y860D01*
X709Y867D01*
X713Y873D01*
X720Y877D01*
X730Y880D01*
X735Y884D01*
X737Y891D01*
X736Y898D01*
X732Y904D01*
X726Y907D01*
X721D01*
X715Y905D01*
X711Y900D01*
G01X678Y844D02*
Y907D01*
G01X648D02*
X678Y868D01*
G01X644Y844D02*
X665Y886D01*
G01X611Y851D02*
X606Y846D01*
X600Y844D01*
X593Y846D01*
X588Y852D01*
X584Y862D01*
X582Y871D01*
Y883D01*
X584Y892D01*
X588Y901D01*
X593Y905D01*
X598Y907D01*
X604Y905D01*
X609Y901D01*
X612Y894D01*
X614Y886D01*
X612Y879D01*
X608Y871D01*
X604Y867D01*
X598Y866D01*
X592Y868D01*
X587Y873D01*
X582Y883D01*
G01X995Y-1705D02*
X960D01*
G01D02*
Y-1670D01*
G01X841Y-1701D02*
X861D01*
G01X826D02*
X861D01*
G01Y-1666D02*
Y-1701D01*
G01X960Y-1620D02*
Y-1570D01*
G01Y-1420D02*
Y-1370D01*
G01Y-1520D02*
Y-1470D01*
G01X861Y-1366D02*
Y-1416D01*
G01Y-1566D02*
Y-1616D01*
G01Y-1466D02*
Y-1516D01*
G01X960Y-1220D02*
Y-1170D01*
G01Y-1320D02*
Y-1270D01*
G01Y-1120D02*
Y-1070D01*
G01X761Y-1116D02*
X786D01*
G01X861Y-1066D02*
Y-1116D01*
G01Y-1266D02*
Y-1316D01*
G01Y-1166D02*
Y-1216D01*
G01X960Y-920D02*
Y-870D01*
G01Y-1020D02*
Y-970D01*
G01Y-820D02*
Y-770D01*
G01X861Y-866D02*
Y-916D01*
G01Y-766D02*
Y-816D01*
G01Y-966D02*
Y-1016D01*
G01X960Y-720D02*
Y-670D01*
G01Y-520D02*
Y-470D01*
G01Y-620D02*
Y-570D01*
G01X761Y-616D02*
X786D01*
G01X861Y-666D02*
Y-716D01*
G01Y-566D02*
Y-616D01*
G01Y-466D02*
Y-516D01*
G01X960Y-220D02*
Y-170D01*
G01Y-320D02*
Y-270D01*
G01Y-420D02*
Y-370D01*
G01X861Y-166D02*
Y-216D01*
G01Y-366D02*
Y-416D01*
G01Y-266D02*
Y-316D01*
G01X960Y-20D02*
Y30D01*
G01Y-120D02*
Y-70D01*
G01Y80D02*
Y130D01*
G01X761Y-116D02*
X786D01*
G01X861Y34D02*
Y-16D01*
G01Y134D02*
Y84D01*
G01Y-66D02*
Y-116D01*
G01X960Y180D02*
Y230D01*
G01Y380D02*
Y430D01*
G01Y280D02*
Y330D01*
G01X761Y384D02*
X786D01*
G01X861Y334D02*
Y284D01*
G01Y434D02*
Y384D01*
G01Y234D02*
Y184D01*
G01X960Y480D02*
Y530D01*
G01Y680D02*
Y730D01*
G01Y580D02*
Y630D01*
G01X861Y734D02*
Y684D01*
G01Y534D02*
Y484D01*
G01Y634D02*
Y584D01*
G01X980Y815D02*
X960D01*
G01X995D02*
X960D01*
G01Y780D02*
Y815D01*
G01X826Y819D02*
X861D01*
G01D02*
Y784D01*
G01X1095Y-1705D02*
X1045D01*
G01X1195D02*
X1145D01*
G01X1295D02*
X1245D01*
G01X1049Y-1738D02*
X1055Y-1733D01*
X1062Y-1730D01*
X1068D01*
X1075Y-1733D01*
X1079Y-1738D01*
X1082Y-1745D01*
X1080Y-1753D01*
X1076Y-1759D01*
X1069Y-1763D01*
X1060Y-1765D01*
X1054Y-1770D01*
X1052Y-1777D01*
X1054Y-1784D01*
X1058Y-1790D01*
X1063Y-1793D01*
X1068D01*
X1074Y-1791D01*
X1079Y-1785D01*
G01X1111Y-1730D02*
Y-1793D01*
G01X1141D02*
X1111Y-1754D01*
G01X1146Y-1730D02*
X1124Y-1772D01*
G01X1191Y-1730D02*
Y-1793D01*
X1182Y-1780D01*
G01Y-1730D02*
X1201D01*
G01X1254Y-1793D02*
X1248Y-1791D01*
X1243Y-1785D01*
X1240Y-1779D01*
X1238Y-1771D01*
X1237Y-1761D01*
X1238Y-1752D01*
X1240Y-1743D01*
X1243Y-1737D01*
X1248Y-1732D01*
X1254Y-1730D01*
X1261Y-1732D01*
X1265Y-1737D01*
X1268Y-1743D01*
X1271Y-1752D01*
X1272Y-1761D01*
X1271Y-1771D01*
X1268Y-1779D01*
X1265Y-1785D01*
X1261Y-1791D01*
X1254Y-1793D01*
G01X1060Y-1270D02*
X1035D01*
G01X1210Y-1070D02*
X1185D01*
G01X1260Y-1320D02*
X1285Y-1345D01*
X1235D01*
X1260Y-1320D01*
G01X1060Y-770D02*
X1035D01*
G01X1135Y-1020D02*
X1110D01*
G01X1285Y-820D02*
X1260D01*
G01X1135Y-520D02*
X1110D01*
G01X1210Y-570D02*
X1185D01*
G01X1060Y-270D02*
X1035D01*
G01X1285Y-320D02*
X1260D01*
G01X1135Y-20D02*
X1110D01*
G01X1210Y-70D02*
X1185D01*
G01X1060Y230D02*
X1035D01*
G01X1285Y180D02*
X1260D01*
G01X1122Y428D02*
X1172D01*
Y444D01*
X1170Y449D01*
X1166Y453D01*
X1160Y454D01*
X1153Y453D01*
X1149Y449D01*
X1146Y444D01*
Y428D01*
G01Y444D02*
X1122Y454D01*
G01X1164Y480D02*
X1169Y484D01*
X1171Y488D01*
X1172Y493D01*
X1170Y500D01*
X1166Y504D01*
X1161Y505D01*
X1156Y505D01*
X1152Y502D01*
X1144Y490D01*
X1138Y484D01*
X1130Y480D01*
X1122Y479D01*
Y505D01*
G01Y543D02*
X1123Y548D01*
X1125Y553D01*
X1130Y556D01*
X1135Y557D01*
X1141Y556D01*
X1146Y552D01*
X1149Y546D01*
Y540D01*
X1150Y536D01*
X1155Y533D01*
X1160Y532D01*
X1166Y534D01*
X1170Y538D01*
X1172Y543D01*
X1170Y548D01*
X1166Y553D01*
X1160Y555D01*
X1155Y553D01*
X1150Y550D01*
X1149Y546D01*
Y540D01*
X1146Y534D01*
X1141Y530D01*
X1135Y529D01*
X1130Y530D01*
X1125Y534D01*
X1123Y539D01*
X1122Y543D01*
G01X1295Y815D02*
X1245D01*
G01X1195D02*
X1145D01*
G01X1095D02*
X1045D01*
G01X1095D02*
X1045D01*
G01X1195D02*
X1145D01*
G01X1380Y-1705D02*
X1345D01*
G01X1380D02*
Y-1670D01*
G01X3018Y-1679D02*
Y-1716D01*
X3014Y-1726D01*
X3008Y-1731D01*
X3001Y-1732D01*
X2994Y-1731D01*
X2988Y-1726D01*
X2984Y-1716D01*
G01Y-1732D02*
Y-1679D01*
G01X2921Y-1732D02*
X2927Y-1731D01*
X2933Y-1726D01*
X2937Y-1716D01*
X2939Y-1706D01*
X2937Y-1695D01*
X2933Y-1686D01*
X2927Y-1680D01*
X2921Y-1679D01*
X2915Y-1680D01*
X2909Y-1686D01*
X2905Y-1695D01*
X2904Y-1706D01*
X2905Y-1716D01*
X2909Y-1726D01*
X2915Y-1731D01*
X2921Y-1732D01*
G01X2859D02*
Y-1652D01*
G01Y-1692D02*
X2854Y-1684D01*
X2848Y-1680D01*
X2842Y-1679D01*
X2833Y-1682D01*
X2827Y-1687D01*
X2823Y-1696D01*
Y-1707D01*
X2825Y-1718D01*
X2829Y-1726D01*
X2836Y-1731D01*
X2842Y-1732D01*
X2848Y-1731D01*
X2854Y-1727D01*
X2859Y-1720D01*
G01X2774Y-1706D02*
X2748D01*
G01X2698Y-1732D02*
Y-1652D01*
G01Y-1691D02*
X2693Y-1684D01*
X2688Y-1680D01*
X2680Y-1679D01*
X2674Y-1680D01*
X2667Y-1686D01*
X2664Y-1694D01*
Y-1732D01*
G01X2616Y-1696D02*
X2584D01*
X2587Y-1687D01*
X2592Y-1682D01*
X2599Y-1679D01*
X2606Y-1680D01*
X2612Y-1684D01*
X2616Y-1694D01*
X2618Y-1702D01*
Y-1710D01*
X2616Y-1718D01*
X2611Y-1726D01*
X2605Y-1731D01*
X2598Y-1732D01*
X2591Y-1730D01*
X2584Y-1722D01*
G01X2539Y-1759D02*
Y-1679D01*
G01Y-1691D02*
X2534Y-1684D01*
X2529Y-1680D01*
X2521Y-1679D01*
X2514Y-1680D01*
X2507Y-1687D01*
X2504Y-1696D01*
X2503Y-1706D01*
X2504Y-1715D01*
X2507Y-1724D01*
X2513Y-1730D01*
X2521Y-1732D01*
X2528Y-1731D01*
X2535Y-1727D01*
X2539Y-1722D01*
G01X2454Y-1706D02*
X2428D01*
G01X2379Y-1759D02*
Y-1679D01*
G01Y-1691D02*
X2374Y-1684D01*
X2369Y-1680D01*
X2361Y-1679D01*
X2354Y-1680D01*
X2347Y-1687D01*
X2344Y-1696D01*
X2343Y-1706D01*
X2344Y-1715D01*
X2347Y-1724D01*
X2353Y-1730D01*
X2361Y-1732D01*
X2368Y-1731D01*
X2375Y-1727D01*
X2379Y-1722D01*
G01X2265Y-1686D02*
X2272Y-1680D01*
X2278Y-1679D01*
X2286Y-1682D01*
X2292Y-1687D01*
X2296Y-1696D01*
X2297Y-1706D01*
X2296Y-1715D01*
X2292Y-1723D01*
X2286Y-1730D01*
X2278Y-1732D01*
X2271Y-1730D01*
X2265Y-1724D01*
G01X2201Y-1652D02*
X2209Y-1655D01*
X2215Y-1662D01*
X2219Y-1670D01*
X2222Y-1680D01*
X2223Y-1692D01*
X2222Y-1704D01*
X2219Y-1715D01*
X2215Y-1723D01*
X2209Y-1730D01*
X2201Y-1732D01*
X2193Y-1730D01*
X2187Y-1723D01*
X2183Y-1715D01*
X2180Y-1704D01*
X2179Y-1692D01*
X2180Y-1680D01*
X2183Y-1670D01*
X2187Y-1662D01*
X2193Y-1655D01*
X2201Y-1652D01*
G01X2121D02*
X2129Y-1655D01*
X2135Y-1662D01*
X2139Y-1670D01*
X2142Y-1680D01*
X2143Y-1692D01*
X2142Y-1704D01*
X2139Y-1715D01*
X2135Y-1723D01*
X2129Y-1730D01*
X2121Y-1732D01*
X2113Y-1730D01*
X2107Y-1723D01*
X2103Y-1715D01*
X2100Y-1704D01*
X2099Y-1692D01*
X2100Y-1680D01*
X2103Y-1670D01*
X2107Y-1662D01*
X2113Y-1655D01*
X2121Y-1652D01*
G01X2063Y-1720D02*
X2057Y-1727D01*
X2050Y-1731D01*
X2041Y-1732D01*
X2032Y-1730D01*
X2025Y-1724D01*
X2020Y-1715D01*
X2019Y-1704D01*
X2021Y-1694D01*
X2026Y-1687D01*
X2033Y-1682D01*
X2040Y-1680D01*
X2047Y-1682D01*
X2056Y-1687D01*
X2053Y-1652D01*
X2026D01*
G01X1881Y-1735D02*
X1883Y-1734D01*
Y-1731D01*
X1881Y-1730D01*
X1879Y-1731D01*
Y-1734D01*
X1881Y-1735D01*
G01Y-1699D02*
X1883Y-1698D01*
Y-1695D01*
X1881Y-1694D01*
X1879Y-1695D01*
Y-1698D01*
X1881Y-1699D01*
G01X1739Y-1732D02*
Y-1652D01*
G01Y-1692D02*
X1734Y-1684D01*
X1728Y-1680D01*
X1722Y-1679D01*
X1713Y-1682D01*
X1707Y-1687D01*
X1703Y-1696D01*
Y-1707D01*
X1705Y-1718D01*
X1709Y-1726D01*
X1716Y-1731D01*
X1722Y-1732D01*
X1728Y-1731D01*
X1734Y-1727D01*
X1739Y-1720D01*
G01X1641Y-1679D02*
Y-1732D01*
G01Y-1658D02*
X1643Y-1656D01*
Y-1654D01*
X1641Y-1652D01*
X1639Y-1654D01*
Y-1656D01*
X1641Y-1658D01*
G01X1543Y-1732D02*
Y-1679D01*
G01Y-1688D02*
X1547Y-1683D01*
X1553Y-1680D01*
X1560Y-1679D01*
X1567Y-1682D01*
X1573Y-1687D01*
X1577Y-1695D01*
X1579Y-1706D01*
X1577Y-1716D01*
X1573Y-1724D01*
X1567Y-1730D01*
X1560Y-1732D01*
X1553Y-1731D01*
X1547Y-1727D01*
X1543Y-1722D01*
G01X1496Y-1723D02*
X1491Y-1728D01*
X1484Y-1732D01*
X1478D01*
X1472Y-1730D01*
X1468Y-1726D01*
X1466Y-1720D01*
X1467Y-1712D01*
X1471Y-1708D01*
X1489Y-1700D01*
X1493Y-1691D01*
X1491Y-1684D01*
X1487Y-1680D01*
X1481Y-1679D01*
X1475Y-1680D01*
X1469Y-1684D01*
G01X1380Y-1420D02*
Y-1370D01*
G01Y-1520D02*
Y-1470D01*
G01Y-1620D02*
Y-1570D01*
G01X1575Y-1461D02*
X1625D01*
Y-1445D01*
X1622Y-1440D01*
X1619Y-1437D01*
X1612Y-1436D01*
X1606Y-1437D01*
X1601Y-1441D01*
X1599Y-1445D01*
Y-1461D01*
G01Y-1445D02*
X1575Y-1436D01*
G01X1582Y-1412D02*
X1578Y-1408D01*
X1576Y-1403D01*
X1575Y-1398D01*
X1576Y-1392D01*
X1580Y-1388D01*
X1586Y-1384D01*
X1592Y-1384D01*
X1599Y-1385D01*
X1603Y-1388D01*
X1606Y-1393D01*
X1607Y-1397D01*
X1606Y-1401D01*
X1603Y-1407D01*
X1625Y-1405D01*
Y-1388D01*
G01Y-1347D02*
X1623Y-1352D01*
X1619Y-1356D01*
X1614Y-1358D01*
X1607Y-1360D01*
X1600Y-1361D01*
X1592Y-1360D01*
X1586Y-1358D01*
X1581Y-1356D01*
X1576Y-1352D01*
X1575Y-1347D01*
X1576Y-1342D01*
X1581Y-1338D01*
X1586Y-1335D01*
X1592Y-1333D01*
X1600Y-1333D01*
X1607Y-1333D01*
X1614Y-1335D01*
X1619Y-1338D01*
X1623Y-1342D01*
X1625Y-1347D01*
G01X1380Y-1120D02*
Y-1070D01*
G01Y-1220D02*
Y-1170D01*
G01Y-1320D02*
Y-1270D01*
G01Y-820D02*
Y-770D01*
G01Y-920D02*
Y-870D01*
G01Y-1020D02*
Y-970D01*
G01Y-520D02*
Y-470D01*
G01Y-620D02*
Y-570D01*
G01Y-720D02*
Y-670D01*
G01Y-220D02*
Y-170D01*
G01Y-320D02*
Y-270D01*
G01Y-420D02*
Y-370D01*
G01Y80D02*
Y130D01*
G01Y-20D02*
Y30D01*
G01Y-120D02*
Y-70D01*
G01Y380D02*
Y430D01*
G01Y280D02*
Y330D01*
G01Y180D02*
Y230D01*
G01Y680D02*
Y730D01*
G01Y580D02*
Y630D01*
G01Y525D02*
Y530D01*
G01X1417Y566D02*
X1467D01*
Y582D01*
X1465Y587D01*
X1461Y590D01*
X1455Y592D01*
X1448Y590D01*
X1444Y587D01*
X1441Y582D01*
Y566D01*
G01Y582D02*
X1417Y592D01*
G01X1459Y618D02*
X1464Y622D01*
X1466Y626D01*
X1467Y631D01*
X1466Y638D01*
X1461Y642D01*
X1456Y643D01*
X1451Y643D01*
X1447Y640D01*
X1439Y627D01*
X1433Y622D01*
X1425Y618D01*
X1417Y617D01*
Y643D01*
G01X1425Y667D02*
X1421Y671D01*
X1418Y675D01*
X1417Y681D01*
X1419Y687D01*
X1422Y691D01*
X1428Y694D01*
X1435Y695D01*
X1441Y694D01*
X1446Y690D01*
X1449Y686D01*
X1450Y682D01*
X1449Y677D01*
X1446Y671D01*
X1467Y673D01*
Y690D01*
G01X1380Y815D02*
X1345D01*
G01X1380Y780D02*
Y815D01*
G01X1693Y-960D02*
X1643D01*
Y-976D01*
X1645Y-981D01*
X1649Y-984D01*
X1655Y-985D01*
X1662Y-984D01*
X1666Y-980D01*
X1669Y-976D01*
Y-960D01*
G01Y-976D02*
X1693Y-985D01*
G01X1685Y-1010D02*
X1690Y-1013D01*
X1692Y-1018D01*
X1693Y-1024D01*
X1691Y-1029D01*
X1688Y-1034D01*
X1682Y-1037D01*
X1675Y-1038D01*
X1669Y-1036D01*
X1665Y-1033D01*
X1661Y-1029D01*
X1660Y-1024D01*
X1661Y-1020D01*
X1665Y-1014D01*
X1643Y-1016D01*
Y-1033D01*
G01X1693Y-1075D02*
X1643D01*
X1653Y-1067D01*
G01X1693D02*
Y-1082D01*
G01X1861Y-170D02*
X1761D01*
G01X1922Y-267D02*
X1916Y-272D01*
X1909Y-276D01*
X1902D01*
X1896Y-272D01*
X1891Y-267D01*
X1889Y-260D01*
X1891Y-252D01*
X1895Y-246D01*
X1902Y-242D01*
X1911Y-240D01*
X1916Y-236D01*
X1919Y-228D01*
X1917Y-221D01*
X1913Y-216D01*
X1908Y-213D01*
X1902D01*
X1897Y-215D01*
X1892Y-220D01*
G01X1860Y-276D02*
Y-213D01*
G01X1830D02*
X1860Y-251D01*
G01X1825Y-276D02*
X1846Y-234D01*
G01X1780Y-276D02*
Y-213D01*
X1789Y-225D01*
G01Y-276D02*
X1770D01*
G01X1734Y-263D02*
X1729Y-270D01*
X1723Y-275D01*
X1716Y-276D01*
X1709Y-275D01*
X1703Y-269D01*
X1699Y-263D01*
X1699Y-257D01*
X1700Y-249D01*
X1706Y-244D01*
X1711Y-242D01*
X1718D01*
G01X1711D02*
X1706Y-239D01*
X1702Y-234D01*
X1701Y-227D01*
X1702Y-221D01*
X1706Y-216D01*
X1713Y-213D01*
X1720Y-214D01*
X1728Y-218D01*
G01X1661Y-70D02*
Y30D01*
G01X1761Y130D02*
X1861D01*
G01X1661Y265D02*
Y365D01*
G01X1861Y165D02*
X1761D01*
G01X1661Y600D02*
Y700D01*
G01X1861Y500D02*
X1761D01*
G01Y465D02*
X1861D01*
G01X1761Y800D02*
X1861D01*
G01X1922Y833D02*
X1916Y828D01*
X1909Y825D01*
X1902D01*
X1896Y828D01*
X1891Y833D01*
X1889Y840D01*
X1891Y848D01*
X1895Y854D01*
X1902Y858D01*
X1911Y860D01*
X1916Y864D01*
X1919Y872D01*
X1917Y879D01*
X1913Y884D01*
X1908Y888D01*
X1902D01*
X1897Y885D01*
X1892Y880D01*
G01X1860Y825D02*
Y888D01*
G01X1830D02*
X1860Y849D01*
G01X1825Y825D02*
X1846Y867D01*
G01X1780Y825D02*
Y888D01*
X1789Y875D01*
G01Y825D02*
X1770D01*
G01X1731Y877D02*
X1727Y883D01*
X1721Y887D01*
X1715Y888D01*
X1707Y885D01*
X1702Y880D01*
X1700Y874D01*
X1701Y868D01*
X1704Y862D01*
X1720Y852D01*
X1727Y845D01*
X1731Y834D01*
X1733Y825D01*
X1700D01*
G01X2008Y-1383D02*
X2058D01*
Y-1367D01*
X2055Y-1362D01*
X2052Y-1358D01*
X2045Y-1357D01*
X2039Y-1358D01*
X2035Y-1362D01*
X2032Y-1367D01*
Y-1383D01*
G01Y-1367D02*
X2008Y-1357D01*
G01X2015Y-1333D02*
X2011Y-1329D01*
X2009Y-1325D01*
X2008Y-1319D01*
X2010Y-1313D01*
X2013Y-1309D01*
X2019Y-1306D01*
X2025Y-1305D01*
X2032Y-1306D01*
X2036Y-1309D01*
X2040Y-1314D01*
X2040Y-1318D01*
X2040Y-1323D01*
X2036Y-1328D01*
X2058Y-1326D01*
Y-1309D01*
G01X2008Y-1260D02*
X2058D01*
X2022Y-1284D01*
Y-1252D01*
G01X2067Y-822D02*
X2017D01*
Y-838D01*
X2019Y-843D01*
X2023Y-846D01*
X2029Y-847D01*
X2036Y-846D01*
X2040Y-842D01*
X2043Y-838D01*
Y-822D01*
G01Y-838D02*
X2067Y-847D01*
G01X2059Y-872D02*
X2064Y-876D01*
X2066Y-880D01*
X2067Y-886D01*
X2065Y-892D01*
X2062Y-896D01*
X2056Y-899D01*
X2049Y-900D01*
X2043Y-898D01*
X2039Y-895D01*
X2035Y-891D01*
X2034Y-886D01*
X2035Y-882D01*
X2039Y-876D01*
X2017Y-878D01*
Y-895D01*
G01X2059Y-923D02*
X2064Y-927D01*
X2066Y-931D01*
X2067Y-937D01*
X2065Y-943D01*
X2062Y-947D01*
X2056Y-950D01*
X2049Y-951D01*
X2043Y-949D01*
X2039Y-946D01*
X2035Y-942D01*
X2034Y-937D01*
X2035Y-933D01*
X2039Y-927D01*
X2017Y-929D01*
Y-946D01*
G01X1961Y30D02*
Y-70D01*
G01Y365D02*
Y265D01*
G01X2059Y426D02*
X2064Y420D01*
X2067Y413D01*
Y406D01*
X2064Y400D01*
X2059Y395D01*
X2051Y393D01*
X2044Y395D01*
X2038Y398D01*
X2033Y406D01*
X2031Y415D01*
X2027Y420D01*
X2020Y423D01*
X2012Y421D01*
X2007Y417D01*
X2004Y412D01*
Y406D01*
X2006Y401D01*
X2011Y396D01*
G01X2067Y364D02*
X2004D01*
G01Y334D02*
X2043Y364D01*
G01X2067Y329D02*
X2025Y350D01*
G01X2067Y283D02*
X2004D01*
X2017Y293D01*
G01X2067D02*
Y274D01*
G01Y211D02*
X2004D01*
X2049Y240D01*
Y201D01*
G01X1961Y700D02*
Y600D01*
G01X2362Y-1245D02*
X2412D01*
Y-1229D01*
X2410Y-1224D01*
X2406Y-1221D01*
X2400Y-1219D01*
X2393Y-1221D01*
X2389Y-1225D01*
X2386Y-1229D01*
Y-1245D01*
G01Y-1229D02*
X2362Y-1219D01*
G01X2370Y-1195D02*
X2366Y-1191D01*
X2363Y-1187D01*
X2362Y-1181D01*
X2364Y-1175D01*
X2367Y-1171D01*
X2373Y-1168D01*
X2380Y-1167D01*
X2386Y-1168D01*
X2391Y-1172D01*
X2394Y-1176D01*
X2395Y-1180D01*
X2394Y-1185D01*
X2391Y-1191D01*
X2412Y-1189D01*
Y-1172D01*
G01X2362Y-1130D02*
X2363Y-1126D01*
X2366Y-1121D01*
X2370Y-1117D01*
X2376Y-1116D01*
X2381Y-1117D01*
X2386Y-1121D01*
X2389Y-1127D01*
Y-1133D01*
X2391Y-1137D01*
X2395Y-1140D01*
X2401Y-1142D01*
X2406Y-1140D01*
X2411Y-1135D01*
X2412Y-1130D01*
X2411Y-1125D01*
X2406Y-1121D01*
X2401Y-1119D01*
X2395Y-1120D01*
X2391Y-1123D01*
X2389Y-1127D01*
Y-1133D01*
X2386Y-1139D01*
X2381Y-1143D01*
X2376Y-1144D01*
X2370Y-1143D01*
X2366Y-1140D01*
X2363Y-1135D01*
X2362Y-1130D01*
G01X2421Y-684D02*
X2371D01*
Y-700D01*
X2374Y-705D01*
X2377Y-708D01*
X2384Y-710D01*
X2390Y-708D01*
X2395Y-705D01*
X2397Y-700D01*
Y-684D01*
G01Y-700D02*
X2421Y-710D01*
G01X2414Y-734D02*
X2418Y-738D01*
X2420Y-742D01*
X2421Y-748D01*
X2420Y-754D01*
X2416Y-758D01*
X2410Y-761D01*
X2404Y-762D01*
X2397Y-761D01*
X2393Y-758D01*
X2390Y-753D01*
X2389Y-749D01*
X2390Y-744D01*
X2393Y-739D01*
X2371Y-740D01*
Y-758D01*
G01X2415Y-788D02*
X2420Y-793D01*
X2421Y-798D01*
X2420Y-803D01*
X2415Y-807D01*
X2407Y-810D01*
X2400Y-812D01*
X2390D01*
X2383Y-810D01*
X2376Y-807D01*
X2373Y-803D01*
X2371Y-799D01*
X2373Y-794D01*
X2376Y-790D01*
X2381Y-788D01*
X2388Y-786D01*
X2394Y-788D01*
X2400Y-791D01*
X2403Y-795D01*
X2404Y-799D01*
X2402Y-804D01*
X2398Y-808D01*
X2390Y-812D01*
G01X2323Y600D02*
X2283D01*
Y640D01*
G01X2520Y600D02*
X2402D01*
G01X2323Y758D02*
X2283D01*
Y719D01*
G01X2469Y554D02*
X2474Y559D01*
X2480Y561D01*
X2485D01*
X2490Y559D01*
X2494Y554D01*
X2496Y549D01*
X2495Y543D01*
X2491Y538D01*
X2486Y534D01*
X2478Y533D01*
X2474Y529D01*
X2472Y524D01*
X2473Y518D01*
X2476Y514D01*
X2481Y511D01*
X2485D01*
X2490Y513D01*
X2493Y517D01*
G01X2520Y561D02*
Y511D01*
G01X2544D02*
X2520Y542D01*
G01X2547Y561D02*
X2530Y528D01*
G01X2585Y561D02*
Y511D01*
X2577Y521D01*
G01Y561D02*
X2592D01*
G01X2636D02*
Y511D01*
X2628Y521D01*
G01Y561D02*
X2643D01*
G01X2520Y758D02*
X2402D01*
G01X2697Y-1205D02*
X2747D01*
Y-1190D01*
X2744Y-1185D01*
X2741Y-1181D01*
X2734Y-1180D01*
X2728Y-1181D01*
X2724Y-1185D01*
X2721Y-1190D01*
Y-1205D01*
G01Y-1190D02*
X2697Y-1180D01*
G01X2718Y-1154D02*
X2724Y-1149D01*
X2727Y-1146D01*
X2729Y-1140D01*
X2727Y-1136D01*
X2724Y-1133D01*
X2719Y-1130D01*
X2713Y-1130D01*
X2708Y-1130D01*
X2703Y-1133D01*
X2699Y-1137D01*
X2697Y-1141D01*
X2699Y-1146D01*
X2704Y-1151D01*
X2711Y-1153D01*
X2719Y-1154D01*
X2730Y-1152D01*
X2736Y-1151D01*
X2742Y-1147D01*
X2746Y-1143D01*
X2747Y-1139D01*
X2745Y-1134D01*
X2741Y-1131D01*
G01X2739Y-1103D02*
X2744Y-1099D01*
X2746Y-1095D01*
X2747Y-1089D01*
X2745Y-1083D01*
X2741Y-1079D01*
X2736Y-1077D01*
X2731Y-1078D01*
X2727Y-1081D01*
X2719Y-1093D01*
X2713Y-1099D01*
X2704Y-1103D01*
X2697Y-1104D01*
Y-1077D01*
G01X2756Y-645D02*
X2706D01*
Y-661D01*
X2708Y-666D01*
X2712Y-669D01*
X2718Y-670D01*
X2725Y-669D01*
X2729Y-665D01*
X2732Y-661D01*
Y-645D01*
G01Y-661D02*
X2756Y-670D01*
G01X2735Y-697D02*
X2729Y-701D01*
X2726Y-705D01*
X2724Y-710D01*
X2726Y-714D01*
X2729Y-718D01*
X2734Y-720D01*
X2740Y-721D01*
X2745Y-720D01*
X2750Y-718D01*
X2754Y-714D01*
X2756Y-709D01*
X2754Y-704D01*
X2749Y-700D01*
X2742Y-697D01*
X2733Y-697D01*
X2723Y-698D01*
X2717Y-700D01*
X2711Y-703D01*
X2707Y-707D01*
X2706Y-712D01*
X2708Y-716D01*
X2712Y-719D01*
G01X2746Y-746D02*
X2752Y-750D01*
X2755Y-755D01*
X2756Y-760D01*
X2755Y-765D01*
X2751Y-770D01*
X2746Y-774D01*
X2741Y-774D01*
X2735Y-773D01*
X2731Y-769D01*
X2729Y-764D01*
Y-758D01*
G01Y-764D02*
X2727Y-768D01*
X2723Y-771D01*
X2718Y-772D01*
X2713Y-771D01*
X2708Y-768D01*
X2706Y-762D01*
X2707Y-756D01*
X2710Y-751D01*
G01X2717Y600D02*
X2598D01*
G01X2835Y640D02*
Y600D01*
X2795D01*
G01X2717Y758D02*
X2598D01*
G01X2835Y719D02*
Y758D01*
X2795D01*
G01X3142Y-31D02*
X3136Y-36D01*
X3129Y-39D01*
X3123D01*
X3117Y-36D01*
X3112Y-31D01*
X3110Y-24D01*
X3111Y-16D01*
X3115Y-10D01*
X3122Y-6D01*
X3131Y-4D01*
X3137Y1D01*
X3139Y8D01*
X3138Y15D01*
X3134Y20D01*
X3128Y24D01*
X3123D01*
X3117Y22D01*
X3113Y16D01*
G01X3080Y-39D02*
Y24D01*
G01X3050D02*
X3080Y-15D01*
G01X3046Y-39D02*
X3067Y3D01*
G01X3000Y-39D02*
Y24D01*
X3009Y11D01*
G01Y-39D02*
X2991D01*
G01X2952Y-13D02*
X2946Y-6D01*
X2942Y-2D01*
X2935Y1D01*
X2930Y-2D01*
X2926Y-6D01*
X2923Y-12D01*
X2922Y-19D01*
X2923Y-26D01*
X2926Y-32D01*
X2931Y-37D01*
X2936Y-39D01*
X2942Y-37D01*
X2948Y-31D01*
X2951Y-22D01*
X2952Y-11D01*
X2950Y3D01*
X2948Y10D01*
X2944Y17D01*
X2939Y23D01*
X2933Y24D01*
X2928Y22D01*
X2924Y16D01*
G01X3396Y-485D02*
X3296D01*
G01X3457Y-602D02*
X3451Y-607D01*
X3444Y-610D01*
X3438D01*
X3432Y-607D01*
X3427Y-602D01*
X3424Y-594D01*
X3426Y-587D01*
X3430Y-581D01*
X3437Y-577D01*
X3446Y-575D01*
X3452Y-570D01*
X3454Y-563D01*
X3453Y-556D01*
X3449Y-550D01*
X3443Y-547D01*
X3438D01*
X3432Y-549D01*
X3428Y-555D01*
G01X3395Y-610D02*
Y-547D01*
G01X3365D02*
X3395Y-586D01*
G01X3361Y-610D02*
X3382Y-568D01*
G01X3315Y-610D02*
Y-547D01*
X3324Y-560D01*
G01Y-610D02*
X3306D01*
G01X3269Y-601D02*
X3265Y-606D01*
X3259Y-609D01*
X3252Y-610D01*
X3245Y-608D01*
X3239Y-604D01*
X3236Y-597D01*
X3235Y-588D01*
X3236Y-580D01*
X3240Y-575D01*
X3246Y-570D01*
X3251Y-569D01*
X3257Y-570D01*
X3264Y-575D01*
X3261Y-547D01*
X3240D01*
G01X3396Y-150D02*
X3296D01*
G01X3196Y-385D02*
Y-285D01*
G01X3296Y-185D02*
X3396D01*
G01X3196Y-50D02*
Y50D01*
G01X3296Y150D02*
X3396D01*
G01X3516Y343D02*
X3510Y338D01*
X3503Y335D01*
X3497D01*
X3491Y338D01*
X3486Y343D01*
X3484Y350D01*
X3485Y358D01*
X3489Y364D01*
X3496Y368D01*
X3505Y370D01*
X3511Y375D01*
X3513Y382D01*
X3512Y389D01*
X3508Y394D01*
X3502Y398D01*
X3497D01*
X3491Y396D01*
X3487Y390D01*
G01X3454Y335D02*
Y398D01*
G01X3424D02*
X3454Y359D01*
G01X3420Y335D02*
X3441Y377D01*
G01X3374Y335D02*
Y398D01*
X3383Y385D01*
G01Y335D02*
X3365D01*
G01X3324Y342D02*
X3319Y337D01*
X3313Y335D01*
X3306Y337D01*
X3301Y343D01*
X3297Y352D01*
X3295Y362D01*
Y373D01*
X3297Y383D01*
X3301Y391D01*
X3306Y396D01*
X3311Y398D01*
X3317Y396D01*
X3322Y391D01*
X3325Y385D01*
X3327Y377D01*
X3325Y369D01*
X3321Y362D01*
X3317Y358D01*
X3311Y357D01*
X3305Y359D01*
X3300Y364D01*
X3295Y373D01*
G01X3770Y-485D02*
X3670D01*
G01X3831Y-602D02*
X3825Y-607D01*
X3818Y-610D01*
X3812D01*
X3806Y-607D01*
X3801Y-602D01*
X3799Y-594D01*
X3800Y-587D01*
X3804Y-581D01*
X3811Y-577D01*
X3820Y-575D01*
X3826Y-570D01*
X3828Y-563D01*
X3827Y-556D01*
X3823Y-550D01*
X3817Y-547D01*
X3812D01*
X3806Y-549D01*
X3802Y-555D01*
G01X3769Y-610D02*
Y-547D01*
G01X3739D02*
X3769Y-586D01*
G01X3735Y-610D02*
X3756Y-568D01*
G01X3689Y-610D02*
Y-547D01*
X3698Y-560D01*
G01Y-610D02*
X3680D01*
G01X3626D02*
X3621Y-609D01*
X3614Y-606D01*
X3610Y-601D01*
X3609Y-593D01*
X3610Y-586D01*
X3615Y-580D01*
X3622Y-577D01*
X3630D01*
X3635Y-575D01*
X3639Y-569D01*
X3640Y-562D01*
X3638Y-555D01*
X3632Y-549D01*
X3626Y-547D01*
X3620Y-549D01*
X3614Y-555D01*
X3612Y-562D01*
X3613Y-569D01*
X3617Y-575D01*
X3622Y-577D01*
X3630D01*
X3637Y-580D01*
X3642Y-586D01*
X3643Y-593D01*
X3642Y-601D01*
X3638Y-606D01*
X3631Y-609D01*
X3626Y-610D01*
G01X3770Y-150D02*
X3670D01*
G01X3496Y-285D02*
Y-385D01*
G01X3570D02*
Y-285D01*
G01X3670Y-185D02*
X3770D01*
G01X3496Y50D02*
Y-50D01*
G01X3570D02*
Y50D01*
G01X3670Y150D02*
X3770D01*
G01X3570Y324D02*
Y424D01*
G01X3770Y224D02*
X3670D01*
G01Y524D02*
X3770D01*
G01X3570Y678D02*
Y778D01*
G01X3770Y578D02*
X3670D01*
G01Y878D02*
X3770D01*
G01X3968Y32D02*
X3973Y26D01*
X3976Y19D01*
Y13D01*
X3973Y6D01*
X3968Y2D01*
X3961Y-1D01*
X3953Y1D01*
X3947Y5D01*
X3943Y12D01*
X3941Y21D01*
X3936Y27D01*
X3929Y29D01*
X3922Y28D01*
X3917Y24D01*
X3913Y18D01*
Y13D01*
X3915Y7D01*
X3921Y2D01*
G01X3976Y-30D02*
X3913D01*
G01Y-60D02*
X3952Y-30D01*
G01X3976Y-64D02*
X3934Y-43D01*
G01X3976Y-110D02*
X3913D01*
X3926Y-101D01*
G01X3976D02*
Y-120D01*
G01Y-172D02*
X3963Y-173D01*
X3951Y-176D01*
X3941Y-179D01*
X3929Y-183D01*
X3913Y-189D01*
Y-158D01*
G01X3870Y-285D02*
Y-385D01*
G01Y50D02*
Y-50D01*
G01X4055Y44D02*
X4005D01*
Y28D01*
X4008Y23D01*
X4011Y20D01*
X4018Y19D01*
X4024Y20D01*
X4028Y24D01*
X4031Y28D01*
Y44D01*
G01Y28D02*
X4055Y19D01*
G01X4045Y-6D02*
X4051Y-10D01*
X4054Y-15D01*
X4055Y-20D01*
X4054Y-25D01*
X4050Y-30D01*
X4045Y-34D01*
X4040Y-34D01*
X4034Y-33D01*
X4030Y-29D01*
X4028Y-24D01*
Y-18D01*
G01Y-24D02*
X4026Y-28D01*
X4022Y-31D01*
X4017Y-32D01*
X4012Y-31D01*
X4008Y-28D01*
X4005Y-22D01*
X4006Y-17D01*
X4009Y-11D01*
G01X4045Y-57D02*
X4051Y-61D01*
X4054Y-66D01*
X4055Y-71D01*
X4054Y-76D01*
X4050Y-81D01*
X4045Y-85D01*
X4040Y-85D01*
X4034Y-84D01*
X4030Y-80D01*
X4028Y-75D01*
Y-69D01*
G01Y-75D02*
X4026Y-79D01*
X4022Y-82D01*
X4017Y-83D01*
X4012Y-82D01*
X4008Y-79D01*
X4005Y-73D01*
X4006Y-68D01*
X4009Y-62D01*
G01X3870Y424D02*
Y324D01*
G01X3902Y177D02*
Y227D01*
X3886D01*
X3881Y225D01*
X3878Y221D01*
X3877Y215D01*
X3878Y208D01*
X3882Y204D01*
X3886Y201D01*
X3902D01*
G01X3886D02*
X3877Y177D01*
G01X3853Y187D02*
X3849Y181D01*
X3844Y178D01*
X3838Y177D01*
X3833Y178D01*
X3828Y182D01*
X3825Y187D01*
X3824Y192D01*
X3825Y198D01*
X3830Y202D01*
X3834Y204D01*
X3840D01*
G01X3834D02*
X3830Y206D01*
X3827Y210D01*
X3826Y216D01*
X3827Y221D01*
X3830Y225D01*
X3836Y227D01*
X3842Y226D01*
X3847Y223D01*
G01X3800Y219D02*
X3796Y224D01*
X3791Y226D01*
X3786Y227D01*
X3780Y226D01*
X3776Y221D01*
X3774Y216D01*
X3775Y211D01*
X3777Y207D01*
X3790Y199D01*
X3796Y193D01*
X3800Y185D01*
X3801Y177D01*
X3774D01*
G01X3870Y778D02*
Y678D01*
G01X3968Y839D02*
X3973Y833D01*
X3976Y826D01*
Y820D01*
X3973Y813D01*
X3968Y809D01*
X3961Y806D01*
X3953Y808D01*
X3947Y812D01*
X3943Y819D01*
X3941Y828D01*
X3936Y834D01*
X3929Y836D01*
X3922Y835D01*
X3917Y831D01*
X3913Y825D01*
Y820D01*
X3915Y814D01*
X3921Y810D01*
G01X3976Y777D02*
X3913D01*
G01Y747D02*
X3952Y777D01*
G01X3976Y743D02*
X3934Y764D01*
G01X3924Y712D02*
X3918Y707D01*
X3914Y702D01*
X3913Y695D01*
X3915Y687D01*
X3921Y682D01*
X3927Y680D01*
X3933Y681D01*
X3939Y684D01*
X3949Y700D01*
X3956Y707D01*
X3967Y712D01*
X3976Y713D01*
Y680D01*
G01X3913Y634D02*
X3915Y640D01*
X3921Y645D01*
X3927Y648D01*
X3935Y650D01*
X3945Y651D01*
X3954Y650D01*
X3963Y648D01*
X3969Y645D01*
X3974Y640D01*
X3976Y634D01*
X3974Y628D01*
X3969Y623D01*
X3963Y620D01*
X3954Y617D01*
X3945Y617D01*
X3935Y617D01*
X3927Y620D01*
X3921Y623D01*
X3915Y628D01*
X3913Y634D01*
G01X4073Y815D02*
Y-1705D01*
X4493D01*
Y815D01*
X4073D01*
G01X4182Y-1738D02*
X4188Y-1733D01*
X4195Y-1730D01*
X4202D01*
X4208Y-1733D01*
X4213Y-1738D01*
X4215Y-1745D01*
X4213Y-1753D01*
X4209Y-1759D01*
X4202Y-1763D01*
X4193Y-1765D01*
X4187Y-1770D01*
X4185Y-1777D01*
X4187Y-1784D01*
X4191Y-1790D01*
X4196Y-1793D01*
X4202D01*
X4207Y-1791D01*
X4212Y-1785D01*
G01X4244Y-1730D02*
Y-1793D01*
G01X4274D02*
X4244Y-1754D01*
G01X4279Y-1730D02*
X4257Y-1772D01*
G01X4310Y-1782D02*
X4314Y-1788D01*
X4320Y-1792D01*
X4326Y-1793D01*
X4334Y-1791D01*
X4339Y-1785D01*
X4341Y-1779D01*
X4340Y-1773D01*
X4337Y-1767D01*
X4321Y-1757D01*
X4314Y-1750D01*
X4310Y-1739D01*
X4308Y-1730D01*
X4341D01*
G01X4387D02*
Y-1793D01*
X4378Y-1780D01*
G01Y-1730D02*
X4397D01*
M02*
