G04 ================== begin FILE IDENTIFICATION RECORD ==================*
G04 Layout Name:  E:\UOB-HEP-PC005A\worklib\qpll\physical\pc005-unplaced-f.brd*
G04 Film Name:    BOTTOM*
G04 File Format:  Gerber RS274X*
G04 File Origin:  -unreleased*
G04 Origin Date:  Wed Jun 11 08:47:37 2003*
G04 ================== end FILE IDENTIFICATION RECORD ====================*
%FSLAX53Y53*MOIN*%
%IR0*IPPOS*OFA0.00000B0.00000*MIA0B0*SFA1.00000B1.00000*%
%ADD18R,.05X.028*%
%ADD17R,.028X.05*%
%ADD11C,.036*%
%ADD10C,.06*%
%ADD23R,.068X.04*%
%ADD25C,.088*%
%ADD24R,.04X.068*%
%ADD13C,.076*%
%ADD26C,.068*%
%ADD20R,.06X.06*%
%ADD21C,.055*%
%ADD19C,.19*%
%ADD16C,.064*%
%ADD14C,.096*%
%ADD12R,.076X.076*%
%ADD22R,.055X.055*%
%ADD15R,.064X.064*%
%ADD27C,.005906*%
%ADD28C,.010236*%
%ADD29C,.031496*%
G75*
%LPD*%
G75*
G54D10*
X-5000Y-1378D03*
X-5100Y-1578D03*
Y-1278D03*
X-4900Y-1378D03*
X-4800Y-1578D03*
Y-1278D03*
X-4391Y-1578D03*
Y-1278D03*
X-4291Y-1378D03*
X-4191D03*
X-4091Y-1578D03*
Y-1278D03*
X-3780Y-1378D03*
X-3880Y-1578D03*
Y-1278D03*
X-3680Y-1378D03*
X-3580Y-1578D03*
Y-1278D03*
X-3268Y-1378D03*
X-3168D03*
X-3368Y-1578D03*
Y-1278D03*
X-3068Y-1578D03*
Y-1278D03*
X-2233Y-1237D03*
Y-1137D03*
Y-1037D03*
Y-937D03*
Y-837D03*
Y-737D03*
Y-637D03*
Y-537D03*
Y-437D03*
Y-337D03*
Y-237D03*
Y-137D03*
Y-37D03*
Y63D03*
Y163D03*
Y263D03*
Y363D03*
X-2083Y-1237D03*
Y-1137D03*
Y-1037D03*
X-2008Y-1187D03*
Y-1087D03*
X-2158Y-1187D03*
Y-1087D03*
X-2083Y-937D03*
Y-837D03*
Y-737D03*
X-2008Y-987D03*
Y-887D03*
Y-787D03*
X-2158Y-987D03*
Y-887D03*
Y-787D03*
X-2083Y-637D03*
Y-537D03*
Y-437D03*
X-2008Y-687D03*
Y-587D03*
Y-487D03*
X-2158Y-687D03*
Y-587D03*
Y-487D03*
X-2083Y-337D03*
Y-237D03*
Y-137D03*
X-2008Y-387D03*
Y-287D03*
Y-187D03*
X-2158Y-387D03*
Y-287D03*
Y-187D03*
X-2083Y-37D03*
Y63D03*
Y163D03*
X-2008Y-87D03*
Y13D03*
Y113D03*
X-2158Y-87D03*
Y13D03*
Y113D03*
X-2083Y263D03*
Y363D03*
X-2008Y213D03*
Y313D03*
X-2158Y213D03*
Y313D03*
Y413D03*
X-774Y-391D03*
Y-291D03*
Y-191D03*
Y-91D03*
Y9D03*
Y109D03*
Y209D03*
Y309D03*
Y409D03*
Y509D03*
Y609D03*
Y709D03*
X-374Y-191D03*
Y-291D03*
Y-391D03*
Y109D03*
Y9D03*
Y-91D03*
Y409D03*
Y309D03*
Y209D03*
Y609D03*
Y509D03*
X561Y-1016D03*
Y-1116D03*
Y-1216D03*
X486Y-1066D03*
Y-1166D03*
Y-1266D03*
X711Y-1016D03*
Y-1116D03*
Y-1216D03*
X636Y-1066D03*
Y-1166D03*
Y-1266D03*
X561Y-716D03*
Y-816D03*
Y-916D03*
X486Y-766D03*
Y-866D03*
Y-966D03*
X711Y-716D03*
Y-816D03*
Y-916D03*
X636Y-766D03*
Y-866D03*
Y-966D03*
X561Y-416D03*
Y-516D03*
Y-616D03*
X486Y-466D03*
Y-566D03*
Y-666D03*
X711Y-416D03*
Y-516D03*
Y-616D03*
X636Y-466D03*
Y-566D03*
Y-666D03*
X561Y-116D03*
Y-216D03*
Y-316D03*
X486Y-166D03*
Y-266D03*
Y-366D03*
X711Y-116D03*
Y-216D03*
Y-316D03*
X636Y-166D03*
Y-266D03*
Y-366D03*
X561Y184D03*
Y84D03*
Y-16D03*
X486Y134D03*
Y34D03*
Y-66D03*
X711Y184D03*
Y84D03*
Y-16D03*
X636Y134D03*
Y34D03*
Y-66D03*
X561Y284D03*
X486Y334D03*
Y234D03*
X711Y384D03*
Y284D03*
X636Y334D03*
Y234D03*
X1260Y-1170D03*
Y-1070D03*
X1335Y-1220D03*
Y-1120D03*
Y-1020D03*
X1110Y-1270D03*
Y-1170D03*
Y-1070D03*
X1185Y-1220D03*
Y-1120D03*
Y-1020D03*
X1260Y-970D03*
Y-870D03*
Y-770D03*
X1335Y-920D03*
Y-820D03*
Y-720D03*
X1110Y-970D03*
Y-870D03*
Y-770D03*
X1185Y-920D03*
Y-820D03*
Y-720D03*
X1260Y-670D03*
Y-570D03*
Y-470D03*
X1335Y-620D03*
Y-520D03*
Y-420D03*
X1110Y-670D03*
Y-570D03*
Y-470D03*
X1185Y-620D03*
Y-520D03*
Y-420D03*
X1260Y-370D03*
Y-270D03*
Y-170D03*
X1335Y-320D03*
Y-220D03*
Y-120D03*
X1110Y-370D03*
Y-270D03*
Y-170D03*
X1185Y-320D03*
Y-220D03*
Y-120D03*
X1260Y-70D03*
Y30D03*
Y130D03*
X1335Y-20D03*
Y80D03*
Y180D03*
X1110Y-70D03*
Y30D03*
Y130D03*
X1185Y-20D03*
Y80D03*
Y180D03*
X1260Y230D03*
Y330D03*
X1335Y280D03*
Y380D03*
X1110Y230D03*
Y330D03*
X1185Y280D03*
Y380D03*
X4193Y-1170D03*
Y-1070D03*
X4118Y-1220D03*
Y-1120D03*
Y-1020D03*
X4343Y-1270D03*
Y-1170D03*
Y-1070D03*
X4268Y-1220D03*
Y-1120D03*
Y-1020D03*
X4193Y-970D03*
Y-870D03*
Y-770D03*
X4118Y-920D03*
Y-820D03*
Y-720D03*
X4343Y-970D03*
Y-870D03*
Y-770D03*
X4268Y-920D03*
Y-820D03*
Y-720D03*
X4193Y-670D03*
Y-570D03*
Y-470D03*
X4118Y-620D03*
Y-520D03*
Y-420D03*
X4343Y-670D03*
Y-570D03*
Y-470D03*
X4268Y-620D03*
Y-520D03*
Y-420D03*
X4193Y-370D03*
Y-270D03*
Y-170D03*
X4118Y-320D03*
Y-220D03*
Y-120D03*
X4343Y-370D03*
Y-270D03*
Y-170D03*
X4268Y-320D03*
Y-220D03*
Y-120D03*
X4193Y-70D03*
Y30D03*
Y130D03*
X4118Y-20D03*
Y80D03*
Y180D03*
X4343Y-70D03*
Y30D03*
Y130D03*
X4268Y-20D03*
Y80D03*
Y180D03*
X4193Y230D03*
Y330D03*
X4118Y280D03*
Y380D03*
X4343Y230D03*
Y330D03*
X4268Y280D03*
Y380D03*
G54D20*
X-2008Y413D03*
X-374Y709D03*
X561Y384D03*
X1260Y-1270D03*
X4193D03*
G54D11*
X-5197Y-541D03*
Y-610D03*
X-5020Y-305D03*
X-4695Y-876D03*
Y-778D03*
X-4705Y-984D03*
X-4823Y-797D03*
X-4695Y-679D03*
X-4872Y-492D03*
X-4941Y-305D03*
X-4724Y69D03*
X-4675Y226D03*
X-4774Y610D03*
X-4498Y-512D03*
X-4626Y-463D03*
X-4547D03*
X-4626Y-187D03*
X-4547D03*
X-4409Y167D03*
Y69D03*
X-4518Y276D03*
X-4360Y325D03*
X-4449Y807D03*
X-4193Y-827D03*
X-4271Y-466D03*
X-4085Y-512D03*
X-4094Y-423D03*
X-4321Y-482D03*
X-4173Y-516D03*
X-4094Y-344D03*
X-4154Y-246D03*
X-4321Y98D03*
X-4163Y512D03*
X-4016Y-325D03*
X-4035Y-246D03*
X-4026Y-404D03*
X-3809Y-207D03*
X-3799Y-20D03*
X-3927Y226D03*
X-3671Y-512D03*
X-3740Y-482D03*
X-3504Y-413D03*
X-3494Y-226D03*
Y-315D03*
X-3553Y-128D03*
X-3386Y-1093D03*
X-3337Y-482D03*
X-3179Y-315D03*
X-3337Y-148D03*
Y-315D03*
X-2874Y-1348D03*
X-3041Y-1093D03*
X-2894Y-315D03*
X-2598Y-1348D03*
X-1591Y36D03*
X-1624Y-108D03*
Y108D03*
X-1510Y-114D03*
Y102D03*
X-1601Y469D03*
X-1591Y252D03*
X-1624Y325D03*
X-1510Y319D03*
X-787Y-1496D03*
Y-1102D03*
X-650D03*
X-679Y-748D03*
Y-946D03*
X-689Y79D03*
X-610Y246D03*
X108Y-394D03*
X20Y-305D03*
X128Y-157D03*
X30Y-89D03*
X-39Y472D03*
Y266D03*
X30Y384D03*
X118Y630D03*
X0Y571D03*
X409Y-1378D03*
X295Y-1329D03*
Y-423D03*
X325Y-344D03*
X197Y-276D03*
X399Y-379D03*
X246Y709D03*
X409Y733D03*
X305Y679D03*
X1319Y581D03*
X1535Y-1432D03*
X1614Y-1516D03*
X1535Y-1260D03*
X1604Y148D03*
X1594Y236D03*
X1801Y-1516D03*
X1727Y-1132D03*
X1722Y-1314D03*
X1919Y-1132D03*
X1909Y-1304D03*
X1777Y-763D03*
X1973Y-1156D03*
X1978Y-969D03*
X2151D03*
X1973Y-763D03*
X2352Y-1516D03*
X2539D03*
X2333Y-1078D03*
X2283Y-1117D03*
X2451Y-910D03*
X2544Y-778D03*
X2603Y-1024D03*
X2785Y-1019D03*
Y-822D03*
X3455Y531D03*
X3337Y837D03*
G54D12*
X-5030Y128D03*
X-472Y-1407D03*
X2756Y679D03*
G54D21*
X-1658Y-1395D03*
Y-1195D03*
Y-595D03*
X-1058Y-1395D03*
Y-1195D03*
Y-595D03*
Y-495D03*
X2269Y-598D03*
Y-398D03*
Y202D03*
X2869Y-598D03*
Y-398D03*
Y202D03*
Y302D03*
G54D22*
X-1658Y-495D03*
X2269Y302D03*
G54D13*
X-5030Y325D03*
Y522D03*
X-276Y-1407D03*
X-79D03*
X2559Y679D03*
X2362D03*
G54D14*
X-5079Y748D03*
X-4606Y-1142D03*
X-2874Y-1122D03*
X-2677Y748D03*
G54D23*
X1250Y462D03*
Y542D03*
G54D15*
X-4409Y-1093D03*
X-4528Y-69D03*
G54D24*
X1438Y482D03*
X1358D03*
X4026Y118D03*
X3946D03*
X4026Y217D03*
X3946D03*
G54D16*
X-4409Y-993D03*
Y-893D03*
Y-793D03*
Y-693D03*
Y-593D03*
Y-493D03*
Y-393D03*
X-4428Y-69D03*
X-2836Y-1675D03*
Y-1475D03*
X-2636Y-1675D03*
X-2736Y-1575D03*
X-2636Y-1475D03*
G54D25*
X1911Y-120D03*
X1711D03*
Y80D03*
X1911D03*
Y215D03*
X1711D03*
Y415D03*
X1911D03*
Y550D03*
X1711D03*
Y750D03*
X1911D03*
X3446Y-435D03*
X3246D03*
X3446Y-100D03*
X3246D03*
Y-235D03*
X3446D03*
X3246Y100D03*
X3446D03*
X3620Y-435D03*
Y-100D03*
Y-235D03*
Y100D03*
Y274D03*
Y474D03*
Y628D03*
Y828D03*
X3820Y-435D03*
Y-100D03*
Y-235D03*
Y100D03*
Y274D03*
Y474D03*
Y628D03*
Y828D03*
G54D26*
X1811Y-20D03*
Y315D03*
Y650D03*
X3346Y-335D03*
Y0D03*
X3720Y-335D03*
Y0D03*
Y374D03*
Y728D03*
G54D17*
X-4189Y-423D03*
X-4119D03*
X-4189Y-344D03*
X-4119D03*
X-3805Y-394D03*
X-3735D03*
X-3380Y-315D03*
X-3450D03*
X-163Y305D03*
X55Y-394D03*
X-15D03*
X-24Y-285D03*
X-94D03*
X-93Y305D03*
X-24Y413D03*
X-94D03*
G54D27*
G01X-4498Y-512D02*
Y-804D01*
X-4409Y-893D01*
G01Y-693D02*
X-4406Y-689D01*
X-4006D01*
X-3967Y-650D01*
Y-374D01*
X-4016Y-325D01*
G01X-4409Y-593D02*
X-4402Y-600D01*
X-4104D01*
X-4085Y-581D01*
Y-512D01*
G01X-4428Y-69D02*
Y-128D01*
X-4400Y-156D01*
Y-305D01*
X-4272Y-433D01*
Y-466D01*
X-4271Y-466D01*
G01X-4173Y-516D02*
Y-463D01*
X-4189Y-447D01*
Y-423D01*
G01X-4119Y-344D02*
X-4094D01*
G01X-4119Y-423D02*
X-4094D01*
G01X-4189Y-344D02*
Y-327D01*
X-4177Y-315D01*
X-4163D01*
X-4154Y-305D01*
Y-246D01*
G01X-3671Y-350D02*
X-3677Y-344D01*
X-3770D01*
X-3805Y-379D01*
Y-394D01*
G01X-3671Y-468D02*
Y-512D01*
G01X-3735Y-394D02*
Y-477D01*
X-3740Y-482D01*
G01X-3504Y-413D02*
X-3656D01*
X-3671Y-398D01*
G01Y-350D02*
Y-398D01*
G01X-3494Y-226D02*
X-3514Y-246D01*
X-3637D01*
X-3671Y-280D01*
G01X-3450Y-315D02*
X-3494D01*
G01X-3380D02*
X-3337D01*
G01X-1624Y-4D02*
Y10D01*
X-1598Y36D01*
X-1591D01*
G01X-1624Y-74D02*
Y-108D01*
G01Y142D02*
Y108D01*
G01Y429D02*
Y453D01*
X-1608Y469D01*
X-1601D01*
G01X-1624Y212D02*
Y226D01*
X-1598Y252D01*
X-1591D01*
G01X-1624Y359D02*
Y325D01*
G01X-96Y-291D02*
X-374D01*
G01X-17Y-391D02*
X-374D01*
G01Y309D02*
X-370Y305D01*
X-163D01*
G01X-374Y409D02*
X-369Y413D01*
X-94D01*
G01Y-285D02*
Y-289D01*
X-96Y-291D01*
G01X711Y84D02*
X625D01*
X581Y128D01*
X535D01*
X502Y95D01*
X302D01*
X-85Y-291D01*
X-96D01*
G01X-15Y-394D02*
Y-393D01*
X-17Y-391D01*
G01X561Y84D02*
X517D01*
X512Y79D01*
X453D01*
X-17Y-391D01*
G01X55Y-394D02*
X108D01*
G01X-24Y-285D02*
X0D01*
X20Y-305D01*
G01X-163Y305D02*
Y271D01*
X-126Y234D01*
X486D01*
G01X-94Y413D02*
Y399D01*
X30Y276D01*
X512D01*
X554Y234D01*
X636D01*
G01X-93Y305D02*
X-79D01*
X-39Y266D01*
G01X-24Y413D02*
X0D01*
X30Y384D01*
G54D18*
X-3671Y-468D03*
Y-398D03*
Y-280D03*
Y-350D03*
X-1624Y142D03*
Y-74D03*
Y-4D03*
Y359D03*
Y429D03*
Y212D03*
X1663Y-1334D03*
Y-1264D03*
Y-1136D03*
Y-1206D03*
X2037Y-1196D03*
Y-1126D03*
Y-1068D03*
Y-998D03*
X2392Y-1078D03*
Y-880D03*
Y-950D03*
Y-1008D03*
X2726Y-821D03*
Y-891D03*
Y-1019D03*
Y-949D03*
G54D28*
G01X1335Y-1220D02*
X1599D01*
X1643Y-1264D01*
X1663D01*
G01X1185Y-1220D02*
X1268D01*
X1309Y-1179D01*
X1366D01*
X1378Y-1191D01*
X1644D01*
X1659Y-1206D01*
X1663D01*
G01X1335Y-1120D02*
X1352Y-1102D01*
X1988D01*
X2012Y-1126D01*
X2037D01*
G01X1185Y-1120D02*
X1194Y-1111D01*
X1277D01*
X1319Y-1068D01*
X2037D01*
G01X2392Y-1008D02*
X2314Y-930D01*
X1476D01*
X1387Y-1020D01*
X1335D01*
G01X1185D02*
X1268D01*
X1313Y-974D01*
X1388D01*
X1462Y-901D01*
X2342D01*
X2392Y-950D01*
G01X1335Y-920D02*
X1374D01*
X1452Y-842D01*
X2574D01*
X2682Y-949D01*
X2726D01*
G01X1185Y-920D02*
X1268D01*
X1316Y-871D01*
X1373D01*
X1422Y-822D01*
X2613D01*
X2683Y-891D01*
X2726D01*
G01X1260Y330D02*
X1250Y340D01*
Y462D01*
G01D02*
X1190D01*
X1110Y381D01*
Y330D01*
G01X1250Y462D02*
X1337D01*
X1358Y482D01*
G01X1250Y542D02*
X1280D01*
X1319Y581D01*
G01X1811Y650D02*
X1634D01*
X1467Y482D01*
X1438D01*
G01X1663Y-1264D02*
X4073D01*
X4118Y-1220D01*
G01X4268D02*
X4182D01*
X4141Y-1179D01*
X4101D01*
X4039Y-1240D01*
X1742D01*
X1713Y-1211D01*
X1668D01*
X1663Y-1206D01*
G01Y-1136D02*
X1723D01*
X1727Y-1132D01*
G01X1663Y-1334D02*
X1702D01*
X1722Y-1314D01*
G01X2037Y-1126D02*
X2071D01*
X2116Y-1171D01*
X4066D01*
X4118Y-1120D01*
G01X4268D02*
X4176D01*
X4135Y-1079D01*
X4089D01*
X4026Y-1142D01*
X2300D01*
X2295Y-1146D01*
X2271D01*
X2267Y-1142D01*
X2146D01*
X2072Y-1068D01*
X2037D01*
G01Y-1196D02*
X2013D01*
X1973Y-1156D01*
G01X2037Y-998D02*
X2007D01*
X1978Y-969D01*
G01X2392Y-1008D02*
X2406D01*
X2490Y-1093D01*
X4006D01*
X4079Y-1020D01*
X4118D01*
G01X2392Y-950D02*
X2396Y-955D01*
X2436D01*
X2544Y-1063D01*
X4007D01*
X4091Y-979D01*
X4100D01*
X4101Y-979D01*
X4135D01*
X4136Y-979D01*
X4139D01*
X4179Y-1020D01*
X4268D01*
G01X2392Y-1078D02*
X2333D01*
G01X2392Y-880D02*
X2421D01*
X2451Y-910D01*
G01X2726Y-949D02*
X4088D01*
X4118Y-920D01*
G01X2726Y-891D02*
X2761D01*
X2790Y-920D01*
X4055D01*
X4097Y-879D01*
X4135D01*
X4176Y-920D01*
X4268D01*
G01X2726Y-1019D02*
X2785D01*
G01X2726Y-821D02*
X2785D01*
X2785Y-822D01*
G01X3346Y-335D02*
Y-98D01*
X3543Y98D01*
Y138D01*
X3583Y177D01*
X3887D01*
X3946Y118D01*
G01X3346Y0D02*
Y98D01*
X3465Y217D01*
X3946D01*
G01X4343Y230D02*
X4260D01*
X4201Y171D01*
X4176D01*
X4126Y121D01*
X4029D01*
X4026Y118D01*
G01X4193Y230D02*
X4040D01*
X4026Y217D01*
G54D19*
X-2158Y-1552D03*
Y728D03*
X636Y-1581D03*
Y699D03*
X1185Y-1585D03*
Y695D03*
X4268Y-1585D03*
Y695D03*
G54D29*
G01X-4675Y226D02*
X-3927D01*
M02*
