G04 ================== begin FILE IDENTIFICATION RECORD ==================*
G04 Layout Name:  E:\UOB-HEP-PC005A\worklib\qpll\physical\pc005-unplaced-f.brd*
G04 Film Name:    drillfigure*
G04 File Format:  Gerber RS274X*
G04 File Origin:  -unreleased*
G04 Origin Date:  Wed Jun 11 08:47:37 2003*
G04 ================== end FILE IDENTIFICATION RECORD ====================*
%FSLAX53Y53*MOIN*%
%IR0*IPPOS*OFA0.00000B0.00000*MIA0B0*SFA1.00000B1.00000*%
%AMMACRO11*
1,1,0.0,.02,.02*
20,1,0.0,.02,.02,.02,-.02,0.0*
1,1,0.0,.02,-.02*
20,1,0.0,.02,-.02,-.02,-.02,0.0*
1,1,0.0,-.02,-.02*
20,1,0.0,-.02,-.02,-.02,.02,0.0*
1,1,0.0,-.02,.02*
20,1,0.0,-.02,.02,.02,.02,0.0*
1,1,0.0,.02,.02*
%
%ADD11MACRO11*%
%AMMACRO10*
1,1,0.0,.03,0.0*
20,1,0.0,.03,0.0,.029544,-.005209,0.0*
1,1,0.0,.029544,-.005209*
20,1,0.0,.029544,-.005209,.028191,-.010261,0.0*
1,1,0.0,.028191,-.010261*
20,1,0.0,.028191,-.010261,.025981,-.015,0.0*
1,1,0.0,.025981,-.015*
20,1,0.0,.025981,-.015,.022981,-.019284,0.0*
1,1,0.0,.022981,-.019284*
20,1,0.0,.022981,-.019284,.019284,-.022981,0.0*
1,1,0.0,.019284,-.022981*
20,1,0.0,.019284,-.022981,.015,-.025981,0.0*
1,1,0.0,.015,-.025981*
20,1,0.0,.015,-.025981,.010261,-.028191,0.0*
1,1,0.0,.010261,-.028191*
20,1,0.0,.010261,-.028191,.005209,-.029544,0.0*
1,1,0.0,.005209,-.029544*
20,1,0.0,.005209,-.029544,0.0,-.03,0.0*
1,1,0.0,0.0,-.03*
20,1,0.0,0.0,-.03,-.005209,-.029544,0.0*
1,1,0.0,-.005209,-.029544*
20,1,0.0,-.005209,-.029544,-.010261,-.028191,0.0*
1,1,0.0,-.010261,-.028191*
20,1,0.0,-.010261,-.028191,-.015,-.025981,0.0*
1,1,0.0,-.015,-.025981*
20,1,0.0,-.015,-.025981,-.019284,-.022981,0.0*
1,1,0.0,-.019284,-.022981*
20,1,0.0,-.019284,-.022981,-.022981,-.019284,0.0*
1,1,0.0,-.022981,-.019284*
20,1,0.0,-.022981,-.019284,-.025981,-.015,0.0*
1,1,0.0,-.025981,-.015*
20,1,0.0,-.025981,-.015,-.028191,-.010261,0.0*
1,1,0.0,-.028191,-.010261*
20,1,0.0,-.028191,-.010261,-.029544,-.005209,0.0*
1,1,0.0,-.029544,-.005209*
20,1,0.0,-.029544,-.005209,-.03,0.0,0.0*
1,1,0.0,-.03,0.0*
20,1,0.0,-.03,0.0,-.029544,.005209,0.0*
1,1,0.0,-.029544,.005209*
20,1,0.0,-.029544,.005209,-.028191,.010261,0.0*
1,1,0.0,-.028191,.010261*
20,1,0.0,-.028191,.010261,-.025981,.015,0.0*
1,1,0.0,-.025981,.015*
20,1,0.0,-.025981,.015,-.022981,.019284,0.0*
1,1,0.0,-.022981,.019284*
20,1,0.0,-.022981,.019284,-.019284,.022981,0.0*
1,1,0.0,-.019284,.022981*
20,1,0.0,-.019284,.022981,-.015,.025981,0.0*
1,1,0.0,-.015,.025981*
20,1,0.0,-.015,.025981,-.010261,.028191,0.0*
1,1,0.0,-.010261,.028191*
20,1,0.0,-.010261,.028191,-.005209,.029544,0.0*
1,1,0.0,-.005209,.029544*
20,1,0.0,-.005209,.029544,0.0,.03,0.0*
1,1,0.0,0.0,.03*
20,1,0.0,0.0,.03,.005209,.029544,0.0*
1,1,0.0,.005209,.029544*
20,1,0.0,.005209,.029544,.010261,.028191,0.0*
1,1,0.0,.010261,.028191*
20,1,0.0,.010261,.028191,.015,.025981,0.0*
1,1,0.0,.015,.025981*
20,1,0.0,.015,.025981,.019284,.022981,0.0*
1,1,0.0,.019284,.022981*
20,1,0.0,.019284,.022981,.022981,.019284,0.0*
1,1,0.0,.022981,.019284*
20,1,0.0,.022981,.019284,.025981,.015,0.0*
1,1,0.0,.025981,.015*
20,1,0.0,.025981,.015,.028191,.010261,0.0*
1,1,0.0,.028191,.010261*
20,1,0.0,.028191,.010261,.029544,.005209,0.0*
1,1,0.0,.029544,.005209*
20,1,0.0,.029544,.005209,.03,0.0,0.0*
1,1,0.0,.03,0.0*
%
%ADD10MACRO10*%
%AMMACRO19*
1,1,0.0,.0125,0.0*
20,1,0.0,.0125,0.0,-.0125,0.0,0.0*
1,1,0.0,-.0125,0.0*
1,1,0.0,0.0,.0125*
20,1,0.0,0.0,.0125,0.0,-.0125,0.0*
1,1,0.0,0.0,-.0125*
%
%ADD19MACRO19*%
%AMMACRO14*
1,1,0.0,-.015,-.02*
20,1,0.0,-.015,-.02,0.0,.02,0.0*
1,1,0.0,0.0,.02*
20,1,0.0,0.0,.02,.015,-.02,0.0*
1,1,0.0,.015,-.02*
1,1,0.0,.009598,-.006*
20,1,0.0,.009598,-.006,-.009602,-.006,0.0*
1,1,0.0,-.009602,-.006*
%
%ADD14MACRO14*%
%AMMACRO17*
1,1,0.0,.004799,.001335*
20,1,0.0,.004799,.001335,.007201,.003335,0.0*
1,1,0.0,.007201,.003335*
20,1,0.0,.007201,.003335,.009,.006665,0.0*
1,1,0.0,.009,.006665*
20,1,0.0,.009,.006665,.010201,.011335,0.0*
1,1,0.0,.010201,.011335*
20,1,0.0,.010201,.011335,.009,.015335,0.0*
1,1,0.0,.009,.015335*
20,1,0.0,.009,.015335,.006598,.018,0.0*
1,1,0.0,.006598,.018*
20,1,0.0,.006598,.018,.002402,.02,0.0*
1,1,0.0,.002402,.02*
20,1,0.0,.002402,.02,-.013799,.02,0.0*
1,1,0.0,-.013799,.02*
20,1,0.0,-.013799,.02,-.013799,-.02,0.0*
1,1,0.0,-.013799,-.02*
20,1,0.0,-.013799,-.02,.006,-.02,0.0*
1,1,0.0,.006,-.02*
20,1,0.0,.006,-.02,.010201,-.017335,0.0*
1,1,0.0,.010201,-.017335*
20,1,0.0,.010201,-.017335,.012598,-.013335,0.0*
1,1,0.0,.012598,-.013335*
20,1,0.0,.012598,-.013335,.013799,-.008665,0.0*
1,1,0.0,.013799,-.008665*
20,1,0.0,.013799,-.008665,.012598,-.004,0.0*
1,1,0.0,.012598,-.004*
20,1,0.0,.012598,-.004,.009,0.0,0.0*
1,1,0.0,.009,0.0*
20,1,0.0,.009,0.0,.004799,.001335,0.0*
1,1,0.0,.004799,.001335*
20,1,0.0,.004799,.001335,-.013799,.001335,0.0*
1,1,0.0,-.013799,.001335*
%
%ADD17MACRO17*%
%AMMACRO12*
1,1,0.0,-.013201,-.02*
20,1,0.0,-.013201,-.02,-.013201,.02,0.0*
1,1,0.0,-.013201,.02*
20,1,0.0,-.013201,.02,-.001201,.02,0.0*
1,1,0.0,-.001201,.02*
20,1,0.0,-.001201,.02,.003598,.018,0.0*
1,1,0.0,.003598,.018*
20,1,0.0,.003598,.018,.007201,.015335,0.0*
1,1,0.0,.007201,.015335*
20,1,0.0,.007201,.015335,.010201,.011335,0.0*
1,1,0.0,.010201,.011335*
20,1,0.0,.010201,.011335,.012598,.006665,0.0*
1,1,0.0,.012598,.006665*
20,1,0.0,.012598,.006665,.013201,0.0,0.0*
1,1,0.0,.013201,0.0*
20,1,0.0,.013201,0.0,.012598,-.006665,0.0*
1,1,0.0,.012598,-.006665*
20,1,0.0,.012598,-.006665,.010201,-.011335,0.0*
1,1,0.0,.010201,-.011335*
20,1,0.0,.010201,-.011335,.007201,-.015335,0.0*
1,1,0.0,.007201,-.015335*
20,1,0.0,.007201,-.015335,.003598,-.018,0.0*
1,1,0.0,.003598,-.018*
20,1,0.0,.003598,-.018,-.001201,-.02,0.0*
1,1,0.0,-.001201,-.02*
20,1,0.0,-.001201,-.02,-.013201,-.02,0.0*
1,1,0.0,-.013201,-.02*
%
%ADD12MACRO12*%
%AMMACRO16*
1,1,0.0,.003799,0.0*
20,1,0.0,.003799,0.0,.016469,0.0,0.0*
1,1,0.0,.016469,0.0*
20,1,0.0,.016469,0.0,.016469,-.012602,0.0*
1,1,0.0,.016469,-.012602*
20,1,0.0,.016469,-.012602,.012665,-.016799,0.0*
1,1,0.0,.012665,-.016799*
20,1,0.0,.012665,-.016799,.008232,-.019598,0.0*
1,1,0.0,.008232,-.019598*
20,1,0.0,.008232,-.019598,.001902,-.021,0.0*
1,1,0.0,.001902,-.021*
20,1,0.0,.001902,-.021,-.004433,-.019598,0.0*
1,1,0.0,-.004433,-.019598*
20,1,0.0,-.004433,-.019598,-.008866,-.016799,0.0*
1,1,0.0,-.008866,-.016799*
20,1,0.0,-.008866,-.016799,-.012665,-.012602,0.0*
1,1,0.0,-.012665,-.012602*
20,1,0.0,-.012665,-.012602,-.015201,-.007701,0.0*
1,1,0.0,-.015201,-.007701*
20,1,0.0,-.015201,-.007701,-.016469,-.002098,0.0*
1,1,0.0,-.016469,-.002098*
20,1,0.0,-.016469,-.002098,-.016469,.002799,0.0*
1,1,0.0,-.016469,.002799*
20,1,0.0,-.016469,.002799,-.015201,.007,0.0*
1,1,0.0,-.015201,.007*
20,1,0.0,-.015201,.007,-.012665,.011902,0.0*
1,1,0.0,-.012665,.011902*
20,1,0.0,-.012665,.011902,-.008866,.016098,0.0*
1,1,0.0,-.008866,.016098*
20,1,0.0,-.008866,.016098,-.005067,.018898,0.0*
1,1,0.0,-.005067,.018898*
20,1,0.0,-.005067,.018898,0.0,.021,0.0*
1,1,0.0,0.0,.021*
20,1,0.0,0.0,.021,.004433,.021,0.0*
1,1,0.0,.004433,.021*
20,1,0.0,.004433,.021,.0095,.019598,0.0*
1,1,0.0,.0095,.019598*
20,1,0.0,.0095,.019598,.013299,.016799,0.0*
1,1,0.0,.013299,.016799*
%
%ADD16MACRO16*%
%AMMACRO18*
1,1,0.0,.025,0.0*
20,1,0.0,.025,0.0,.0125,.021651,0.0*
1,1,0.0,.0125,.021651*
20,1,0.0,.0125,.021651,-.0125,.021651,0.0*
1,1,0.0,-.0125,.021651*
20,1,0.0,-.0125,.021651,-.025,0.0,0.0*
1,1,0.0,-.025,0.0*
20,1,0.0,-.025,0.0,-.0125,-.021651,0.0*
1,1,0.0,-.0125,-.021651*
20,1,0.0,-.0125,-.021651,.0125,-.021651,0.0*
1,1,0.0,.0125,-.021651*
20,1,0.0,.0125,-.021651,.025,0.0,0.0*
1,1,0.0,.025,0.0*
%
%ADD18MACRO18*%
%AMMACRO15*
1,1,0.0,0.0,.025*
20,1,0.0,0.0,.025,0.0,-.025,0.0*
1,1,0.0,0.0,-.025*
1,1,0.0,-.017248,.025*
20,1,0.0,-.017248,.025,.017248,.025,0.0*
1,1,0.0,.017248,.025*
%
%ADD15MACRO15*%
%AMMACRO13*
1,1,0.0,.045,0.0*
20,1,0.0,.045,0.0,0.0,-.05,0.0*
1,1,0.0,0.0,-.05*
20,1,0.0,0.0,-.05,-.045,0.0,0.0*
1,1,0.0,-.045,0.0*
20,1,0.0,-.045,0.0,0.0,.05,0.0*
1,1,0.0,0.0,.05*
20,1,0.0,0.0,.05,.045,0.0,0.0*
1,1,0.0,.045,0.0*
1,1,0.0,0.0,-.025*
20,1,0.0,0.0,-.025,-.006,-.024165,0.0*
1,1,0.0,-.006,-.024165*
20,1,0.0,-.006,-.024165,-.011248,-.020835,0.0*
1,1,0.0,-.011248,-.020835*
20,1,0.0,-.011248,-.020835,-.015752,-.015835,0.0*
1,1,0.0,-.015752,-.015835*
20,1,0.0,-.015752,-.015835,-.018752,-.01,0.0*
1,1,0.0,-.018752,-.01*
20,1,0.0,-.018752,-.01,-.020252,-.003335,0.0*
1,1,0.0,-.020252,-.003335*
20,1,0.0,-.020252,-.003335,-.020252,.003335,0.0*
1,1,0.0,-.020252,.003335*
20,1,0.0,-.020252,.003335,-.018752,.01,0.0*
1,1,0.0,-.018752,.01*
20,1,0.0,-.018752,.01,-.015752,.015835,0.0*
1,1,0.0,-.015752,.015835*
20,1,0.0,-.015752,.015835,-.011248,.020835,0.0*
1,1,0.0,-.011248,.020835*
20,1,0.0,-.011248,.020835,-.006,.024165,0.0*
1,1,0.0,-.006,.024165*
20,1,0.0,-.006,.024165,0.0,.025,0.0*
1,1,0.0,0.0,.025*
20,1,0.0,0.0,.025,.006,.024165,0.0*
1,1,0.0,.006,.024165*
20,1,0.0,.006,.024165,.011248,.020835,0.0*
1,1,0.0,.011248,.020835*
20,1,0.0,.011248,.020835,.015752,.015835,0.0*
1,1,0.0,.015752,.015835*
20,1,0.0,.015752,.015835,.018752,.01,0.0*
1,1,0.0,.018752,.01*
20,1,0.0,.018752,.01,.020252,.003335,0.0*
1,1,0.0,.020252,.003335*
20,1,0.0,.020252,.003335,.020252,-.003335,0.0*
1,1,0.0,.020252,-.003335*
20,1,0.0,.020252,-.003335,.018752,-.01,0.0*
1,1,0.0,.018752,-.01*
20,1,0.0,.018752,-.01,.015752,-.015835,0.0*
1,1,0.0,.015752,-.015835*
20,1,0.0,.015752,-.015835,.011248,-.020835,0.0*
1,1,0.0,.011248,-.020835*
20,1,0.0,.011248,-.020835,.006,-.024165,0.0*
1,1,0.0,.006,-.024165*
20,1,0.0,.006,-.024165,0.0,-.025,0.0*
1,1,0.0,0.0,-.025*
1,1,0.0,.006,-.011665*
20,1,0.0,.006,-.011665,.015,-.025,0.0*
1,1,0.0,.015,-.025*
%
%ADD13MACRO13*%
G75*
%LPD*%
G75*
G54D10*
X-5000Y-1378D03*
X-5100Y-1578D03*
Y-1278D03*
X-4900Y-1378D03*
X-4800Y-1578D03*
Y-1278D03*
X-4391Y-1578D03*
Y-1278D03*
X-4291Y-1378D03*
X-4191D03*
X-4091Y-1578D03*
Y-1278D03*
X-3780Y-1378D03*
X-3880Y-1578D03*
Y-1278D03*
X-3680Y-1378D03*
X-3580Y-1578D03*
Y-1278D03*
X-3268Y-1378D03*
X-3168D03*
X-3368Y-1578D03*
Y-1278D03*
X-3068Y-1578D03*
Y-1278D03*
X-2870Y3843D03*
X-2233Y-1237D03*
Y-1137D03*
Y-1037D03*
Y-937D03*
Y-837D03*
Y-737D03*
Y-637D03*
Y-537D03*
Y-437D03*
Y-337D03*
Y-237D03*
Y-137D03*
Y-37D03*
Y63D03*
Y163D03*
Y263D03*
Y363D03*
X-2083Y-1237D03*
Y-1137D03*
Y-1037D03*
X-2008Y-1187D03*
Y-1087D03*
X-2158Y-1187D03*
Y-1087D03*
X-2083Y-937D03*
Y-837D03*
Y-737D03*
X-2008Y-987D03*
Y-887D03*
Y-787D03*
X-2158Y-987D03*
Y-887D03*
Y-787D03*
X-2083Y-637D03*
Y-537D03*
Y-437D03*
X-2008Y-687D03*
Y-587D03*
Y-487D03*
X-2158Y-687D03*
Y-587D03*
Y-487D03*
X-2083Y-337D03*
Y-237D03*
Y-137D03*
X-2008Y-387D03*
Y-287D03*
Y-187D03*
X-2158Y-387D03*
Y-287D03*
Y-187D03*
X-2083Y-37D03*
Y63D03*
Y163D03*
X-2008Y-87D03*
Y13D03*
Y113D03*
X-2158Y-87D03*
Y13D03*
Y113D03*
X-2083Y263D03*
Y363D03*
X-2008Y213D03*
Y313D03*
Y413D03*
X-2158Y213D03*
Y313D03*
Y413D03*
X561Y-1016D03*
Y-1116D03*
Y-1216D03*
X486Y-1066D03*
Y-1166D03*
Y-1266D03*
X711Y-1016D03*
Y-1116D03*
Y-1216D03*
X636Y-1066D03*
Y-1166D03*
Y-1266D03*
X561Y-716D03*
Y-816D03*
Y-916D03*
X486Y-766D03*
Y-866D03*
Y-966D03*
X711Y-716D03*
Y-816D03*
Y-916D03*
X636Y-766D03*
Y-866D03*
Y-966D03*
X561Y-416D03*
Y-516D03*
Y-616D03*
X486Y-466D03*
Y-566D03*
Y-666D03*
X711Y-416D03*
Y-516D03*
Y-616D03*
X636Y-466D03*
Y-566D03*
Y-666D03*
X561Y-116D03*
Y-216D03*
Y-316D03*
X486Y-166D03*
Y-266D03*
Y-366D03*
X711Y-116D03*
Y-216D03*
Y-316D03*
X636Y-166D03*
Y-266D03*
Y-366D03*
X561Y184D03*
Y84D03*
Y-16D03*
X486Y134D03*
Y34D03*
Y-66D03*
X711Y184D03*
Y84D03*
Y-16D03*
X636Y134D03*
Y34D03*
Y-66D03*
X561Y384D03*
Y284D03*
X486Y334D03*
Y234D03*
X711Y384D03*
Y284D03*
X636Y334D03*
Y234D03*
X1260Y-1270D03*
Y-1170D03*
Y-1070D03*
X1335Y-1220D03*
Y-1120D03*
Y-1020D03*
X1110Y-1270D03*
Y-1170D03*
Y-1070D03*
X1185Y-1220D03*
Y-1120D03*
Y-1020D03*
X1260Y-970D03*
Y-870D03*
Y-770D03*
X1335Y-920D03*
Y-820D03*
Y-720D03*
X1110Y-970D03*
Y-870D03*
Y-770D03*
X1185Y-920D03*
Y-820D03*
Y-720D03*
X1260Y-670D03*
Y-570D03*
Y-470D03*
X1335Y-620D03*
Y-520D03*
Y-420D03*
X1110Y-670D03*
Y-570D03*
Y-470D03*
X1185Y-620D03*
Y-520D03*
Y-420D03*
X1260Y-370D03*
Y-270D03*
Y-170D03*
X1335Y-320D03*
Y-220D03*
Y-120D03*
X1110Y-370D03*
Y-270D03*
Y-170D03*
X1185Y-320D03*
Y-220D03*
Y-120D03*
X1260Y-70D03*
Y30D03*
Y130D03*
X1335Y-20D03*
Y80D03*
Y180D03*
X1110Y-70D03*
Y30D03*
Y130D03*
X1185Y-20D03*
Y80D03*
Y180D03*
X1260Y230D03*
Y330D03*
X1335Y280D03*
Y380D03*
X1110Y230D03*
Y330D03*
X1185Y280D03*
Y380D03*
X4193Y-1270D03*
Y-1170D03*
Y-1070D03*
X4118Y-1220D03*
Y-1120D03*
Y-1020D03*
X4343Y-1270D03*
Y-1170D03*
Y-1070D03*
X4268Y-1220D03*
Y-1120D03*
Y-1020D03*
X4193Y-970D03*
Y-870D03*
Y-770D03*
X4118Y-920D03*
Y-820D03*
Y-720D03*
X4343Y-970D03*
Y-870D03*
Y-770D03*
X4268Y-920D03*
Y-820D03*
Y-720D03*
X4193Y-670D03*
Y-570D03*
Y-470D03*
X4118Y-620D03*
Y-520D03*
Y-420D03*
X4343Y-670D03*
Y-570D03*
Y-470D03*
X4268Y-620D03*
Y-520D03*
Y-420D03*
X4193Y-370D03*
Y-270D03*
Y-170D03*
X4118Y-320D03*
Y-220D03*
Y-120D03*
X4343Y-370D03*
Y-270D03*
Y-170D03*
X4268Y-320D03*
Y-220D03*
Y-120D03*
X4193Y-70D03*
Y30D03*
Y130D03*
X4118Y-20D03*
Y80D03*
Y180D03*
X4343Y-70D03*
Y30D03*
Y130D03*
X4268Y-20D03*
Y80D03*
Y180D03*
X4193Y230D03*
Y330D03*
X4118Y280D03*
Y380D03*
X4343Y230D03*
Y330D03*
X4268Y280D03*
Y380D03*
G54D11*
X-5197Y-541D03*
Y-610D03*
X-5020Y-305D03*
X-4695Y-876D03*
Y-778D03*
X-4705Y-984D03*
X-4823Y-797D03*
X-4695Y-679D03*
X-4872Y-492D03*
X-4941Y-305D03*
X-4724Y69D03*
X-4675Y226D03*
X-4774Y610D03*
X-4498Y-512D03*
X-4626Y-463D03*
X-4547D03*
X-4626Y-187D03*
X-4547D03*
X-4409Y167D03*
Y69D03*
X-4518Y276D03*
X-4360Y325D03*
X-4449Y807D03*
X-4193Y-827D03*
X-4271Y-466D03*
X-4085Y-512D03*
X-4094Y-423D03*
X-4321Y-482D03*
X-4173Y-516D03*
X-4094Y-344D03*
X-4154Y-246D03*
X-4321Y98D03*
X-4163Y512D03*
X-4016Y-325D03*
X-4035Y-246D03*
X-4026Y-404D03*
X-3809Y-207D03*
X-3799Y-20D03*
X-3927Y226D03*
X-3671Y-512D03*
X-3740Y-482D03*
X-3504Y-413D03*
X-3494Y-226D03*
Y-315D03*
X-3553Y-128D03*
X-3386Y-1093D03*
X-3337Y-482D03*
X-3179Y-315D03*
X-3337Y-148D03*
Y-315D03*
X-2874Y-1348D03*
X-3041Y-1093D03*
X-2894Y-315D03*
X-2870Y4405D03*
X-2598Y-1348D03*
X-1591Y36D03*
X-1624Y-108D03*
Y108D03*
X-1510Y-114D03*
Y102D03*
X-1601Y469D03*
X-1591Y252D03*
X-1624Y325D03*
X-1510Y319D03*
X-787Y-1496D03*
Y-1102D03*
X-650D03*
X-679Y-748D03*
Y-946D03*
X-689Y79D03*
X-610Y246D03*
X108Y-394D03*
X20Y-305D03*
X128Y-157D03*
X30Y-89D03*
X-39Y472D03*
Y266D03*
X30Y384D03*
X118Y630D03*
X0Y571D03*
X409Y-1378D03*
X295Y-1329D03*
Y-423D03*
X325Y-344D03*
X197Y-276D03*
X399Y-379D03*
X246Y709D03*
X409Y733D03*
X305Y679D03*
X1319Y581D03*
X1535Y-1432D03*
X1614Y-1516D03*
X1535Y-1260D03*
X1604Y148D03*
X1594Y236D03*
X1801Y-1516D03*
X1727Y-1132D03*
X1722Y-1314D03*
X1919Y-1132D03*
X1909Y-1304D03*
X1777Y-763D03*
X1973Y-1156D03*
X1978Y-969D03*
X2151D03*
X1973Y-763D03*
X2352Y-1516D03*
X2539D03*
X2333Y-1078D03*
X2283Y-1117D03*
X2451Y-910D03*
X2544Y-778D03*
X2603Y-1024D03*
X2785Y-1019D03*
Y-822D03*
X3455Y531D03*
X3337Y837D03*
G54D12*
X-5030Y128D03*
Y325D03*
Y522D03*
X-2870Y2719D03*
X-472Y-1407D03*
X-276D03*
X-79D03*
X2559Y679D03*
X2362D03*
X2756D03*
G54D13*
X-5079Y748D03*
X-4606Y-1142D03*
X-2874Y-1122D03*
X-2870Y1876D03*
X-2677Y748D03*
G54D14*
X-4409Y-1093D03*
Y-993D03*
Y-893D03*
Y-793D03*
Y-693D03*
Y-593D03*
Y-493D03*
Y-393D03*
X-4528Y-69D03*
X-4428D03*
X-2836Y-1675D03*
Y-1475D03*
X-2870Y3281D03*
X-2636Y-1675D03*
X-2736Y-1575D03*
X-2636Y-1475D03*
G54D15*
X-2870Y2157D03*
X-2158Y-1552D03*
Y728D03*
X636Y-1581D03*
Y699D03*
X1185Y-1585D03*
Y695D03*
X4268Y-1585D03*
Y695D03*
G54D16*
X-2870Y2438D03*
X1911Y-120D03*
X1711D03*
Y80D03*
X1911D03*
Y215D03*
X1711D03*
Y415D03*
X1911D03*
Y550D03*
X1711D03*
Y750D03*
X1911D03*
X3446Y-435D03*
X3246D03*
X3446Y-100D03*
X3246D03*
Y-235D03*
X3446D03*
X3246Y100D03*
X3446D03*
X3620Y-435D03*
Y-100D03*
Y-235D03*
Y100D03*
Y274D03*
Y474D03*
Y628D03*
Y828D03*
X3820Y-435D03*
Y-100D03*
Y-235D03*
Y100D03*
Y274D03*
Y474D03*
Y628D03*
Y828D03*
G54D17*
X-2870Y3000D03*
X1811Y-20D03*
Y315D03*
Y650D03*
X3346Y-335D03*
Y0D03*
X3720Y-335D03*
Y0D03*
Y374D03*
Y728D03*
G54D18*
X-2870Y3562D03*
X-774Y-391D03*
Y-291D03*
Y-191D03*
Y-91D03*
Y9D03*
Y109D03*
Y209D03*
Y309D03*
Y409D03*
Y509D03*
Y609D03*
Y709D03*
X-374Y-191D03*
Y-291D03*
Y-391D03*
Y109D03*
Y9D03*
Y-91D03*
Y409D03*
Y309D03*
Y209D03*
Y709D03*
Y609D03*
Y509D03*
G54D19*
X-2870Y4124D03*
X-1658Y-1395D03*
Y-1195D03*
Y-495D03*
Y-595D03*
X-1058Y-1395D03*
Y-1195D03*
Y-595D03*
Y-495D03*
X2269Y-598D03*
Y-398D03*
Y302D03*
Y202D03*
X2869Y-598D03*
Y-398D03*
Y202D03*
Y302D03*
M02*
