G04 ================== begin FILE IDENTIFICATION RECORD ==================*
G04 Layout Name:  E:\UOB-HEP-PC005A\worklib\qpll\physical\pc005-unplaced-f.brd*
G04 Film Name:    VCC*
G04 File Format:  Gerber RS274X*
G04 File Origin:  -unreleased*
G04 Origin Date:  Wed Jun 11 08:47:36 2003*
G04 ================== end FILE IDENTIFICATION RECORD ====================*
%FSLAX53Y53*MOIN*%
%IR0*IPPOS*OFA0.00000B0.00000*MIA0B0*SFA1.00000B1.00000*%
%ADD14C,.08*%
%ADD16R,.08X.08*%
%ADD19C,.084*%
%ADD17C,.075*%
%ADD15C,.21*%
%ADD11C,.044*%
%ADD10C,.076*%
%ADD13C,.18*%
%ADD18C,.104*%
%ADD12C,.092*%
%ADD20C,.005906*%
%ADD30R,.08X.08*%
%ADD25C,.08*%
%ADD32C,.084*%
%ADD29C,.21*%
%ADD28C,.075*%
%ADD23C,.048*%
%ADD21C,.044*%
%ADD27C,.076*%
%ADD22C,.18*%
%ADD31C,.104*%
%ADD24C,.092*%
%ADD26C,.072*%
G75*
%LPD*%
G75*
G36*
G01X-5395Y-1911D02*
X4608D01*
Y1045D01*
X-5395D01*
Y-1911D01*
G37*
%LPC*%
G75*
G36*
G01X-5256Y-1762D02*
Y915D01*
X-2500D01*
Y-1762D01*
X-5256D01*
G37*
G36*
G01X-2372D02*
Y915D01*
X837D01*
Y-1762D01*
X-2372D01*
G37*
G36*
G01X984D02*
Y925D01*
X4478D01*
Y-1762D01*
X984D01*
G37*
%LPD*%
G75*
G54D30*
X-1658Y-495D03*
X2269Y302D03*
G54D25*
X-4428Y-69D03*
X-4528D03*
X-4409Y-393D03*
Y-493D03*
Y-593D03*
Y-693D03*
Y-793D03*
Y-893D03*
Y-993D03*
Y-1093D03*
X-2636Y-1475D03*
X-2836D03*
X-2736Y-1575D03*
X-2636Y-1675D03*
X-2836D03*
X-1058Y-495D03*
Y-595D03*
X-1658D03*
X-1058Y-1195D03*
X-1658D03*
X-1058Y-1395D03*
X-1658D03*
X2869Y302D03*
Y202D03*
X2269D03*
X2869Y-398D03*
X2269D03*
X2869Y-598D03*
X2269D03*
G54D32*
X3720Y728D03*
X1811Y650D03*
X3720Y374D03*
X1811Y315D03*
X3720Y0D03*
X3346D03*
X1811Y-20D03*
X3720Y-335D03*
X3346D03*
G54D29*
X-2158Y728D03*
X636Y699D03*
X-2158Y-1552D03*
X636Y-1581D03*
X4268Y695D03*
X1185D03*
X4268Y-1585D03*
X1185D03*
G54D28*
X-374Y709D03*
X-774D03*
X-374Y609D03*
X-774D03*
X-374Y509D03*
X-774D03*
X-374Y409D03*
X-774D03*
X-374Y309D03*
X-774D03*
X-374Y209D03*
X-774D03*
X-374Y109D03*
X-774D03*
X-374Y9D03*
X-774D03*
X-374Y-91D03*
X-774D03*
X-374Y-191D03*
X-774D03*
X-374Y-291D03*
X-774D03*
X-374Y-391D03*
X-774D03*
G54D23*
X-4163Y512D03*
X-4518Y276D03*
X-4724Y69D03*
X-3337Y-148D03*
X-4626Y-187D03*
X-3179Y-315D03*
X-3494D03*
X-4626Y-463D03*
X-3337Y-482D03*
X-5197Y-541D03*
X-1601Y469D03*
X-1591Y252D03*
X-689Y79D03*
X-1591Y36D03*
X-679Y-748D03*
X2544Y-778D03*
X2785Y-822D03*
X2451Y-910D03*
X2151Y-969D03*
X1978D03*
X2785Y-1019D03*
X2603Y-1024D03*
X2333Y-1078D03*
X2283Y-1117D03*
X1919Y-1132D03*
X1727D03*
X1973Y-1156D03*
X1535Y-1260D03*
X1909Y-1304D03*
X1722Y-1314D03*
X1535Y-1432D03*
G54D21*
X-4449Y807D03*
X-4774Y610D03*
X-4360Y325D03*
X-3927Y226D03*
X-4675D03*
X-4409Y167D03*
X-4321Y98D03*
X-4409Y69D03*
X-3553Y-128D03*
X-4547Y-187D03*
X-3809Y-207D03*
X-3494Y-226D03*
X-4035Y-246D03*
X-4154D03*
X-4941Y-305D03*
X-5020D03*
X-2894Y-315D03*
X-3337D03*
X-4016Y-325D03*
X-4094Y-344D03*
X-4026Y-404D03*
X-3504Y-413D03*
X-4094Y-423D03*
X-4547Y-463D03*
X-4271Y-466D03*
X-3740Y-482D03*
X-4321D03*
X-4872Y-492D03*
X-3671Y-512D03*
X-4085D03*
X-4173Y-516D03*
X-5197Y-610D03*
X-4695Y-679D03*
Y-778D03*
X-4823Y-797D03*
X-4193Y-827D03*
X-4695Y-876D03*
X-4705Y-984D03*
X-3041Y-1093D03*
X-3386D03*
X-2598Y-1348D03*
X-2874D03*
X409Y733D03*
X246Y709D03*
X305Y679D03*
X118Y630D03*
X0Y571D03*
X384Y541D03*
X-39Y472D03*
X30Y384D03*
X-1624Y325D03*
X-1510Y319D03*
X-39Y266D03*
X-610Y246D03*
X-1624Y108D03*
X-1510Y102D03*
X30Y-89D03*
X-1624Y-108D03*
X-1510Y-114D03*
X128Y-157D03*
X197Y-276D03*
X20Y-305D03*
X325Y-344D03*
X399Y-379D03*
X108Y-394D03*
X295Y-423D03*
X-679Y-946D03*
X-650Y-1102D03*
X-787D03*
X295Y-1329D03*
X409Y-1378D03*
X-787Y-1496D03*
X1319Y581D03*
G54D27*
X-3068Y-1278D03*
X-3368D03*
X-3580D03*
X-3880D03*
X-4091D03*
X-4391D03*
X-4800D03*
X-5100D03*
X-3168Y-1378D03*
X-3268D03*
X-3680D03*
X-3780D03*
X-4191D03*
X-4291D03*
X-4900D03*
X-5000D03*
X-3068Y-1578D03*
X-3368D03*
X-3580D03*
X-3880D03*
X-4091D03*
X-4391D03*
X-4800D03*
X-5100D03*
X-2008Y413D03*
X-2158D03*
X711Y384D03*
X561D03*
X-2083Y363D03*
X-2233D03*
X636Y334D03*
X486D03*
X-2008Y313D03*
X-2158D03*
X711Y284D03*
X561D03*
X-2083Y263D03*
X-2233D03*
X636Y234D03*
X486D03*
X-2008Y213D03*
X-2158D03*
X711Y184D03*
X561D03*
X-2083Y163D03*
X-2233D03*
X636Y134D03*
X486D03*
X-2008Y113D03*
X-2158D03*
X711Y84D03*
X561D03*
X-2083Y63D03*
X-2233D03*
X636Y34D03*
X486D03*
X-2008Y13D03*
X-2158D03*
X711Y-16D03*
X561D03*
X-2083Y-37D03*
X-2233D03*
X636Y-66D03*
X486D03*
X-2008Y-87D03*
X-2158D03*
X711Y-116D03*
X561D03*
X-2083Y-137D03*
X-2233D03*
X636Y-166D03*
X486D03*
X-2008Y-187D03*
X-2158D03*
X711Y-216D03*
X561D03*
X-2083Y-237D03*
X-2233D03*
X636Y-266D03*
X486D03*
X-2008Y-287D03*
X-2158D03*
X711Y-316D03*
X561D03*
X-2083Y-337D03*
X-2233D03*
X636Y-366D03*
X486D03*
X-2008Y-387D03*
X-2158D03*
X711Y-416D03*
X561D03*
X-2083Y-437D03*
X-2233D03*
X636Y-466D03*
X486D03*
X-2008Y-487D03*
X-2158D03*
X711Y-516D03*
X561D03*
X-2083Y-537D03*
X-2233D03*
X636Y-566D03*
X486D03*
X-2008Y-587D03*
X-2158D03*
X711Y-616D03*
X561D03*
X-2083Y-637D03*
X-2233D03*
X636Y-666D03*
X486D03*
X-2008Y-687D03*
X-2158D03*
X711Y-716D03*
X561D03*
X-2083Y-737D03*
X-2233D03*
X636Y-766D03*
X486D03*
X-2008Y-787D03*
X-2158D03*
X711Y-816D03*
X561D03*
X-2083Y-837D03*
X-2233D03*
X636Y-866D03*
X486D03*
X-2008Y-887D03*
X-2158D03*
X711Y-916D03*
X561D03*
X-2083Y-937D03*
X-2233D03*
X636Y-966D03*
X486D03*
X-2008Y-987D03*
X-2158D03*
X711Y-1016D03*
X561D03*
X-2083Y-1037D03*
X-2233D03*
X636Y-1066D03*
X486D03*
X-2008Y-1087D03*
X-2158D03*
X711Y-1116D03*
X561D03*
X-2083Y-1137D03*
X-2233D03*
X636Y-1166D03*
X486D03*
X-2008Y-1187D03*
X-2158D03*
X711Y-1216D03*
X561D03*
X-2083Y-1237D03*
X-2233D03*
X636Y-1266D03*
X486D03*
X3455Y531D03*
X4268Y380D03*
X4118D03*
X1335D03*
X1185D03*
X4343Y330D03*
X4193D03*
X1260D03*
X1110D03*
X4268Y280D03*
X4118D03*
X1335D03*
X1185D03*
X4343Y230D03*
X4193D03*
X1260D03*
X1110D03*
X4268Y180D03*
X4118D03*
X1335D03*
X1185D03*
X4343Y130D03*
X4193D03*
X1260D03*
X1110D03*
X4268Y80D03*
X4118D03*
X1335D03*
X1185D03*
X4343Y30D03*
X4193D03*
X1260D03*
X1110D03*
X4268Y-20D03*
X4118D03*
X1335D03*
X1185D03*
X4343Y-70D03*
X4193D03*
X1260D03*
X1110D03*
X4268Y-120D03*
X4118D03*
X1335D03*
X1185D03*
X4343Y-170D03*
X4193D03*
X1260D03*
X1110D03*
X4268Y-220D03*
X4118D03*
X1335D03*
X1185D03*
X4343Y-270D03*
X4193D03*
X1260D03*
X1110D03*
X4268Y-320D03*
X4118D03*
X1335D03*
X1185D03*
X4343Y-370D03*
X4193D03*
X1260D03*
X1110D03*
X4268Y-420D03*
X4118D03*
X1335D03*
X1185D03*
X4343Y-470D03*
X4193D03*
X1260D03*
X1110D03*
X4268Y-520D03*
X4118D03*
X1335D03*
X1185D03*
X4343Y-570D03*
X4193D03*
X1260D03*
X1110D03*
X4268Y-620D03*
X4118D03*
X1335D03*
X1185D03*
X4343Y-670D03*
X4193D03*
X1260D03*
X1110D03*
X4268Y-720D03*
X4118D03*
X1335D03*
X1185D03*
X1777Y-763D03*
X4343Y-770D03*
X4193D03*
X1260D03*
X1110D03*
X4268Y-820D03*
X4118D03*
X1335D03*
X1185D03*
X4343Y-870D03*
X4193D03*
X1260D03*
X1110D03*
X4268Y-920D03*
X4118D03*
X1335D03*
X1185D03*
X4343Y-970D03*
X4193D03*
X1260D03*
X1110D03*
X4268Y-1020D03*
X4118D03*
X1335D03*
X1185D03*
X4343Y-1070D03*
X4193D03*
X1260D03*
X1110D03*
X4268Y-1120D03*
X4118D03*
X1335D03*
X1185D03*
X4343Y-1170D03*
X4193D03*
X1260D03*
X1110D03*
X4268Y-1220D03*
X4118D03*
X1335D03*
X1185D03*
X4343Y-1270D03*
X4193D03*
X1260D03*
X1110D03*
X2352Y-1516D03*
X1614D03*
G54D22*
X-2677Y748D03*
X-5079D03*
X-2874Y-1122D03*
X-4606Y-1142D03*
G54D31*
X3820Y828D03*
X3620D03*
X1911Y750D03*
X1711D03*
X3820Y628D03*
X3620D03*
X1911Y550D03*
X1711D03*
X3820Y474D03*
X3620D03*
X1911Y415D03*
X1711D03*
X3820Y274D03*
X3620D03*
X1911Y215D03*
X1711D03*
X3820Y100D03*
X3620D03*
X3446D03*
X3246D03*
X1911Y80D03*
X1711D03*
X3820Y-100D03*
X3620D03*
X3446D03*
X3246D03*
X1911Y-120D03*
X1711D03*
X3820Y-235D03*
X3620D03*
X3446D03*
X3246D03*
X3820Y-435D03*
X3620D03*
X3446D03*
X3246D03*
G54D24*
X-5030Y522D03*
Y325D03*
Y128D03*
X-79Y-1407D03*
X-276D03*
X-472D03*
X2756Y679D03*
X2559D03*
X2362D03*
G54D26*
X-4498Y-512D03*
X3337Y837D03*
X1594Y236D03*
X1604Y148D03*
X1973Y-763D03*
X2539Y-1516D03*
X1801D03*
G54D14*
X-4409Y-1093D03*
Y-993D03*
Y-893D03*
Y-793D03*
Y-693D03*
Y-593D03*
Y-493D03*
Y-393D03*
X-4528Y-69D03*
X-4428D03*
X-2836Y-1675D03*
Y-1475D03*
X-2636Y-1675D03*
X-2736Y-1575D03*
X-2636Y-1475D03*
X-1658Y-1395D03*
Y-1195D03*
Y-595D03*
X-1058Y-1395D03*
Y-1195D03*
Y-595D03*
Y-495D03*
X2269Y-598D03*
Y-398D03*
Y202D03*
X2869Y-598D03*
Y-398D03*
Y202D03*
Y302D03*
G54D16*
X-1658Y-495D03*
X2269Y302D03*
G54D15*
X-2158Y-1552D03*
Y728D03*
X636Y-1581D03*
Y699D03*
X1185Y-1585D03*
Y695D03*
X4268Y-1585D03*
Y695D03*
G54D17*
X-774Y-391D03*
Y-291D03*
Y-191D03*
Y-91D03*
Y9D03*
Y109D03*
Y209D03*
Y309D03*
Y409D03*
Y509D03*
Y609D03*
Y709D03*
X-374Y-191D03*
Y-291D03*
Y-391D03*
Y109D03*
Y9D03*
Y-91D03*
Y409D03*
Y309D03*
Y209D03*
Y709D03*
Y609D03*
Y509D03*
G54D19*
X1811Y-20D03*
Y315D03*
Y650D03*
X3346Y-335D03*
Y0D03*
X3720Y-335D03*
Y0D03*
Y374D03*
Y728D03*
G54D11*
X-5197Y-541D03*
Y-610D03*
X-5020Y-305D03*
X-4695Y-876D03*
Y-778D03*
X-4705Y-984D03*
X-4823Y-797D03*
X-4695Y-679D03*
X-4872Y-492D03*
X-4941Y-305D03*
X-4724Y69D03*
X-4675Y226D03*
X-4774Y610D03*
X-4498Y-512D03*
X-4626Y-463D03*
X-4547D03*
X-4626Y-187D03*
X-4547D03*
X-4409Y167D03*
Y69D03*
X-4518Y276D03*
X-4360Y325D03*
X-4449Y807D03*
X-4193Y-827D03*
X-4271Y-466D03*
X-4085Y-512D03*
X-4094Y-423D03*
X-4321Y-482D03*
X-4173Y-516D03*
X-4094Y-344D03*
X-4154Y-246D03*
X-4321Y98D03*
X-4163Y512D03*
X-4016Y-325D03*
X-4035Y-246D03*
X-4026Y-404D03*
X-3809Y-207D03*
X-3799Y-20D03*
X-3927Y226D03*
X-3671Y-512D03*
X-3740Y-482D03*
X-3504Y-413D03*
X-3494Y-226D03*
Y-315D03*
X-3553Y-128D03*
X-3386Y-1093D03*
X-3337Y-482D03*
X-3179Y-315D03*
X-3337Y-148D03*
Y-315D03*
X-2874Y-1348D03*
X-3041Y-1093D03*
X-2894Y-315D03*
X-2598Y-1348D03*
X-1591Y36D03*
X-1624Y-108D03*
Y108D03*
X-1510Y-114D03*
Y102D03*
X-1601Y469D03*
X-1591Y252D03*
X-1624Y325D03*
X-1510Y319D03*
X-787Y-1496D03*
Y-1102D03*
X-650D03*
X-679Y-748D03*
Y-946D03*
X-689Y79D03*
X-610Y246D03*
X108Y-394D03*
X20Y-305D03*
X128Y-157D03*
X30Y-89D03*
X-39Y472D03*
Y266D03*
X30Y384D03*
X118Y630D03*
X0Y571D03*
X409Y-1378D03*
X295Y-1329D03*
Y-423D03*
X325Y-344D03*
X197Y-276D03*
X399Y-379D03*
X246Y709D03*
X409Y733D03*
X305Y679D03*
X1319Y581D03*
X1535Y-1432D03*
X1614Y-1516D03*
X1535Y-1260D03*
X1604Y148D03*
X1594Y236D03*
X1801Y-1516D03*
X1727Y-1132D03*
X1722Y-1314D03*
X1919Y-1132D03*
X1909Y-1304D03*
X1777Y-763D03*
X1973Y-1156D03*
X1978Y-969D03*
X2151D03*
X1973Y-763D03*
X2352Y-1516D03*
X2539D03*
X2333Y-1078D03*
X2283Y-1117D03*
X2451Y-910D03*
X2544Y-778D03*
X2603Y-1024D03*
X2785Y-1019D03*
Y-822D03*
X3455Y531D03*
X3337Y837D03*
G54D10*
X-5000Y-1378D03*
X-5100Y-1578D03*
Y-1278D03*
X-4900Y-1378D03*
X-4800Y-1578D03*
Y-1278D03*
X-4391Y-1578D03*
Y-1278D03*
X-4291Y-1378D03*
X-4191D03*
X-4091Y-1578D03*
Y-1278D03*
X-3780Y-1378D03*
X-3880Y-1578D03*
Y-1278D03*
X-3680Y-1378D03*
X-3580Y-1578D03*
Y-1278D03*
X-3268Y-1378D03*
X-3168D03*
X-3368Y-1578D03*
Y-1278D03*
X-3068Y-1578D03*
Y-1278D03*
X-2233Y-1237D03*
Y-1137D03*
Y-1037D03*
Y-937D03*
Y-837D03*
Y-737D03*
Y-637D03*
Y-537D03*
Y-437D03*
Y-337D03*
Y-237D03*
Y-137D03*
Y-37D03*
Y63D03*
Y163D03*
Y263D03*
Y363D03*
X-2083Y-1237D03*
Y-1137D03*
Y-1037D03*
X-2008Y-1187D03*
Y-1087D03*
X-2158Y-1187D03*
Y-1087D03*
X-2083Y-937D03*
Y-837D03*
Y-737D03*
X-2008Y-987D03*
Y-887D03*
Y-787D03*
X-2158Y-987D03*
Y-887D03*
Y-787D03*
X-2083Y-637D03*
Y-537D03*
Y-437D03*
X-2008Y-687D03*
Y-587D03*
Y-487D03*
X-2158Y-687D03*
Y-587D03*
Y-487D03*
X-2083Y-337D03*
Y-237D03*
Y-137D03*
X-2008Y-387D03*
Y-287D03*
Y-187D03*
X-2158Y-387D03*
Y-287D03*
Y-187D03*
X-2083Y-37D03*
Y63D03*
Y163D03*
X-2008Y-87D03*
Y13D03*
Y113D03*
X-2158Y-87D03*
Y13D03*
Y113D03*
X-2083Y263D03*
Y363D03*
X-2008Y213D03*
Y313D03*
Y413D03*
X-2158Y213D03*
Y313D03*
Y413D03*
X561Y-1016D03*
Y-1116D03*
Y-1216D03*
X486Y-1066D03*
Y-1166D03*
Y-1266D03*
X711Y-1016D03*
Y-1116D03*
Y-1216D03*
X636Y-1066D03*
Y-1166D03*
Y-1266D03*
X561Y-716D03*
Y-816D03*
Y-916D03*
X486Y-766D03*
Y-866D03*
Y-966D03*
X711Y-716D03*
Y-816D03*
Y-916D03*
X636Y-766D03*
Y-866D03*
Y-966D03*
X561Y-416D03*
Y-516D03*
Y-616D03*
X486Y-466D03*
Y-566D03*
Y-666D03*
X711Y-416D03*
Y-516D03*
Y-616D03*
X636Y-466D03*
Y-566D03*
Y-666D03*
X561Y-116D03*
Y-216D03*
Y-316D03*
X486Y-166D03*
Y-266D03*
Y-366D03*
X711Y-116D03*
Y-216D03*
Y-316D03*
X636Y-166D03*
Y-266D03*
Y-366D03*
X561Y184D03*
Y84D03*
Y-16D03*
X486Y134D03*
Y34D03*
Y-66D03*
X711Y184D03*
Y84D03*
Y-16D03*
X636Y134D03*
Y34D03*
Y-66D03*
X561Y384D03*
Y284D03*
X486Y334D03*
Y234D03*
X711Y384D03*
Y284D03*
X636Y334D03*
Y234D03*
X1260Y-1270D03*
Y-1170D03*
Y-1070D03*
X1335Y-1220D03*
Y-1120D03*
Y-1020D03*
X1110Y-1270D03*
Y-1170D03*
Y-1070D03*
X1185Y-1220D03*
Y-1120D03*
Y-1020D03*
X1260Y-970D03*
Y-870D03*
Y-770D03*
X1335Y-920D03*
Y-820D03*
Y-720D03*
X1110Y-970D03*
Y-870D03*
Y-770D03*
X1185Y-920D03*
Y-820D03*
Y-720D03*
X1260Y-670D03*
Y-570D03*
Y-470D03*
X1335Y-620D03*
Y-520D03*
Y-420D03*
X1110Y-670D03*
Y-570D03*
Y-470D03*
X1185Y-620D03*
Y-520D03*
Y-420D03*
X1260Y-370D03*
Y-270D03*
Y-170D03*
X1335Y-320D03*
Y-220D03*
Y-120D03*
X1110Y-370D03*
Y-270D03*
Y-170D03*
X1185Y-320D03*
Y-220D03*
Y-120D03*
X1260Y-70D03*
Y30D03*
Y130D03*
X1335Y-20D03*
Y80D03*
Y180D03*
X1110Y-70D03*
Y30D03*
Y130D03*
X1185Y-20D03*
Y80D03*
Y180D03*
X1260Y230D03*
Y330D03*
X1335Y280D03*
Y380D03*
X1110Y230D03*
Y330D03*
X1185Y280D03*
Y380D03*
X4193Y-1270D03*
Y-1170D03*
Y-1070D03*
X4118Y-1220D03*
Y-1120D03*
Y-1020D03*
X4343Y-1270D03*
Y-1170D03*
Y-1070D03*
X4268Y-1220D03*
Y-1120D03*
Y-1020D03*
X4193Y-970D03*
Y-870D03*
Y-770D03*
X4118Y-920D03*
Y-820D03*
Y-720D03*
X4343Y-970D03*
Y-870D03*
Y-770D03*
X4268Y-920D03*
Y-820D03*
Y-720D03*
X4193Y-670D03*
Y-570D03*
Y-470D03*
X4118Y-620D03*
Y-520D03*
Y-420D03*
X4343Y-670D03*
Y-570D03*
Y-470D03*
X4268Y-620D03*
Y-520D03*
Y-420D03*
X4193Y-370D03*
Y-270D03*
Y-170D03*
X4118Y-320D03*
Y-220D03*
Y-120D03*
X4343Y-370D03*
Y-270D03*
Y-170D03*
X4268Y-320D03*
Y-220D03*
Y-120D03*
X4193Y-70D03*
Y30D03*
Y130D03*
X4118Y-20D03*
Y80D03*
Y180D03*
X4343Y-70D03*
Y30D03*
Y130D03*
X4268Y-20D03*
Y80D03*
Y180D03*
X4193Y230D03*
Y330D03*
X4118Y280D03*
Y380D03*
X4343Y230D03*
Y330D03*
X4268Y280D03*
Y380D03*
G54D13*
X-5079Y748D03*
X-4606Y-1142D03*
X-2874Y-1122D03*
X-2677Y748D03*
G54D18*
X1911Y-120D03*
X1711D03*
Y80D03*
X1911D03*
Y215D03*
X1711D03*
Y415D03*
X1911D03*
Y550D03*
X1711D03*
Y750D03*
X1911D03*
X3446Y-435D03*
X3246D03*
X3446Y-100D03*
X3246D03*
Y-235D03*
X3446D03*
X3246Y100D03*
X3446D03*
X3620Y-435D03*
Y-100D03*
Y-235D03*
Y100D03*
Y274D03*
Y474D03*
Y628D03*
Y828D03*
X3820Y-435D03*
Y-100D03*
Y-235D03*
Y100D03*
Y274D03*
Y474D03*
Y628D03*
Y828D03*
G54D12*
X-5030Y128D03*
Y325D03*
Y522D03*
X-472Y-1407D03*
X-276D03*
X-79D03*
X2559Y679D03*
X2362D03*
X2756D03*
%LPC*%
G75*
G54D20*
G01X-5222Y-516D02*
X-5197Y-541D01*
G01D02*
X-5171Y-567D01*
G01X-5222D02*
X-5197Y-541D01*
G01D02*
X-5171Y-516D01*
G01X-4750Y94D02*
X-4724Y69D01*
G01D02*
X-4699Y43D01*
G01X-4750D02*
X-4724Y69D01*
G01D02*
X-4699Y94D01*
G01X-4651Y-437D02*
X-4626Y-463D01*
G01D02*
X-4600Y-488D01*
G01X-4651D02*
X-4626Y-463D01*
G01D02*
X-4600Y-437D01*
G01X-4651Y-162D02*
X-4626Y-187D01*
G01D02*
X-4600Y-213D01*
G01X-4651D02*
X-4626Y-187D01*
G01D02*
X-4600Y-162D01*
G01X-4543Y301D02*
X-4518Y276D01*
G01D02*
X-4492Y250D01*
G01X-4543D02*
X-4518Y276D01*
G01D02*
X-4492Y301D01*
G01X-4189Y537D02*
X-4163Y512D01*
G01D02*
X-4138Y486D01*
G01X-4189D02*
X-4163Y512D01*
G01D02*
X-4138Y537D01*
G01X-3520Y-289D02*
X-3494Y-315D01*
G01D02*
X-3469Y-340D01*
G01X-3520D02*
X-3494Y-315D01*
G01D02*
X-3469Y-289D01*
G01X-3362Y-457D02*
X-3337Y-482D01*
G01D02*
X-3311Y-508D01*
G01X-3362D02*
X-3337Y-482D01*
G01D02*
X-3311Y-457D01*
G01X-3205Y-289D02*
X-3179Y-315D01*
G01D02*
X-3154Y-340D01*
G01X-3205D02*
X-3179Y-315D01*
G01D02*
X-3154Y-289D01*
G01X-3362Y-122D02*
X-3337Y-148D01*
G01D02*
X-3311Y-173D01*
G01X-3362D02*
X-3337Y-148D01*
G01D02*
X-3311Y-122D01*
G01X-1591Y36D02*
X-1565Y61D01*
G01X-1616Y10D02*
X-1591Y36D01*
G01D02*
X-1565Y10D01*
G01X-1616Y61D02*
X-1591Y36D01*
G01X-1601Y469D02*
X-1575Y443D01*
G01X-1626D02*
X-1601Y469D01*
G01X-1616Y278D02*
X-1591Y252D01*
G01D02*
X-1565Y227D01*
G01X-1616D02*
X-1591Y252D01*
G01D02*
X-1565Y278D01*
G01X-1626Y494D02*
X-1601Y469D01*
G01D02*
X-1575Y494D01*
G01X-1103Y-1395D02*
X-1058D01*
G01D02*
X-1013D01*
G01X-1058Y-1440D02*
Y-1395D01*
G01D02*
Y-1350D01*
G01X-774Y266D02*
Y309D01*
G01X-817D02*
X-774D01*
G01D02*
X-732D01*
G01X-774D02*
Y351D01*
G01X-705Y-774D02*
X-679Y-748D01*
G01X-705Y-723D02*
X-679Y-748D01*
G01D02*
X-654Y-774D01*
G01X-679Y-748D02*
X-654Y-723D01*
G01X-714Y53D02*
X-689Y79D01*
G01X-714Y104D02*
X-689Y79D01*
G01D02*
X-663Y53D01*
G01X-689Y79D02*
X-663Y104D01*
G01X1510Y-1407D02*
X1535Y-1432D01*
G01D02*
X1561Y-1458D01*
G01X1510D02*
X1535Y-1432D01*
G01D02*
X1561Y-1407D01*
G01X1579Y-1551D02*
X1614Y-1516D01*
G01X1579Y-1480D02*
X1614Y-1516D01*
G01D02*
X1650Y-1551D01*
G01X1614Y-1516D02*
X1650Y-1480D01*
G01X1510Y-1285D02*
X1535Y-1260D01*
G01D02*
X1561Y-1234D01*
G01X1510D02*
X1535Y-1260D01*
G01D02*
X1561Y-1285D01*
G01X1702Y-1157D02*
X1727Y-1132D01*
G01D02*
X1753Y-1157D01*
G01X1727Y-1132D02*
X1753Y-1106D01*
G01X1702D02*
X1727Y-1132D01*
G01X1722Y-1314D02*
X1748Y-1288D01*
G01X1697Y-1339D02*
X1722Y-1314D01*
G01D02*
X1748Y-1339D01*
G01X1697Y-1288D02*
X1722Y-1314D01*
G01X1919Y-1132D02*
X1945Y-1106D01*
G01X1894Y-1157D02*
X1919Y-1132D01*
G01D02*
X1945Y-1157D01*
G01X1894Y-1106D02*
X1919Y-1132D01*
G01X1909Y-1304D02*
X1935Y-1279D01*
G01X1884D02*
X1909Y-1304D01*
G01D02*
X1935Y-1330D01*
G01X1884D02*
X1909Y-1304D01*
G01X1777Y-763D02*
X1812Y-727D01*
G01X1741Y-798D02*
X1777Y-763D01*
G01D02*
X1812Y-798D01*
G01X1741Y-727D02*
X1777Y-763D01*
G01X1973Y-1156D02*
X1999Y-1182D01*
G01X1948Y-1131D02*
X1973Y-1156D01*
G01X1948Y-1182D02*
X1973Y-1156D01*
G01D02*
X1999Y-1131D01*
G01X1953Y-944D02*
X1978Y-969D01*
G01D02*
X2004Y-995D01*
G01X1953D02*
X1978Y-969D01*
G01D02*
X2004Y-944D01*
G01X2125Y-995D02*
X2151Y-969D01*
G01D02*
X2176Y-944D01*
G01X2125D02*
X2151Y-969D01*
G01D02*
X2176Y-995D01*
G01X2317Y-1480D02*
X2352Y-1516D01*
G01D02*
X2388Y-1551D01*
G01X2317D02*
X2352Y-1516D01*
G01D02*
X2388Y-1480D01*
G01X2307Y-1052D02*
X2333Y-1078D01*
G01D02*
X2358Y-1103D01*
G01X2307D02*
X2333Y-1078D01*
G01D02*
X2358Y-1052D01*
G01X2258Y-1092D02*
X2283Y-1117D01*
G01D02*
X2309Y-1143D01*
G01X2283Y-1117D02*
X2309Y-1092D01*
G01X2258Y-1143D02*
X2283Y-1117D01*
G01X2425Y-885D02*
X2451Y-910D01*
G01D02*
X2476Y-936D01*
G01X2425D02*
X2451Y-910D01*
G01D02*
X2476Y-885D01*
G01X2519Y-752D02*
X2544Y-778D01*
G01X2519Y-803D02*
X2544Y-778D01*
G01X2760Y-1044D02*
X2785Y-1019D01*
G01D02*
X2811Y-1044D01*
G01X2603Y-1024D02*
X2629Y-1049D01*
G01X2578D02*
X2603Y-1024D01*
G01X2760Y-993D02*
X2785Y-1019D01*
G01D02*
X2811Y-993D01*
G01X2603Y-1024D02*
X2629Y-998D01*
G01X2578D02*
X2603Y-1024D01*
G01X2544Y-778D02*
X2570Y-803D01*
G01X2544Y-778D02*
X2570Y-752D01*
G01X2760Y-796D02*
X2785Y-822D01*
G01D02*
X2811Y-847D01*
G01X2760D02*
X2785Y-822D01*
G01D02*
X2811Y-796D01*
G01X2824Y-398D02*
X2869D01*
G01D02*
X2914D01*
G01X2869Y-443D02*
Y-398D01*
G01D02*
Y-353D01*
G01X3419Y567D02*
X3455Y531D01*
G01X3419Y496D02*
X3455Y531D01*
G01D02*
X3490Y567D01*
G01X3455Y531D02*
X3490Y496D01*
M02*
