G04 ================== begin FILE IDENTIFICATION RECORD ==================*
G04 Layout Name:  E:\qpll-only-UOB-HEP-PC005A\worklib\qpll\physical\pc005-placed-e.brd*
G04 Film Name:    BOTTOM*
G04 File Format:  Gerber RS274X*
G04 File Origin:  -unreleased*
G04 Origin Date:  Mon Jun 30 09:44:20 2003*
G04 ================== end FILE IDENTIFICATION RECORD ====================*
%FSLAX53Y53*MOIN*%
%IR0*IPPOS*OFA0.00000B0.00000*MIA0B0*SFA1.00000B1.00000*%
%ADD18R,.05X.028*%
%ADD17R,.028X.05*%
%ADD11C,.036*%
%ADD10C,.06*%
%ADD13C,.076*%
%ADD16C,.064*%
%ADD14C,.096*%
%ADD12R,.076X.076*%
%ADD15R,.064X.064*%
%ADD19C,.007874*%
%ADD20C,.005906*%
%ADD21C,.009843*%
%ADD22C,.01378*%
%ADD23C,.031496*%
G75*
%LPD*%
G75*
G36*
G01X-3472Y189D02*
Y235D01*
X-3469Y273D01*
X-3461Y277D01*
X-3449Y275D01*
X-3438Y270D01*
Y252D01*
X-3437Y240D01*
X-3436Y191D01*
X-3472Y185D01*
X-3472Y189D01*
G37*
G36*
G01X-3387Y256D02*
X-3388Y288D01*
X-3387Y301D01*
X-3382Y280D01*
X-3381Y256D01*
X-3387Y256D01*
G37*
G36*
G01X-3383Y211D02*
X-3382Y231D01*
X-3379Y230D01*
X-3378Y211D01*
X-3383Y211D01*
G37*
G54D10*
X-5000Y-1378D03*
X-5100Y-1578D03*
Y-1278D03*
X-4900Y-1378D03*
X-4800Y-1578D03*
Y-1278D03*
X-4391Y-1578D03*
Y-1278D03*
X-4291Y-1378D03*
X-4191D03*
X-4091Y-1578D03*
Y-1278D03*
X-3780Y-1378D03*
X-3880Y-1578D03*
Y-1278D03*
X-3680Y-1378D03*
X-3580Y-1578D03*
Y-1278D03*
X-3268Y-1378D03*
X-3168D03*
X-3368Y-1578D03*
Y-1278D03*
X-3068Y-1578D03*
Y-1278D03*
G54D20*
G01X-4498Y-512D02*
Y-809D01*
X-4414Y-893D01*
G01Y-693D02*
X-4409D01*
X-4401Y-684D01*
X-4001D01*
X-3967Y-650D01*
Y-374D01*
X-4016Y-325D01*
G01X-4414Y-593D02*
X-4409D01*
X-4402Y-600D01*
X-4104D01*
X-4085Y-581D01*
Y-512D01*
G01X-4428Y-69D02*
Y-128D01*
X-4400Y-156D01*
Y-305D01*
X-4272Y-433D01*
Y-466D01*
X-4271Y-466D01*
G01X-4173Y-516D02*
Y-463D01*
X-4189Y-447D01*
Y-423D01*
G01X-4119Y-344D02*
X-4094D01*
G01X-4119Y-423D02*
X-4094D01*
G01X-4189Y-344D02*
Y-327D01*
X-4177Y-315D01*
X-4163D01*
X-4154Y-305D01*
Y-246D01*
G01X-3671Y-350D02*
X-3677Y-344D01*
X-3770D01*
X-3805Y-379D01*
Y-394D01*
G01X-3671Y-468D02*
Y-512D01*
G01X-3735Y-394D02*
Y-477D01*
X-3740Y-482D01*
G01X-3504Y-413D02*
X-3656D01*
X-3671Y-398D01*
G01Y-350D02*
Y-398D01*
G01X-3494Y-226D02*
X-3514Y-246D01*
X-3637D01*
X-3671Y-280D01*
G01X-3649Y116D02*
X-2874Y300D01*
X-2859Y302D01*
X-2849Y304D01*
G01X-3428Y389D02*
G02X-3657Y252I-822J1116D01*
G01X-3466Y389D02*
G02X-3681Y272I-675J986D01*
G01X-3474Y185D02*
G02X-3470Y274I2201J-44D01*
G01X-3470Y275D02*
G02X-3437Y271I13J-38D01*
G01X-3469Y291D02*
G02X-3438Y289I14J-39D01*
G01X-3463Y339D02*
G03X-3470Y292I165J-49D01*
G01X-3474Y185D02*
X-3436Y191D01*
G01X-3352Y220D02*
X-2952Y300D01*
G01X-3370Y357D02*
G03X-3069Y275I287J460D01*
G01X-3373Y380D02*
G03X-3065Y281I292J380D01*
G01X-3436Y269D02*
G02X-3435Y176I-4529J-85D01*
G01X-3441Y338D02*
G02X-3437Y290I-210J-45D01*
G01X-3463Y341D02*
G02X-3458Y353I49J-14D01*
G01X-3443Y338D02*
G03X-3446Y352I-28J0D01*
G01X-3448Y352D02*
G03X-3456I-4J-2D01*
G01X-3380Y256D02*
G03X-3387Y320I-474J-22D01*
G01Y254D02*
G02X-3389Y317I615J47D01*
G01X-3378Y209D02*
G03X-3381Y241I-63J8D01*
G01X-3384Y207D02*
G02X-3383Y236I6376J-160D01*
G01X-3387Y254D02*
X-3381Y255D01*
G01X-3385Y208D02*
X-3379Y208D01*
G01X-2898Y311D02*
X-2869Y317D01*
G01X-3071Y276D02*
G03X-2915Y367I-18J209D01*
G01X-3066Y282D02*
G03X-2939Y367I-26J177D01*
G01X-2899Y294D02*
G03X-2903Y348I-292J6D01*
G01X-2904Y345D02*
G03X-2911Y359I-12J3D01*
G01X-2903Y345D02*
G03X-2859Y303I48J6D01*
G01X-2932Y325D02*
G03Y299I106J-13D01*
G01X-2933Y299D02*
X-2939Y296D01*
X-2953Y297D01*
G01X-2922Y295D02*
X-2902Y296D01*
G01X-2913Y375D02*
Y359D01*
X-2912Y360D01*
X-2940Y359D01*
Y375D01*
X-2913Y375D01*
G01Y374D02*
X-2906D01*
X-2906Y359D01*
G01X-2922Y295D02*
G03X-2922Y325I-135J11D01*
G01X-2943Y296D02*
G02X-2938Y326I81J4D01*
G01X-2943Y357D02*
G03X-2954Y297I174J-64D01*
G01X-2914Y359D02*
G02X-2906Y294I-828J-138D01*
G01X-2924Y326D02*
X-2937D01*
G01X-2936Y333D02*
X-2922Y332D01*
G01X-2922Y332D02*
G03X-2924Y352I-78J2D01*
G01X-2929Y355D02*
G03X-2936Y341I11J-14D01*
G54D11*
X-5103Y-492D03*
X-5197Y-610D03*
X-5020Y-305D03*
X-4823Y-797D03*
X-4695Y-876D03*
Y-778D03*
X-4705Y-984D03*
X-4695Y-679D03*
X-4872Y-492D03*
X-4941Y-305D03*
X-4724Y69D03*
X-4675Y226D03*
X-4774Y610D03*
X-4498Y-512D03*
X-4626Y-463D03*
X-4547D03*
X-4626Y-187D03*
X-4547D03*
X-4409Y167D03*
Y69D03*
X-4518Y276D03*
X-4360Y325D03*
X-4449Y807D03*
X-4193Y-827D03*
X-4271Y-466D03*
X-4085Y-512D03*
X-4094Y-423D03*
X-4173Y-516D03*
X-4321Y-482D03*
X-4311Y-640D03*
X-4094Y-344D03*
X-4154Y-246D03*
X-4321Y98D03*
X-4163Y512D03*
X-4016Y-325D03*
X-3809Y-207D03*
X-4035Y-246D03*
X-4016Y-404D03*
X-3799Y-20D03*
X-3927Y226D03*
X-3671Y-512D03*
X-3740Y-482D03*
X-3504Y-413D03*
X-3494Y-226D03*
Y-315D03*
X-3553Y-128D03*
X-3386Y-1093D03*
X-3337Y-482D03*
X-3179Y-315D03*
X-3337Y-148D03*
Y-315D03*
X-2874Y-1348D03*
X-3041Y-1093D03*
X-2894Y-315D03*
X-2598Y-1348D03*
G54D21*
G01X-3498Y191D02*
G02X-3484Y354I2019J-83D01*
G01Y353D02*
G02X-3480Y379I95J-3D01*
G01X-3374Y379D02*
X-3372Y417D01*
X-3420Y416D01*
X-3480Y414D01*
X-3479Y379D01*
X-3418Y382D01*
X-3372Y383D01*
G01X-3497Y191D02*
X-3406Y172D01*
G01X-3350Y186D02*
G03X-3370Y358I-2092J-148D01*
G01X-3369Y356D02*
G02X-3372Y381I229J45D01*
G01X-3407Y172D02*
G03X-3414Y355I-2464J-9D01*
G01X-3418Y382D02*
G02X-3414Y356I-124J-30D01*
G01X-3419Y381D02*
X-3419Y415D01*
G54D12*
X-5030Y128D03*
G54D22*
G01X-3450Y-315D02*
X-3494D01*
G01X-3380D02*
X-3337D01*
G54D13*
X-5030Y325D03*
Y522D03*
G54D23*
G01X-4675Y226D02*
X-3927D01*
G54D14*
X-5079Y748D03*
X-4606Y-1142D03*
X-2874D03*
X-2677Y748D03*
G54D15*
X-4414Y-1093D03*
X-4528Y-69D03*
G54D16*
X-4414Y-993D03*
Y-893D03*
Y-793D03*
Y-693D03*
Y-593D03*
Y-493D03*
Y-393D03*
X-4428Y-69D03*
X-2836Y-1675D03*
Y-1475D03*
X-2636Y-1675D03*
X-2736Y-1575D03*
X-2636Y-1475D03*
G54D17*
X-4189Y-423D03*
X-4119D03*
X-4189Y-344D03*
X-4119D03*
X-3805Y-394D03*
X-3735D03*
X-3380Y-315D03*
X-3450D03*
G54D18*
X-3671Y-468D03*
Y-398D03*
Y-280D03*
Y-350D03*
G54D19*
G01X-3497Y190D02*
X-3680Y154D01*
G01X-3406Y174D02*
X-3654Y114D01*
G01X-2594Y259D02*
X-2694D01*
X-2622Y213D01*
Y275D01*
M02*
