G04 ================== begin FILE IDENTIFICATION RECORD ==================*
G04 Layout Name:  E:\qpll-only-UOB-HEP-PC005A\worklib\qpll\physical\pc005-placed-e.brd*
G04 Film Name:    bottomassembly*
G04 File Format:  Gerber RS274X*
G04 File Origin:  -unreleased*
G04 Origin Date:  Mon Jun 30 09:44:21 2003*
G04 ================== end FILE IDENTIFICATION RECORD ====================*
%FSLAX53Y53*MOIN*%
%IR0*IPPOS*OFA0.00000B0.00000*MIA0B0*SFA1.00000B1.00000*%
%ADD10C,.009843*%
G75*
%LPD*%
G75*
G54D10*
G01X-5295Y945D02*
Y-1791D01*
X-2461D01*
Y945D01*
X-5295D01*
G01X-4154Y-458D02*
X-4214D01*
Y-388D01*
X-4094D01*
Y-458D01*
X-4154D01*
G01X-4191Y-514D02*
X-4194Y-517D01*
X-4199Y-518D01*
X-4204D01*
X-4210Y-516D01*
X-4214Y-512D01*
X-4217Y-507D01*
X-4220Y-498D01*
X-4220Y-491D01*
X-4219Y-483D01*
X-4217Y-478D01*
X-4213Y-473D01*
X-4209Y-470D01*
X-4205Y-468D01*
X-4200D01*
X-4196Y-470D01*
X-4192Y-472D01*
X-4189Y-476D01*
G01X-4154Y-468D02*
Y-518D01*
X-4161Y-508D01*
G01Y-468D02*
X-4146D01*
G01X-4095D02*
Y-518D01*
X-4118Y-482D01*
X-4087D01*
G01X-4154Y-379D02*
X-4214D01*
Y-309D01*
X-4094D01*
Y-379D01*
X-4154D01*
G01X-4191Y-435D02*
X-4194Y-438D01*
X-4199Y-439D01*
X-4204D01*
X-4210Y-437D01*
X-4214Y-433D01*
X-4217Y-428D01*
X-4220Y-419D01*
X-4220Y-412D01*
X-4219Y-404D01*
X-4217Y-399D01*
X-4213Y-394D01*
X-4209Y-391D01*
X-4205Y-389D01*
X-4200D01*
X-4196Y-391D01*
X-4192Y-394D01*
X-4189Y-397D01*
G01X-4154Y-389D02*
Y-439D01*
X-4161Y-429D01*
G01Y-389D02*
X-4146D01*
G01X-4116Y-397D02*
X-4113Y-393D01*
X-4108Y-390D01*
X-4103Y-389D01*
X-4097Y-391D01*
X-4092Y-394D01*
X-4089Y-400D01*
X-4089Y-407D01*
X-4090Y-414D01*
X-4093Y-418D01*
X-4097Y-421D01*
X-4102Y-422D01*
X-4106Y-421D01*
X-4112Y-418D01*
X-4110Y-439D01*
X-4093D01*
G01X-3770Y-359D02*
X-3710D01*
Y-429D01*
X-3830D01*
Y-359D01*
X-3770D01*
G01X-3733Y-303D02*
X-3729Y-300D01*
X-3724Y-299D01*
X-3719D01*
X-3714Y-301D01*
X-3709Y-305D01*
X-3706Y-310D01*
X-3703Y-319D01*
X-3703Y-326D01*
X-3704Y-334D01*
X-3706Y-339D01*
X-3710Y-344D01*
X-3714Y-347D01*
X-3719Y-349D01*
X-3723D01*
X-3728Y-347D01*
X-3731Y-345D01*
X-3735Y-341D01*
G01X-3770Y-349D02*
Y-299D01*
X-3762Y-309D01*
G01Y-349D02*
X-3777D01*
G01X-3819D02*
X-3821Y-338D01*
X-3823Y-329D01*
X-3825Y-320D01*
X-3828Y-311D01*
X-3833Y-299D01*
X-3808D01*
G01X-3636Y-433D02*
Y-493D01*
X-3706D01*
Y-373D01*
X-3636D01*
Y-433D01*
G01X-3626Y-497D02*
X-3576D01*
Y-481D01*
X-3579Y-476D01*
X-3582Y-473D01*
X-3589Y-471D01*
X-3595Y-473D01*
X-3600Y-476D01*
X-3602Y-481D01*
Y-497D01*
G01Y-481D02*
X-3626Y-471D01*
G01Y-433D02*
X-3576D01*
X-3586Y-441D01*
G01X-3626D02*
Y-425D01*
G01Y-382D02*
X-3625Y-378D01*
X-3623Y-373D01*
X-3619Y-369D01*
X-3613Y-368D01*
X-3607Y-369D01*
X-3602Y-373D01*
X-3600Y-379D01*
Y-385D01*
X-3598Y-389D01*
X-3594Y-392D01*
X-3588Y-393D01*
X-3582Y-392D01*
X-3578Y-387D01*
X-3576Y-382D01*
X-3578Y-377D01*
X-3582Y-373D01*
X-3588Y-371D01*
X-3594Y-372D01*
X-3598Y-375D01*
X-3600Y-379D01*
Y-385D01*
X-3602Y-391D01*
X-3607Y-395D01*
X-3613Y-396D01*
X-3619Y-395D01*
X-3623Y-392D01*
X-3625Y-387D01*
X-3626Y-382D01*
G01X-3415Y-280D02*
X-3355D01*
Y-350D01*
X-3475D01*
Y-280D01*
X-3415D01*
G01X-3378Y-224D02*
X-3374Y-222D01*
X-3370Y-220D01*
X-3365D01*
X-3359Y-222D01*
X-3355Y-227D01*
X-3352Y-232D01*
X-3349Y-240D01*
X-3349Y-247D01*
X-3350Y-255D01*
X-3352Y-260D01*
X-3355Y-265D01*
X-3360Y-268D01*
X-3364Y-270D01*
X-3369D01*
X-3373Y-268D01*
X-3377Y-266D01*
X-3380Y-262D01*
G01X-3403Y-228D02*
X-3407Y-223D01*
X-3412Y-221D01*
X-3417Y-220D01*
X-3423Y-222D01*
X-3427Y-226D01*
X-3429Y-231D01*
X-3428Y-236D01*
X-3425Y-240D01*
X-3413Y-248D01*
X-3407Y-254D01*
X-3403Y-262D01*
X-3402Y-270D01*
X-3429D01*
G01X-3466Y-220D02*
X-3461Y-222D01*
X-3457Y-226D01*
X-3455Y-231D01*
X-3453Y-237D01*
X-3452Y-245D01*
X-3453Y-252D01*
X-3455Y-259D01*
X-3457Y-264D01*
X-3461Y-268D01*
X-3466Y-270D01*
X-3471Y-268D01*
X-3475Y-264D01*
X-3478Y-259D01*
X-3480Y-252D01*
X-3480Y-245D01*
X-3480Y-237D01*
X-3478Y-231D01*
X-3475Y-226D01*
X-3471Y-222D01*
X-3466Y-220D01*
G01X-3706Y-315D02*
Y-255D01*
X-3636D01*
Y-375D01*
X-3706D01*
Y-315D01*
G01X-3716Y-251D02*
X-3766D01*
Y-267D01*
X-3764Y-272D01*
X-3760Y-275D01*
X-3754Y-277D01*
X-3747Y-275D01*
X-3743Y-272D01*
X-3740Y-267D01*
Y-251D01*
G01Y-267D02*
X-3716Y-277D01*
G01Y-315D02*
X-3766D01*
X-3756Y-307D01*
G01X-3716D02*
Y-323D01*
G01Y-365D02*
X-3727Y-366D01*
X-3736Y-368D01*
X-3745Y-370D01*
X-3754Y-374D01*
X-3766Y-379D01*
Y-353D01*
M02*
