G04 ================== begin FILE IDENTIFICATION RECORD ==================*
G04 Layout Name:  E:\qpll-only-UOB-HEP-PC005A\worklib\qpll\physical\pc005-placed-e.brd*
G04 Film Name:    bottomsilk*
G04 File Format:  Gerber RS274X*
G04 File Origin:  -unreleased*
G04 Origin Date:  Mon Jun 30 09:44:20 2003*
G04 ================== end FILE IDENTIFICATION RECORD ====================*
%FSLAX53Y53*MOIN*%
%IR0*IPPOS*OFA0.00000B0.00000*MIA0B0*SFA1.00000B1.00000*%
%ADD10C,.007874*%
G75*
%LPD*%
G75*
G54D10*
G01X-5175Y-1603D02*
Y-1653D01*
G01X-4925Y-1678D02*
X-4975D01*
G01X-5025D02*
X-5075D01*
G01X-5175D02*
X-5125D01*
G01X-5175Y-1503D02*
Y-1553D01*
G01Y-1403D02*
Y-1453D01*
G01Y-1303D02*
Y-1353D01*
G01X-5025Y-1178D02*
X-5075D01*
G01X-4925D02*
X-4975D01*
G01X-5175Y-1203D02*
Y-1253D01*
G01X-5125Y-1178D02*
X-5175D01*
G01X-5069Y49D02*
X-5108D01*
Y89D01*
G01X-4990Y49D02*
X-4951D01*
Y89D01*
G01X-5108Y364D02*
Y482D01*
G01Y167D02*
Y285D01*
G01X-5154Y389D02*
X-5150Y384D01*
X-5148Y378D01*
Y373D01*
X-5150Y368D01*
X-5154Y364D01*
X-5160Y362D01*
X-5166Y364D01*
X-5171Y367D01*
X-5174Y373D01*
X-5176Y380D01*
X-5179Y385D01*
X-5185Y387D01*
X-5191Y385D01*
X-5195Y382D01*
X-5198Y378D01*
Y373D01*
X-5196Y369D01*
X-5192Y365D01*
G01X-5148Y339D02*
X-5198D01*
G01Y315D02*
X-5167Y339D01*
G01X-5148Y311D02*
X-5181Y328D01*
G01X-5148Y274D02*
X-5198D01*
X-5188Y281D01*
G01X-5148D02*
Y266D01*
G01X-5108Y561D02*
Y600D01*
X-5069D01*
G01X-4951Y561D02*
Y600D01*
X-4990D01*
G01X-4725Y-1603D02*
Y-1653D01*
G01X-4825Y-1678D02*
X-4875D01*
G01X-4775D02*
X-4725D01*
G01Y-1503D02*
Y-1553D01*
G01Y-1403D02*
Y-1453D01*
G01Y-1303D02*
Y-1353D01*
G01X-4692Y-1507D02*
X-4697Y-1501D01*
X-4700Y-1494D01*
Y-1488D01*
X-4697Y-1482D01*
X-4692Y-1477D01*
X-4684Y-1475D01*
X-4677Y-1476D01*
X-4671Y-1480D01*
X-4666Y-1487D01*
X-4664Y-1496D01*
X-4660Y-1502D01*
X-4653Y-1504D01*
X-4645Y-1503D01*
X-4640Y-1499D01*
X-4637Y-1493D01*
Y-1488D01*
X-4639Y-1482D01*
X-4644Y-1478D01*
G01X-4700Y-1445D02*
X-4637D01*
G01Y-1415D02*
X-4676Y-1445D01*
G01X-4700Y-1411D02*
X-4658Y-1432D01*
G01X-4648Y-1380D02*
X-4641Y-1375D01*
X-4638Y-1370D01*
X-4637Y-1363D01*
X-4639Y-1356D01*
X-4644Y-1350D01*
X-4651Y-1349D01*
X-4657Y-1349D01*
X-4662Y-1352D01*
X-4673Y-1368D01*
X-4680Y-1375D01*
X-4691Y-1380D01*
X-4700Y-1381D01*
Y-1349D01*
G01X-4725Y-1203D02*
Y-1253D01*
G01X-4825Y-1178D02*
X-4875D01*
G01X-4725D02*
X-4775D01*
G01X-4951Y364D02*
Y482D01*
G01Y167D02*
Y285D01*
G01X-2860Y617D02*
X-2865Y613D01*
X-2871Y610D01*
X-2876D01*
X-2881Y613D01*
X-2885Y617D01*
X-2887Y623D01*
X-2885Y629D01*
X-2882Y634D01*
X-2876Y637D01*
X-2869Y639D01*
X-2864Y642D01*
X-2863Y648D01*
X-2864Y654D01*
X-2867Y658D01*
X-2871Y660D01*
X-2876D01*
X-2880Y659D01*
X-2884Y654D01*
G01X-2934Y639D02*
X-2930Y643D01*
X-2926Y644D01*
X-2921Y642D01*
X-2917Y639D01*
X-2915Y633D01*
X-2914Y627D01*
X-2915Y621D01*
X-2917Y616D01*
X-2921Y612D01*
X-2926Y610D01*
X-2931Y612D01*
X-2934Y615D01*
G01X-2965Y610D02*
Y660D01*
G01Y636D02*
X-2968Y640D01*
X-2971Y643D01*
X-2976Y644D01*
X-2980Y643D01*
X-2984Y639D01*
X-2986Y634D01*
Y610D01*
G01X-3017Y633D02*
X-3037D01*
X-3035Y639D01*
X-3032Y642D01*
X-3028Y644D01*
X-3023Y643D01*
X-3019Y640D01*
X-3017Y634D01*
X-3016Y629D01*
Y624D01*
X-3017Y619D01*
X-3020Y614D01*
X-3024Y611D01*
X-3028Y610D01*
X-3033Y612D01*
X-3037Y617D01*
G01X-3058Y610D02*
Y644D01*
G01Y634D02*
X-3060Y639D01*
X-3063Y642D01*
X-3068Y644D01*
X-3072Y642D01*
X-3075Y639D01*
X-3077Y634D01*
Y610D01*
G01Y634D02*
X-3079Y639D01*
X-3082Y642D01*
X-3087Y644D01*
X-3091Y642D01*
X-3094Y639D01*
X-3096Y634D01*
Y610D01*
G01X-3140D02*
Y644D01*
G01Y638D02*
X-3137Y641D01*
X-3133Y643D01*
X-3129Y644D01*
X-3125Y642D01*
X-3121Y639D01*
X-3118Y634D01*
X-3117Y627D01*
X-3118Y620D01*
X-3121Y615D01*
X-3125Y612D01*
X-3129Y610D01*
X-3133Y611D01*
X-3137Y614D01*
X-3140Y617D01*
G01X-3179Y660D02*
Y610D01*
G01X-3170Y644D02*
X-3188D01*
G01X-3230D02*
Y610D01*
G01Y657D02*
X-3229Y658D01*
Y659D01*
X-3230Y660D01*
X-3232Y659D01*
Y658D01*
X-3230Y657D01*
G01X-3291Y639D02*
X-3287Y643D01*
X-3283Y644D01*
X-3278Y642D01*
X-3274Y639D01*
X-3272Y633D01*
X-3271Y627D01*
X-3272Y621D01*
X-3274Y616D01*
X-3278Y612D01*
X-3283Y610D01*
X-3288Y612D01*
X-3291Y615D01*
G01X-3332Y609D02*
X-3331Y609D01*
Y611D01*
X-3332Y612D01*
X-3334Y611D01*
Y609D01*
X-3332Y609D01*
G01Y631D02*
X-3331Y632D01*
Y634D01*
X-3332Y634D01*
X-3334Y634D01*
Y632D01*
X-3332Y631D01*
G01X-3420Y610D02*
Y660D01*
X-3433D01*
X-3438Y658D01*
X-3442Y654D01*
X-3445Y649D01*
X-3448Y644D01*
X-3448Y635D01*
X-3448Y627D01*
X-3445Y621D01*
X-3442Y616D01*
X-3438Y613D01*
X-3433Y610D01*
X-3420D01*
G01X-3497D02*
Y644D01*
G01Y638D02*
X-3494Y641D01*
X-3490Y643D01*
X-3486Y644D01*
X-3482Y642D01*
X-3478Y639D01*
X-3475Y634D01*
X-3474Y627D01*
X-3475Y620D01*
X-3478Y615D01*
X-3482Y612D01*
X-3486Y610D01*
X-3490Y611D01*
X-3494Y614D01*
X-3497Y617D01*
G01X-3525Y644D02*
X-3536Y610D01*
X-3548Y644D01*
G01X-3587D02*
Y610D01*
G01Y657D02*
X-3586Y658D01*
Y659D01*
X-3587Y660D01*
X-3589Y659D01*
Y658D01*
X-3587Y657D01*
G01X-3650Y660D02*
Y610D01*
G01Y618D02*
X-3647Y614D01*
X-3643Y611D01*
X-3639Y610D01*
X-3634Y612D01*
X-3630Y616D01*
X-3628Y621D01*
X-3627Y627D01*
X-3628Y633D01*
X-3630Y638D01*
X-3634Y642D01*
X-3639Y644D01*
X-3643Y643D01*
X-3647Y641D01*
X-3650Y638D01*
G01X-3689Y609D02*
X-3688Y609D01*
Y611D01*
X-3689Y612D01*
X-3691Y611D01*
Y609D01*
X-3689Y609D01*
G01X-3754Y656D02*
X-3750Y659D01*
X-3746Y660D01*
X-3741D01*
X-3735Y658D01*
X-3731Y654D01*
X-3728Y649D01*
X-3725Y640D01*
X-3724Y633D01*
X-3726Y625D01*
X-3728Y620D01*
X-3731Y615D01*
X-3736Y612D01*
X-3740Y610D01*
X-3745D01*
X-3749Y612D01*
X-3753Y614D01*
X-3756Y618D01*
G01X-3781Y644D02*
Y620D01*
X-3783Y614D01*
X-3787Y611D01*
X-3791Y610D01*
X-3796Y611D01*
X-3800Y614D01*
X-3802Y620D01*
G01Y610D02*
Y644D01*
G01X-3833Y616D02*
X-3836Y613D01*
X-3840Y610D01*
X-3844D01*
X-3848Y612D01*
X-3851Y614D01*
X-3852Y618D01*
X-3851Y623D01*
X-3849Y625D01*
X-3837Y630D01*
X-3835Y636D01*
X-3836Y640D01*
X-3839Y643D01*
X-3842Y644D01*
X-3846Y643D01*
X-3850Y640D01*
G01X-3884Y616D02*
X-3887Y613D01*
X-3891Y610D01*
X-3895D01*
X-3899Y612D01*
X-3902Y614D01*
X-3903Y618D01*
X-3902Y623D01*
X-3900Y625D01*
X-3888Y630D01*
X-3886Y636D01*
X-3887Y640D01*
X-3890Y643D01*
X-3893Y644D01*
X-3897Y643D01*
X-3901Y640D01*
G01X-3956Y610D02*
Y644D01*
G01Y638D02*
X-3953Y641D01*
X-3949Y643D01*
X-3945Y644D01*
X-3941Y642D01*
X-3937Y639D01*
X-3934Y634D01*
X-3933Y627D01*
X-3934Y620D01*
X-3937Y615D01*
X-3941Y612D01*
X-3945Y610D01*
X-3949Y611D01*
X-3953Y614D01*
X-3956Y617D01*
G01X-3985Y610D02*
Y644D01*
G01Y635D02*
X-3987Y639D01*
X-3991Y643D01*
X-3996Y644D01*
X-4000Y643D01*
X-4004Y639D01*
X-4006Y634D01*
Y610D01*
G01X-4037Y616D02*
X-4040Y613D01*
X-4044Y610D01*
X-4048D01*
X-4052Y612D01*
X-4055Y614D01*
X-4056Y618D01*
X-4055Y623D01*
X-4053Y625D01*
X-4041Y630D01*
X-4039Y636D01*
X-4040Y640D01*
X-4043Y643D01*
X-4046Y644D01*
X-4050Y643D01*
X-4054Y640D01*
G01X-4107Y619D02*
X-4100Y610D01*
X-4094D01*
X-4088Y619D01*
Y635D01*
X-4094Y644D01*
X-4100D01*
X-4107Y635D01*
Y619D01*
X-4111Y612D01*
X-4116Y619D01*
Y652D01*
X-4110Y660D01*
X-4085D01*
X-4078Y652D01*
Y602D01*
X-4085Y594D01*
X-4110D01*
X-4116Y602D01*
G01X-4137Y610D02*
Y660D01*
G01Y635D02*
X-4140Y640D01*
X-4144Y643D01*
X-4148Y644D01*
X-4153Y642D01*
X-4157Y639D01*
X-4160Y633D01*
Y626D01*
X-4158Y619D01*
X-4156Y614D01*
X-4151Y611D01*
X-4148Y610D01*
X-4144Y611D01*
X-4140Y614D01*
X-4137Y618D01*
G01X-4190Y610D02*
Y644D01*
G01Y637D02*
X-4194Y640D01*
X-4197Y643D01*
X-4201Y644D01*
X-4204Y643D01*
X-4208Y640D01*
G01X-4250Y644D02*
Y610D01*
G01Y657D02*
X-4249Y658D01*
Y659D01*
X-4250Y660D01*
X-4252Y659D01*
Y658D01*
X-4250Y657D01*
G01X-4292Y616D02*
X-4295Y613D01*
X-4299Y610D01*
X-4303D01*
X-4307Y612D01*
X-4310Y614D01*
X-4311Y618D01*
X-4310Y623D01*
X-4308Y625D01*
X-4296Y630D01*
X-4294Y636D01*
X-4295Y640D01*
X-4298Y643D01*
X-4301Y644D01*
X-4305Y643D01*
X-4309Y640D01*
G01X-4352Y660D02*
Y610D01*
G01X-4343Y644D02*
X-4361D01*
G01X-4403Y610D02*
X-4400Y611D01*
X-4396Y614D01*
X-4393Y620D01*
X-4392Y627D01*
X-4393Y634D01*
X-4396Y639D01*
X-4400Y643D01*
X-4403Y644D01*
X-4407Y643D01*
X-4411Y639D01*
X-4413Y634D01*
X-4414Y627D01*
X-4413Y620D01*
X-4411Y614D01*
X-4407Y611D01*
X-4403Y610D01*
G01X-4454D02*
Y660D01*
G01X-4505Y609D02*
X-4504Y609D01*
Y611D01*
X-4505Y612D01*
X-4507Y611D01*
Y609D01*
X-4505Y609D01*
G01X-4568Y610D02*
Y644D01*
G01Y638D02*
X-4565Y641D01*
X-4561Y643D01*
X-4557Y644D01*
X-4553Y642D01*
X-4549Y639D01*
X-4546Y634D01*
X-4545Y627D01*
X-4546Y620D01*
X-4549Y615D01*
X-4553Y612D01*
X-4557Y610D01*
X-4561Y611D01*
X-4565Y614D01*
X-4568Y617D01*
G01X-4617Y639D02*
X-4613Y643D01*
X-4609Y644D01*
X-4604Y642D01*
X-4600Y639D01*
X-4598Y633D01*
X-4597Y627D01*
X-4598Y621D01*
X-4600Y616D01*
X-4604Y612D01*
X-4609Y610D01*
X-4614Y612D01*
X-4617Y615D01*
G01X-4658Y609D02*
X-4657Y609D01*
Y611D01*
X-4658Y612D01*
X-4660Y611D01*
Y609D01*
X-4658Y609D01*
G01X-4699Y644D02*
Y620D01*
X-4701Y614D01*
X-4705Y611D01*
X-4709Y610D01*
X-4714Y611D01*
X-4718Y614D01*
X-4720Y620D01*
G01Y610D02*
Y644D01*
G01X-4750Y610D02*
Y660D01*
G01X-4770Y644D02*
X-4750Y624D01*
G01X-4758Y632D02*
X-4771Y610D01*
G01X-4466Y-1603D02*
Y-1653D01*
G01Y-1678D02*
X-4416D01*
G01X-4466Y-1503D02*
Y-1553D01*
G01Y-1403D02*
Y-1453D01*
G01Y-1303D02*
Y-1353D01*
G01Y-1203D02*
Y-1253D01*
G01X-4416Y-1178D02*
X-4466D01*
G01X-4464Y-1143D02*
X-4364D01*
G01X-4464Y-1093D02*
Y-993D01*
G01Y-893D02*
Y-793D01*
G01Y-493D02*
Y-393D01*
G01Y-693D02*
Y-593D01*
G01Y-343D02*
X-4364D01*
G01X-3018Y581D02*
Y531D01*
X-3043D01*
G01X-3093D02*
Y565D01*
G01Y559D02*
X-3091Y562D01*
X-3087Y564D01*
X-3082Y565D01*
X-3078Y563D01*
X-3074Y560D01*
X-3072Y555D01*
X-3070Y548D01*
X-3072Y541D01*
X-3074Y536D01*
X-3078Y533D01*
X-3082Y531D01*
X-3087Y532D01*
X-3091Y535D01*
X-3093Y538D01*
G01X-3120Y516D02*
X-3123Y515D01*
X-3128Y516D01*
X-3132Y520D01*
X-3134Y524D01*
X-3138Y537D01*
X-3146Y565D01*
G01X-3126D02*
X-3138Y537D01*
G01X-3184Y531D02*
X-3180Y532D01*
X-3176Y536D01*
X-3174Y541D01*
X-3172Y548D01*
X-3174Y555D01*
X-3176Y561D01*
X-3180Y564D01*
X-3184Y565D01*
X-3188Y564D01*
X-3191Y561D01*
X-3194Y555D01*
X-3195Y548D01*
X-3194Y541D01*
X-3191Y536D01*
X-3188Y532D01*
X-3184Y531D01*
G01X-3224Y565D02*
Y541D01*
X-3227Y536D01*
X-3230Y532D01*
X-3235Y531D01*
X-3239Y532D01*
X-3243Y536D01*
X-3246Y541D01*
G01Y531D02*
Y565D01*
G01X-3286Y581D02*
Y531D01*
G01X-3277Y565D02*
X-3295D01*
G01X-3337Y530D02*
X-3336Y531D01*
Y532D01*
X-3337Y533D01*
X-3338Y532D01*
Y531D01*
X-3337Y530D01*
G01Y552D02*
X-3336Y553D01*
Y555D01*
X-3337Y556D01*
X-3338Y555D01*
Y553D01*
X-3337Y552D01*
G01X-3426Y538D02*
X-3431Y534D01*
X-3436Y531D01*
X-3441D01*
X-3446Y534D01*
X-3450Y538D01*
X-3452Y544D01*
X-3451Y550D01*
X-3448Y555D01*
X-3442Y558D01*
X-3434Y560D01*
X-3430Y563D01*
X-3428Y569D01*
X-3429Y575D01*
X-3432Y579D01*
X-3437Y581D01*
X-3441D01*
X-3446Y580D01*
X-3450Y576D01*
G01X-3490Y530D02*
X-3489Y531D01*
Y532D01*
X-3490Y533D01*
X-3491Y532D01*
Y531D01*
X-3490Y530D01*
G01X-3528Y541D02*
X-3531Y536D01*
X-3535Y533D01*
X-3540Y531D01*
X-3545Y533D01*
X-3548Y536D01*
X-3552Y541D01*
X-3553Y548D01*
Y581D01*
G01X-3592Y530D02*
X-3591Y531D01*
Y532D01*
X-3592Y533D01*
X-3593Y532D01*
Y531D01*
X-3592Y530D01*
G01X-3628Y531D02*
Y581D01*
X-3657Y531D01*
Y581D01*
G01X-3705Y531D02*
Y565D01*
G01Y559D02*
X-3703Y562D01*
X-3699Y564D01*
X-3694Y565D01*
X-3690Y563D01*
X-3686Y560D01*
X-3684Y555D01*
X-3682Y548D01*
X-3684Y541D01*
X-3686Y536D01*
X-3690Y533D01*
X-3694Y531D01*
X-3699Y532D01*
X-3703Y535D01*
X-3705Y538D01*
G01X-3735Y537D02*
X-3738Y534D01*
X-3743Y531D01*
X-3747D01*
X-3751Y533D01*
X-3753Y536D01*
X-3754Y539D01*
X-3754Y544D01*
X-3751Y546D01*
X-3740Y551D01*
X-3737Y557D01*
X-3738Y561D01*
X-3741Y564D01*
X-3745Y565D01*
X-3749Y564D01*
X-3752Y561D01*
G01X-3785Y531D02*
Y581D01*
G01Y557D02*
X-3788Y561D01*
X-3791Y564D01*
X-3796Y565D01*
X-3800Y564D01*
X-3805Y561D01*
X-3807Y556D01*
Y531D01*
G01X-3856Y540D02*
X-3850Y531D01*
X-3844D01*
X-3837Y540D01*
Y556D01*
X-3844Y565D01*
X-3850D01*
X-3856Y556D01*
Y540D01*
X-3861Y533D01*
X-3866Y540D01*
Y573D01*
X-3859Y581D01*
X-3834D01*
X-3828Y573D01*
Y523D01*
X-3834Y515D01*
X-3859D01*
X-3866Y523D01*
G01X-3886Y531D02*
Y581D01*
G01Y556D02*
X-3890Y561D01*
X-3893Y564D01*
X-3897Y565D01*
X-3903Y563D01*
X-3907Y560D01*
X-3909Y554D01*
Y547D01*
X-3908Y541D01*
X-3905Y536D01*
X-3901Y532D01*
X-3897Y531D01*
X-3893Y532D01*
X-3890Y535D01*
X-3886Y539D01*
G01X-3940Y531D02*
Y565D01*
G01Y558D02*
X-3943Y561D01*
X-3946Y564D01*
X-3951Y565D01*
X-3954Y564D01*
X-3958Y561D01*
G01X-4000Y565D02*
Y531D01*
G01Y578D02*
X-3999Y579D01*
Y581D01*
X-4000Y581D01*
X-4001Y581D01*
Y579D01*
X-4000Y578D01*
G01X-4041Y537D02*
X-4044Y534D01*
X-4049Y531D01*
X-4053D01*
X-4057Y533D01*
X-4059Y536D01*
X-4060Y539D01*
X-4060Y544D01*
X-4057Y546D01*
X-4046Y551D01*
X-4043Y557D01*
X-4044Y561D01*
X-4047Y564D01*
X-4051Y565D01*
X-4055Y564D01*
X-4058Y561D01*
G01X-4102Y581D02*
Y531D01*
G01X-4093Y565D02*
X-4111D01*
G01X-4153Y531D02*
X-4149Y532D01*
X-4145Y536D01*
X-4143Y541D01*
X-4141Y548D01*
X-4143Y555D01*
X-4145Y561D01*
X-4149Y564D01*
X-4153Y565D01*
X-4157Y564D01*
X-4160Y561D01*
X-4163Y555D01*
X-4164Y548D01*
X-4163Y541D01*
X-4160Y536D01*
X-4157Y532D01*
X-4153Y531D01*
G01X-4204D02*
Y581D01*
G01X-4255Y530D02*
X-4254Y531D01*
Y532D01*
X-4255Y533D01*
X-4256Y532D01*
Y531D01*
X-4255Y530D01*
G01X-4317Y531D02*
Y565D01*
G01Y559D02*
X-4315Y562D01*
X-4311Y564D01*
X-4306Y565D01*
X-4302Y563D01*
X-4298Y560D01*
X-4296Y555D01*
X-4294Y548D01*
X-4296Y541D01*
X-4298Y536D01*
X-4302Y533D01*
X-4306Y531D01*
X-4311Y532D01*
X-4315Y535D01*
X-4317Y538D01*
G01X-4367Y561D02*
X-4363Y564D01*
X-4359Y565D01*
X-4354Y563D01*
X-4350Y560D01*
X-4347Y554D01*
X-4347Y548D01*
X-4347Y542D01*
X-4350Y537D01*
X-4354Y533D01*
X-4359Y531D01*
X-4363Y533D01*
X-4367Y536D01*
G01X-4408Y530D02*
X-4407Y531D01*
Y532D01*
X-4408Y533D01*
X-4409Y532D01*
Y531D01*
X-4408Y530D01*
G01X-4448Y565D02*
Y541D01*
X-4451Y536D01*
X-4454Y532D01*
X-4459Y531D01*
X-4463Y532D01*
X-4467Y536D01*
X-4470Y541D01*
G01Y531D02*
Y565D01*
G01X-4499Y531D02*
Y581D01*
G01X-4519Y565D02*
X-4499Y546D01*
G01X-4507Y553D02*
X-4521Y531D01*
G01X-2867Y742D02*
Y705D01*
X-2871Y696D01*
X-2877Y690D01*
X-2884Y689D01*
X-2891Y690D01*
X-2897Y696D01*
X-2901Y705D01*
G01Y689D02*
Y742D01*
G01X-2964Y689D02*
X-2958Y690D01*
X-2952Y696D01*
X-2948Y705D01*
X-2946Y716D01*
X-2948Y726D01*
X-2952Y736D01*
X-2958Y741D01*
X-2964Y742D01*
X-2970Y741D01*
X-2976Y736D01*
X-2980Y726D01*
X-2981Y716D01*
X-2980Y705D01*
X-2976Y696D01*
X-2970Y690D01*
X-2964Y689D01*
G01X-3026D02*
Y769D01*
G01Y729D02*
X-3031Y737D01*
X-3037Y741D01*
X-3043Y742D01*
X-3052Y740D01*
X-3058Y734D01*
X-3062Y725D01*
Y714D01*
X-3060Y704D01*
X-3056Y696D01*
X-3049Y690D01*
X-3043Y689D01*
X-3037Y690D01*
X-3031Y694D01*
X-3026Y701D01*
G01X-3111Y716D02*
X-3137D01*
G01X-3187Y689D02*
Y769D01*
G01Y730D02*
X-3192Y737D01*
X-3197Y741D01*
X-3205Y742D01*
X-3211Y741D01*
X-3218Y736D01*
X-3221Y728D01*
Y689D01*
G01X-3269Y725D02*
X-3301D01*
X-3298Y734D01*
X-3293Y740D01*
X-3286Y742D01*
X-3279Y741D01*
X-3273Y737D01*
X-3269Y728D01*
X-3267Y720D01*
Y712D01*
X-3269Y704D01*
X-3274Y696D01*
X-3280Y690D01*
X-3287Y689D01*
X-3294Y692D01*
X-3301Y700D01*
G01X-3346Y662D02*
Y742D01*
G01Y730D02*
X-3351Y737D01*
X-3356Y741D01*
X-3364Y742D01*
X-3371Y741D01*
X-3378Y734D01*
X-3381Y725D01*
X-3382Y716D01*
X-3381Y706D01*
X-3378Y697D01*
X-3372Y692D01*
X-3364Y689D01*
X-3357Y690D01*
X-3350Y694D01*
X-3346Y700D01*
G01X-3431Y716D02*
X-3457D01*
G01X-3506Y662D02*
Y742D01*
G01Y730D02*
X-3511Y737D01*
X-3516Y741D01*
X-3524Y742D01*
X-3531Y741D01*
X-3538Y734D01*
X-3541Y725D01*
X-3542Y716D01*
X-3541Y706D01*
X-3538Y697D01*
X-3532Y692D01*
X-3524Y689D01*
X-3517Y690D01*
X-3510Y694D01*
X-3506Y700D01*
G01X-3620Y736D02*
X-3613Y741D01*
X-3607Y742D01*
X-3599Y740D01*
X-3593Y734D01*
X-3589Y725D01*
X-3588Y716D01*
X-3589Y706D01*
X-3593Y698D01*
X-3599Y692D01*
X-3607Y689D01*
X-3614Y692D01*
X-3620Y697D01*
G01X-3684Y769D02*
X-3676Y766D01*
X-3670Y760D01*
X-3666Y752D01*
X-3663Y741D01*
X-3662Y729D01*
X-3663Y717D01*
X-3666Y706D01*
X-3670Y698D01*
X-3676Y692D01*
X-3684Y689D01*
X-3692Y692D01*
X-3698Y698D01*
X-3702Y706D01*
X-3705Y717D01*
X-3706Y729D01*
X-3705Y741D01*
X-3702Y752D01*
X-3698Y760D01*
X-3692Y766D01*
X-3684Y769D01*
G01X-3764D02*
X-3756Y766D01*
X-3750Y760D01*
X-3746Y752D01*
X-3743Y741D01*
X-3742Y729D01*
X-3743Y717D01*
X-3746Y706D01*
X-3750Y698D01*
X-3756Y692D01*
X-3764Y689D01*
X-3772Y692D01*
X-3778Y698D01*
X-3782Y706D01*
X-3785Y717D01*
X-3786Y729D01*
X-3785Y741D01*
X-3782Y752D01*
X-3778Y760D01*
X-3772Y766D01*
X-3764Y769D01*
G01X-3822Y701D02*
X-3828Y694D01*
X-3835Y690D01*
X-3844Y689D01*
X-3853Y692D01*
X-3860Y697D01*
X-3865Y706D01*
X-3866Y717D01*
X-3864Y728D01*
X-3859Y734D01*
X-3852Y740D01*
X-3845Y741D01*
X-3838Y740D01*
X-3829Y734D01*
X-3832Y769D01*
X-3859D01*
G01X-4004Y686D02*
X-4002Y688D01*
Y690D01*
X-4004Y692D01*
X-4006Y690D01*
Y688D01*
X-4004Y686D01*
G01Y722D02*
X-4002Y724D01*
Y726D01*
X-4004Y728D01*
X-4006Y726D01*
Y724D01*
X-4004Y722D01*
G01X-4164Y689D02*
X-4156Y690D01*
X-4149Y696D01*
X-4143Y704D01*
X-4139Y713D01*
X-4137Y724D01*
Y734D01*
X-4139Y745D01*
X-4143Y754D01*
X-4149Y762D01*
X-4156Y768D01*
X-4164Y769D01*
X-4172Y768D01*
X-4179Y762D01*
X-4185Y754D01*
X-4189Y745D01*
X-4191Y734D01*
Y724D01*
X-4189Y713D01*
X-4185Y704D01*
X-4179Y696D01*
X-4172Y690D01*
X-4164Y689D01*
G01X-4172Y710D02*
X-4184Y689D01*
G01X-4224D02*
Y769D01*
X-4248D01*
X-4256Y765D01*
X-4262Y756D01*
X-4264Y745D01*
X-4262Y734D01*
X-4257Y726D01*
X-4248Y722D01*
X-4224D01*
G01X-4304Y769D02*
Y689D01*
X-4344D01*
G01X-4384Y769D02*
Y689D01*
X-4424D01*
G01X-4116Y-1678D02*
X-4166D01*
G01X-4216D02*
X-4266D01*
G01X-4316D02*
X-4366D01*
G01X-4316Y-1178D02*
X-4366D01*
G01X-4216D02*
X-4266D01*
G01X-4116D02*
X-4166D01*
G01X-4086Y-1142D02*
X-4091Y-1136D01*
X-4094Y-1129D01*
Y-1123D01*
X-4091Y-1117D01*
X-4086Y-1112D01*
X-4079Y-1110D01*
X-4071Y-1111D01*
X-4065Y-1115D01*
X-4061Y-1122D01*
X-4059Y-1131D01*
X-4055Y-1137D01*
X-4047Y-1139D01*
X-4040Y-1138D01*
X-4035Y-1134D01*
X-4031Y-1128D01*
Y-1123D01*
X-4034Y-1117D01*
X-4039Y-1113D01*
G01X-4094Y-1080D02*
X-4031D01*
G01Y-1050D02*
X-4070Y-1080D01*
G01X-4094Y-1046D02*
X-4052Y-1067D01*
G01X-4094Y-991D02*
X-4031D01*
X-4077Y-1020D01*
Y-980D01*
G01X-4364Y-1093D02*
Y-993D01*
G01X-4301Y-996D02*
X-4351D01*
Y-1011D01*
X-4349Y-1016D01*
X-4345Y-1020D01*
X-4339Y-1021D01*
X-4332Y-1020D01*
X-4328Y-1016D01*
X-4325Y-1011D01*
Y-996D01*
G01Y-1011D02*
X-4301Y-1021D01*
G01Y-1045D02*
X-4351D01*
X-4301Y-1074D01*
X-4351D01*
G01X-4301Y-1110D02*
X-4351D01*
X-4341Y-1103D01*
G01X-4301D02*
Y-1118D01*
G01X-4364Y-893D02*
Y-793D01*
G01Y-493D02*
Y-393D01*
G01Y-693D02*
Y-593D01*
G01X-4191Y-617D02*
X-4194Y-619D01*
X-4199Y-621D01*
X-4204D01*
X-4210Y-618D01*
X-4214Y-614D01*
X-4217Y-609D01*
X-4220Y-601D01*
X-4220Y-593D01*
X-4219Y-586D01*
X-4217Y-581D01*
X-4213Y-576D01*
X-4209Y-573D01*
X-4205Y-571D01*
X-4200D01*
X-4196Y-573D01*
X-4192Y-575D01*
X-4189Y-578D01*
G01X-4154Y-571D02*
Y-621D01*
X-4161Y-611D01*
G01Y-571D02*
X-4146D01*
G01X-4095D02*
Y-621D01*
X-4118Y-585D01*
X-4087D01*
G01X-4191Y-203D02*
X-4194Y-206D01*
X-4199Y-207D01*
X-4204D01*
X-4210Y-205D01*
X-4214Y-201D01*
X-4217Y-196D01*
X-4220Y-187D01*
X-4220Y-180D01*
X-4219Y-172D01*
X-4217Y-167D01*
X-4213Y-162D01*
X-4209Y-159D01*
X-4205Y-157D01*
X-4200D01*
X-4196Y-159D01*
X-4192Y-162D01*
X-4189Y-165D01*
G01X-4154Y-157D02*
Y-207D01*
X-4161Y-197D01*
G01Y-157D02*
X-4146D01*
G01X-4116Y-165D02*
X-4113Y-161D01*
X-4108Y-158D01*
X-4103Y-157D01*
X-4097Y-159D01*
X-4092Y-162D01*
X-4089Y-168D01*
X-4089Y-175D01*
X-4090Y-182D01*
X-4093Y-186D01*
X-4097Y-189D01*
X-4102Y-190D01*
X-4106Y-189D01*
X-4112Y-186D01*
X-4110Y-207D01*
X-4093D01*
G01X-3955Y-1603D02*
Y-1653D01*
G01X-3805Y-1678D02*
X-3855D01*
G01X-3955D02*
X-3905D01*
G01X-4016Y-1603D02*
Y-1653D01*
G01X-4066Y-1678D02*
X-4016D01*
G01X-3955Y-1503D02*
Y-1553D01*
G01Y-1403D02*
Y-1453D01*
G01Y-1303D02*
Y-1353D01*
G01X-4016Y-1503D02*
Y-1553D01*
G01Y-1403D02*
Y-1453D01*
G01Y-1303D02*
Y-1353D01*
G01X-3805Y-1178D02*
X-3855D01*
G01X-3955Y-1203D02*
Y-1253D01*
G01X-3905Y-1178D02*
X-3955D01*
G01X-3771Y-1142D02*
X-3776Y-1136D01*
X-3780Y-1129D01*
Y-1123D01*
X-3776Y-1117D01*
X-3771Y-1112D01*
X-3764Y-1110D01*
X-3756Y-1111D01*
X-3750Y-1115D01*
X-3746Y-1122D01*
X-3744Y-1131D01*
X-3740Y-1137D01*
X-3732Y-1139D01*
X-3725Y-1138D01*
X-3720Y-1134D01*
X-3717Y-1128D01*
Y-1123D01*
X-3719Y-1117D01*
X-3724Y-1113D01*
G01X-3780Y-1080D02*
X-3717D01*
G01Y-1050D02*
X-3755Y-1080D01*
G01X-3780Y-1046D02*
X-3738Y-1067D01*
G01X-3767Y-1017D02*
X-3774Y-1013D01*
X-3778Y-1006D01*
X-3780Y-999D01*
X-3778Y-993D01*
X-3773Y-987D01*
X-3767Y-983D01*
X-3761Y-982D01*
X-3753Y-984D01*
X-3748Y-989D01*
X-3746Y-995D01*
Y-1002D01*
G01Y-995D02*
X-3743Y-990D01*
X-3738Y-986D01*
X-3731Y-984D01*
X-3725Y-986D01*
X-3720Y-990D01*
X-3717Y-997D01*
X-3718Y-1004D01*
X-3722Y-1011D01*
G01X-4016Y-1203D02*
Y-1253D01*
G01Y-1178D02*
X-4066D01*
G01X-3880Y-368D02*
X-3876Y-365D01*
X-3872Y-363D01*
X-3867D01*
X-3861Y-366D01*
X-3857Y-370D01*
X-3854Y-375D01*
X-3851Y-383D01*
X-3850Y-391D01*
X-3852Y-398D01*
X-3854Y-403D01*
X-3857Y-408D01*
X-3862Y-412D01*
X-3866Y-413D01*
X-3871D01*
X-3875Y-412D01*
X-3879Y-409D01*
X-3882Y-406D01*
G01X-3917Y-413D02*
Y-363D01*
X-3910Y-373D01*
G01Y-413D02*
X-3925D01*
G01X-3967D02*
X-3968Y-403D01*
X-3970Y-393D01*
X-3973Y-385D01*
X-3976Y-376D01*
X-3981Y-363D01*
X-3956D01*
G01X-3505Y-1603D02*
Y-1653D01*
G01X-3605Y-1678D02*
X-3655D01*
G01X-3705D02*
X-3755D01*
G01X-3555D02*
X-3505D01*
G01Y-1503D02*
Y-1553D01*
G01Y-1403D02*
Y-1453D01*
G01Y-1303D02*
Y-1353D01*
G01Y-1203D02*
Y-1253D01*
G01X-3705Y-1178D02*
X-3755D01*
G01X-3605D02*
X-3655D01*
G01X-3505D02*
X-3555D01*
G01X-3701Y-694D02*
X-3651D01*
Y-678D01*
X-3653Y-673D01*
X-3657Y-670D01*
X-3663Y-668D01*
X-3670Y-670D01*
X-3674Y-673D01*
X-3677Y-678D01*
Y-694D01*
G01Y-678D02*
X-3701Y-668D01*
G01Y-630D02*
X-3651D01*
X-3661Y-638D01*
G01X-3701D02*
Y-622D01*
G01Y-579D02*
X-3700Y-574D01*
X-3697Y-569D01*
X-3693Y-566D01*
X-3687Y-565D01*
X-3682Y-566D01*
X-3677Y-570D01*
X-3674Y-576D01*
Y-582D01*
X-3672Y-586D01*
X-3668Y-589D01*
X-3662Y-590D01*
X-3657Y-588D01*
X-3652Y-584D01*
X-3651Y-579D01*
X-3652Y-574D01*
X-3657Y-569D01*
X-3662Y-568D01*
X-3668Y-569D01*
X-3672Y-572D01*
X-3674Y-576D01*
Y-582D01*
X-3677Y-588D01*
X-3682Y-592D01*
X-3687Y-593D01*
X-3693Y-592D01*
X-3697Y-588D01*
X-3700Y-583D01*
X-3701Y-579D01*
G01X-3368Y-368D02*
X-3365Y-365D01*
X-3360Y-363D01*
X-3355D01*
X-3349Y-366D01*
X-3345Y-370D01*
X-3342Y-375D01*
X-3339Y-383D01*
X-3339Y-391D01*
X-3340Y-398D01*
X-3342Y-403D01*
X-3346Y-408D01*
X-3350Y-412D01*
X-3355Y-413D01*
X-3359D01*
X-3363Y-412D01*
X-3367Y-409D01*
X-3370Y-406D01*
G01X-3393Y-372D02*
X-3397Y-367D01*
X-3402Y-364D01*
X-3407Y-363D01*
X-3413Y-365D01*
X-3418Y-369D01*
X-3419Y-374D01*
X-3418Y-379D01*
X-3416Y-383D01*
X-3403Y-392D01*
X-3397Y-398D01*
X-3393Y-406D01*
X-3392Y-413D01*
X-3419D01*
G01X-3457Y-363D02*
X-3451Y-365D01*
X-3448Y-369D01*
X-3445Y-374D01*
X-3443Y-381D01*
X-3443Y-388D01*
X-3443Y-396D01*
X-3445Y-403D01*
X-3448Y-408D01*
X-3451Y-412D01*
X-3457Y-413D01*
X-3462Y-412D01*
X-3465Y-408D01*
X-3468Y-403D01*
X-3470Y-396D01*
X-3470Y-388D01*
X-3470Y-381D01*
X-3468Y-374D01*
X-3465Y-369D01*
X-3462Y-365D01*
X-3457Y-363D01*
G01X-3701Y-201D02*
X-3651D01*
Y-186D01*
X-3653Y-181D01*
X-3657Y-177D01*
X-3663Y-176D01*
X-3670Y-177D01*
X-3674Y-181D01*
X-3677Y-186D01*
Y-201D01*
G01Y-186D02*
X-3701Y-176D01*
G01Y-138D02*
X-3651D01*
X-3661Y-145D01*
G01X-3701D02*
Y-130D01*
G01Y-88D02*
X-3690Y-87D01*
X-3681Y-85D01*
X-3672Y-82D01*
X-3663Y-79D01*
X-3651Y-74D01*
Y-99D01*
G01X-3726Y65D02*
Y504D01*
X-2812D01*
Y65D01*
X-3726D01*
G01X-3443Y-1603D02*
Y-1653D01*
G01X-3193Y-1678D02*
X-3243D01*
G01X-3293D02*
X-3343D01*
G01X-3443D02*
X-3393D01*
G01X-3443Y-1503D02*
Y-1553D01*
G01Y-1403D02*
Y-1453D01*
G01Y-1303D02*
Y-1353D01*
G01X-3293Y-1178D02*
X-3343D01*
G01X-3193D02*
X-3243D01*
G01X-3443Y-1203D02*
Y-1253D01*
G01X-3393Y-1178D02*
X-3443D01*
G01X-2993Y-1603D02*
Y-1653D01*
G01X-3093Y-1678D02*
X-3143D01*
G01X-3043D02*
X-2993D01*
G01X-2886Y-1700D02*
Y-1650D01*
G01X-2920Y-1530D02*
X-2914Y-1537D01*
X-2911Y-1544D01*
Y-1550D01*
X-2914Y-1556D01*
X-2920Y-1561D01*
X-2927Y-1563D01*
X-2934Y-1562D01*
X-2941Y-1558D01*
X-2945Y-1551D01*
X-2947Y-1541D01*
X-2951Y-1536D01*
X-2958Y-1533D01*
X-2966Y-1535D01*
X-2971Y-1539D01*
X-2974Y-1544D01*
Y-1550D01*
X-2972Y-1555D01*
X-2967Y-1560D01*
G01X-2911Y-1593D02*
X-2974D01*
G01Y-1622D02*
X-2935Y-1593D01*
G01X-2911Y-1627D02*
X-2953Y-1606D01*
G01X-2937Y-1658D02*
X-2945Y-1663D01*
X-2949Y-1668D01*
X-2951Y-1674D01*
X-2949Y-1680D01*
X-2945Y-1684D01*
X-2939Y-1687D01*
X-2931Y-1688D01*
X-2925Y-1687D01*
X-2919Y-1684D01*
X-2913Y-1679D01*
X-2911Y-1674D01*
X-2913Y-1667D01*
X-2920Y-1662D01*
X-2929Y-1659D01*
X-2940Y-1658D01*
X-2953Y-1659D01*
X-2961Y-1662D01*
X-2968Y-1666D01*
X-2973Y-1671D01*
X-2974Y-1677D01*
X-2972Y-1682D01*
X-2967Y-1686D01*
G01X-2993Y-1503D02*
Y-1553D01*
G01Y-1403D02*
Y-1453D01*
G01Y-1303D02*
Y-1353D01*
G01X-2959Y-1507D02*
X-2965Y-1501D01*
X-2968Y-1494D01*
Y-1488D01*
X-2965Y-1482D01*
X-2959Y-1477D01*
X-2952Y-1475D01*
X-2945Y-1476D01*
X-2938Y-1480D01*
X-2934Y-1487D01*
X-2932Y-1496D01*
X-2928Y-1502D01*
X-2920Y-1504D01*
X-2913Y-1503D01*
X-2908Y-1499D01*
X-2905Y-1493D01*
Y-1488D01*
X-2907Y-1482D01*
X-2912Y-1478D01*
G01X-2968Y-1445D02*
X-2905D01*
G01Y-1415D02*
X-2944Y-1445D01*
G01X-2968Y-1411D02*
X-2926Y-1432D01*
G01X-2958Y-1382D02*
X-2964Y-1377D01*
X-2967Y-1372D01*
X-2968Y-1365D01*
X-2966Y-1358D01*
X-2961Y-1352D01*
X-2954Y-1349D01*
X-2946Y-1348D01*
X-2937Y-1349D01*
X-2932Y-1353D01*
X-2928Y-1359D01*
X-2927Y-1364D01*
X-2928Y-1370D01*
X-2932Y-1377D01*
X-2905Y-1374D01*
Y-1353D01*
G01X-2886Y-1500D02*
Y-1450D01*
G01Y-1600D02*
Y-1550D01*
G01X-2993Y-1203D02*
Y-1253D01*
G01X-3093Y-1178D02*
X-3143D01*
G01X-2993D02*
X-3043D01*
G01X-2661Y-1725D02*
X-2611D01*
G01X-2761D02*
X-2711D01*
G01X-2586Y-1700D02*
Y-1650D01*
G01X-2861Y-1725D02*
X-2811D01*
G01X-2586Y-1500D02*
Y-1450D01*
G01X-2861Y-1425D02*
X-2811D01*
G01X-2761D02*
X-2711D01*
G01X-2661D02*
X-2611D01*
G01X-2586Y-1600D02*
Y-1550D01*
M02*
