G04 ================== begin FILE IDENTIFICATION RECORD ==================*
G04 Layout Name:  E:\qpll-only-UOB-HEP-PC005A\worklib\qpll\physical\pc005-placed-e.brd*
G04 Film Name:    drillfigure*
G04 File Format:  Gerber RS274X*
G04 File Origin:  -unreleased*
G04 Origin Date:  Mon Jun 30 09:44:21 2003*
G04 ================== end FILE IDENTIFICATION RECORD ====================*
%FSLAX53Y53*MOIN*%
%IR0*IPPOS*OFA0.00000B0.00000*MIA0B0*SFA1.00000B1.00000*%
%AMMACRO11*
1,1,.007874,.02,.02*
20,1,.007874,.02,.02,.02,-.02,0.0*
1,1,.007874,.02,-.02*
20,1,.007874,.02,-.02,-.02,-.02,0.0*
1,1,.007874,-.02,-.02*
20,1,.007874,-.02,-.02,-.02,.02,0.0*
1,1,.007874,-.02,.02*
20,1,.007874,-.02,.02,.02,.02,0.0*
1,1,.007874,.02,.02*
%
%ADD11MACRO11*%
%AMMACRO10*
1,1,.007874,.03,0.0*
20,1,.007874,.03,0.0,.029544,-.005209,0.0*
1,1,.007874,.029544,-.005209*
20,1,.007874,.029544,-.005209,.028191,-.010261,0.0*
1,1,.007874,.028191,-.010261*
20,1,.007874,.028191,-.010261,.025981,-.015,0.0*
1,1,.007874,.025981,-.015*
20,1,.007874,.025981,-.015,.022981,-.019284,0.0*
1,1,.007874,.022981,-.019284*
20,1,.007874,.022981,-.019284,.019284,-.022981,0.0*
1,1,.007874,.019284,-.022981*
20,1,.007874,.019284,-.022981,.015,-.025981,0.0*
1,1,.007874,.015,-.025981*
20,1,.007874,.015,-.025981,.010261,-.028191,0.0*
1,1,.007874,.010261,-.028191*
20,1,.007874,.010261,-.028191,.005209,-.029544,0.0*
1,1,.007874,.005209,-.029544*
20,1,.007874,.005209,-.029544,0.0,-.03,0.0*
1,1,.007874,0.0,-.03*
20,1,.007874,0.0,-.03,-.005209,-.029544,0.0*
1,1,.007874,-.005209,-.029544*
20,1,.007874,-.005209,-.029544,-.010261,-.028191,0.0*
1,1,.007874,-.010261,-.028191*
20,1,.007874,-.010261,-.028191,-.015,-.025981,0.0*
1,1,.007874,-.015,-.025981*
20,1,.007874,-.015,-.025981,-.019284,-.022981,0.0*
1,1,.007874,-.019284,-.022981*
20,1,.007874,-.019284,-.022981,-.022981,-.019284,0.0*
1,1,.007874,-.022981,-.019284*
20,1,.007874,-.022981,-.019284,-.025981,-.015,0.0*
1,1,.007874,-.025981,-.015*
20,1,.007874,-.025981,-.015,-.028191,-.010261,0.0*
1,1,.007874,-.028191,-.010261*
20,1,.007874,-.028191,-.010261,-.029544,-.005209,0.0*
1,1,.007874,-.029544,-.005209*
20,1,.007874,-.029544,-.005209,-.03,0.0,0.0*
1,1,.007874,-.03,0.0*
20,1,.007874,-.03,0.0,-.029544,.005209,0.0*
1,1,.007874,-.029544,.005209*
20,1,.007874,-.029544,.005209,-.028191,.010261,0.0*
1,1,.007874,-.028191,.010261*
20,1,.007874,-.028191,.010261,-.025981,.015,0.0*
1,1,.007874,-.025981,.015*
20,1,.007874,-.025981,.015,-.022981,.019284,0.0*
1,1,.007874,-.022981,.019284*
20,1,.007874,-.022981,.019284,-.019284,.022981,0.0*
1,1,.007874,-.019284,.022981*
20,1,.007874,-.019284,.022981,-.015,.025981,0.0*
1,1,.007874,-.015,.025981*
20,1,.007874,-.015,.025981,-.010261,.028191,0.0*
1,1,.007874,-.010261,.028191*
20,1,.007874,-.010261,.028191,-.005209,.029544,0.0*
1,1,.007874,-.005209,.029544*
20,1,.007874,-.005209,.029544,0.0,.03,0.0*
1,1,.007874,0.0,.03*
20,1,.007874,0.0,.03,.005209,.029544,0.0*
1,1,.007874,.005209,.029544*
20,1,.007874,.005209,.029544,.010261,.028191,0.0*
1,1,.007874,.010261,.028191*
20,1,.007874,.010261,.028191,.015,.025981,0.0*
1,1,.007874,.015,.025981*
20,1,.007874,.015,.025981,.019284,.022981,0.0*
1,1,.007874,.019284,.022981*
20,1,.007874,.019284,.022981,.022981,.019284,0.0*
1,1,.007874,.022981,.019284*
20,1,.007874,.022981,.019284,.025981,.015,0.0*
1,1,.007874,.025981,.015*
20,1,.007874,.025981,.015,.028191,.010261,0.0*
1,1,.007874,.028191,.010261*
20,1,.007874,.028191,.010261,.029544,.005209,0.0*
1,1,.007874,.029544,.005209*
20,1,.007874,.029544,.005209,.03,0.0,0.0*
1,1,.007874,.03,0.0*
%
%ADD10MACRO10*%
%AMMACRO14*
1,1,.007874,-.015,-.02*
20,1,.007874,-.015,-.02,0.0,.02,0.0*
1,1,.007874,0.0,.02*
20,1,.007874,0.0,.02,.015,-.02,0.0*
1,1,.007874,.015,-.02*
1,1,.007874,.009598,-.006*
20,1,.007874,.009598,-.006,-.009602,-.006,0.0*
1,1,.007874,-.009602,-.006*
%
%ADD14MACRO14*%
%AMMACRO12*
1,1,.007874,-.013201,-.02*
20,1,.007874,-.013201,-.02,-.013201,.02,0.0*
1,1,.007874,-.013201,.02*
20,1,.007874,-.013201,.02,-.001201,.02,0.0*
1,1,.007874,-.001201,.02*
20,1,.007874,-.001201,.02,.003598,.018,0.0*
1,1,.007874,.003598,.018*
20,1,.007874,.003598,.018,.007201,.015335,0.0*
1,1,.007874,.007201,.015335*
20,1,.007874,.007201,.015335,.010201,.011335,0.0*
1,1,.007874,.010201,.011335*
20,1,.007874,.010201,.011335,.012598,.006665,0.0*
1,1,.007874,.012598,.006665*
20,1,.007874,.012598,.006665,.013201,0.0,0.0*
1,1,.007874,.013201,0.0*
20,1,.007874,.013201,0.0,.012598,-.006665,0.0*
1,1,.007874,.012598,-.006665*
20,1,.007874,.012598,-.006665,.010201,-.011335,0.0*
1,1,.007874,.010201,-.011335*
20,1,.007874,.010201,-.011335,.007201,-.015335,0.0*
1,1,.007874,.007201,-.015335*
20,1,.007874,.007201,-.015335,.003598,-.018,0.0*
1,1,.007874,.003598,-.018*
20,1,.007874,.003598,-.018,-.001201,-.02,0.0*
1,1,.007874,-.001201,-.02*
20,1,.007874,-.001201,-.02,-.013201,-.02,0.0*
1,1,.007874,-.013201,-.02*
%
%ADD12MACRO12*%
%AMMACRO13*
1,1,.007874,.045,0.0*
20,1,.007874,.045,0.0,0.0,-.05,0.0*
1,1,.007874,0.0,-.05*
20,1,.007874,0.0,-.05,-.045,0.0,0.0*
1,1,.007874,-.045,0.0*
20,1,.007874,-.045,0.0,0.0,.05,0.0*
1,1,.007874,0.0,.05*
20,1,.007874,0.0,.05,.045,0.0,0.0*
1,1,.007874,.045,0.0*
1,1,.007874,0.0,-.025*
20,1,.007874,0.0,-.025,-.006,-.024165,0.0*
1,1,.007874,-.006,-.024165*
20,1,.007874,-.006,-.024165,-.011248,-.020835,0.0*
1,1,.007874,-.011248,-.020835*
20,1,.007874,-.011248,-.020835,-.015752,-.015835,0.0*
1,1,.007874,-.015752,-.015835*
20,1,.007874,-.015752,-.015835,-.018752,-.01,0.0*
1,1,.007874,-.018752,-.01*
20,1,.007874,-.018752,-.01,-.020252,-.003335,0.0*
1,1,.007874,-.020252,-.003335*
20,1,.007874,-.020252,-.003335,-.020252,.003335,0.0*
1,1,.007874,-.020252,.003335*
20,1,.007874,-.020252,.003335,-.018752,.01,0.0*
1,1,.007874,-.018752,.01*
20,1,.007874,-.018752,.01,-.015752,.015835,0.0*
1,1,.007874,-.015752,.015835*
20,1,.007874,-.015752,.015835,-.011248,.020835,0.0*
1,1,.007874,-.011248,.020835*
20,1,.007874,-.011248,.020835,-.006,.024165,0.0*
1,1,.007874,-.006,.024165*
20,1,.007874,-.006,.024165,0.0,.025,0.0*
1,1,.007874,0.0,.025*
20,1,.007874,0.0,.025,.006,.024165,0.0*
1,1,.007874,.006,.024165*
20,1,.007874,.006,.024165,.011248,.020835,0.0*
1,1,.007874,.011248,.020835*
20,1,.007874,.011248,.020835,.015752,.015835,0.0*
1,1,.007874,.015752,.015835*
20,1,.007874,.015752,.015835,.018752,.01,0.0*
1,1,.007874,.018752,.01*
20,1,.007874,.018752,.01,.020252,.003335,0.0*
1,1,.007874,.020252,.003335*
20,1,.007874,.020252,.003335,.020252,-.003335,0.0*
1,1,.007874,.020252,-.003335*
20,1,.007874,.020252,-.003335,.018752,-.01,0.0*
1,1,.007874,.018752,-.01*
20,1,.007874,.018752,-.01,.015752,-.015835,0.0*
1,1,.007874,.015752,-.015835*
20,1,.007874,.015752,-.015835,.011248,-.020835,0.0*
1,1,.007874,.011248,-.020835*
20,1,.007874,.011248,-.020835,.006,-.024165,0.0*
1,1,.007874,.006,-.024165*
20,1,.007874,.006,-.024165,0.0,-.025,0.0*
1,1,.007874,0.0,-.025*
1,1,.007874,.006,-.011665*
20,1,.007874,.006,-.011665,.015,-.025,0.0*
1,1,.007874,.015,-.025*
%
%ADD13MACRO13*%
%ADD15C,.007874*%
G75*
%LPD*%
G75*
G54D10*
X-5000Y-1378D03*
X-5100Y-1578D03*
Y-1278D03*
X-4900Y-1378D03*
X-4800Y-1578D03*
Y-1278D03*
X-4840Y2730D03*
X-4391Y-1578D03*
Y-1278D03*
X-4291Y-1378D03*
X-4191D03*
X-4091Y-1578D03*
Y-1278D03*
X-3780Y-1378D03*
X-3880Y-1578D03*
Y-1278D03*
X-3680Y-1378D03*
X-3580Y-1578D03*
Y-1278D03*
X-3268Y-1378D03*
X-3168D03*
X-3368Y-1578D03*
Y-1278D03*
X-3068Y-1578D03*
Y-1278D03*
G54D11*
X-5103Y-492D03*
X-5197Y-610D03*
X-5020Y-305D03*
X-4823Y-797D03*
X-4695Y-876D03*
Y-778D03*
X-4705Y-984D03*
X-4695Y-679D03*
X-4872Y-492D03*
X-4941Y-305D03*
X-4724Y69D03*
X-4675Y226D03*
X-4774Y610D03*
X-4840Y3011D03*
X-4498Y-512D03*
X-4626Y-463D03*
X-4547D03*
X-4626Y-187D03*
X-4547D03*
X-4409Y167D03*
Y69D03*
X-4518Y276D03*
X-4360Y325D03*
X-4449Y807D03*
X-4193Y-827D03*
X-4271Y-466D03*
X-4085Y-512D03*
X-4094Y-423D03*
X-4173Y-516D03*
X-4321Y-482D03*
X-4311Y-640D03*
X-4094Y-344D03*
X-4154Y-246D03*
X-4321Y98D03*
X-4163Y512D03*
X-4016Y-325D03*
X-3809Y-207D03*
X-4035Y-246D03*
X-4016Y-404D03*
X-3799Y-20D03*
X-3927Y226D03*
X-3671Y-512D03*
X-3740Y-482D03*
X-3504Y-413D03*
X-3494Y-226D03*
Y-315D03*
X-3553Y-128D03*
X-3386Y-1093D03*
X-3337Y-482D03*
X-3179Y-315D03*
X-3337Y-148D03*
Y-315D03*
X-2874Y-1348D03*
X-3041Y-1093D03*
X-2894Y-315D03*
X-2598Y-1348D03*
G54D12*
X-5030Y128D03*
Y325D03*
Y522D03*
X-4840Y2168D03*
G54D13*
X-5079Y748D03*
X-4606Y-1142D03*
X-4840Y1887D03*
X-2874Y-1142D03*
X-2677Y748D03*
G54D14*
X-4840Y2449D03*
X-4414Y-1093D03*
Y-993D03*
Y-893D03*
Y-793D03*
Y-693D03*
Y-593D03*
Y-493D03*
Y-393D03*
X-4528Y-69D03*
X-4428D03*
X-2836Y-1675D03*
Y-1475D03*
X-2636Y-1675D03*
X-2736Y-1575D03*
X-2636Y-1475D03*
G54D15*
G01X-5295Y945D02*
Y-1791D01*
X-2461D01*
Y945D01*
X-5295D01*
G01Y787D02*
Y1476D01*
G01X-5138Y1403D02*
X-5295Y1378D01*
X-5138Y1353D01*
Y1403D01*
G01X-4139Y1378D02*
X-5295D01*
G01X-5289Y1746D02*
Y3969D01*
X-1569D01*
Y1746D01*
X-5289D01*
G01Y2027D02*
X-1569D01*
G01X-5289Y2308D02*
X-1569D01*
G01X-5289Y2589D02*
X-1569D01*
G01X-5289Y2870D02*
X-1569D01*
G01X-5289Y3151D02*
X-1569D01*
G01X-5289Y3432D02*
X-1569D01*
G01X-5289Y3713D02*
X-1569D01*
G01X-5256Y1014D02*
Y1220D01*
G01X-5098Y1147D02*
X-5256Y1122D01*
X-5098Y1097D01*
Y1147D01*
G01X-4139Y1122D02*
X-5256D01*
G01X-5179Y3245D02*
Y3370D01*
X-5120D01*
G01X-5142Y3309D02*
X-5179D01*
G01X-5044Y3370D02*
X-5007D01*
G01X-5026D02*
Y3245D01*
G01X-5044D02*
X-5007D01*
G01X-4892Y3307D02*
X-4861D01*
Y3270D01*
X-4871Y3257D01*
X-4881Y3249D01*
X-4897Y3245D01*
X-4912Y3249D01*
X-4923Y3257D01*
X-4933Y3270D01*
X-4939Y3284D01*
X-4942Y3301D01*
Y3316D01*
X-4939Y3328D01*
X-4933Y3343D01*
X-4923Y3355D01*
X-4914Y3364D01*
X-4902Y3370D01*
X-4891D01*
X-4878Y3366D01*
X-4869Y3357D01*
G01X-4812Y3370D02*
Y3280D01*
X-4806Y3261D01*
X-4793Y3249D01*
X-4778Y3245D01*
X-4762Y3249D01*
X-4750Y3261D01*
X-4744Y3280D01*
Y3370D01*
G01X-4685Y3245D02*
Y3370D01*
X-4646D01*
X-4633Y3364D01*
X-4626Y3355D01*
X-4623Y3339D01*
X-4626Y3322D01*
X-4635Y3311D01*
X-4646Y3305D01*
X-4685D01*
G01X-4646D02*
X-4623Y3245D01*
G01X-4499D02*
X-4561D01*
Y3370D01*
X-4499D01*
G01X-4523Y3309D02*
X-4561D01*
G01X-5142Y3526D02*
X-5103Y3651D01*
X-5064Y3526D01*
G01X-5078Y3570D02*
X-5128D01*
G01X-5010Y3651D02*
Y3526D01*
X-4948D01*
G01X-4886Y3651D02*
Y3526D01*
X-4824D01*
G01X-4641Y3651D02*
Y3561D01*
X-4635Y3542D01*
X-4623Y3530D01*
X-4607Y3526D01*
X-4592Y3530D01*
X-4579Y3542D01*
X-4573Y3561D01*
Y3651D01*
G01X-4519Y3526D02*
Y3651D01*
X-4447Y3526D01*
Y3651D01*
G01X-4378D02*
X-4341D01*
G01X-4359D02*
Y3526D01*
G01X-4378D02*
X-4341D01*
G01X-4235Y3651D02*
Y3526D01*
G01X-4271Y3651D02*
X-4199D01*
G01X-4144Y3542D02*
X-4131Y3532D01*
X-4117Y3526D01*
X-4105D01*
X-4093Y3532D01*
X-4083Y3542D01*
X-4079Y3557D01*
X-4082Y3572D01*
X-4089Y3584D01*
X-4103Y3592D01*
X-4122Y3597D01*
X-4133Y3605D01*
X-4137Y3620D01*
X-4134Y3634D01*
X-4127Y3645D01*
X-4116Y3651D01*
X-4105D01*
X-4094Y3647D01*
X-4085Y3636D01*
G01X-3902Y3526D02*
X-3863Y3651D01*
X-3824Y3526D01*
G01X-3838Y3570D02*
X-3888D01*
G01X-3770Y3526D02*
Y3651D01*
X-3731D01*
X-3719Y3645D01*
X-3711Y3636D01*
X-3708Y3620D01*
X-3711Y3603D01*
X-3721Y3592D01*
X-3731Y3586D01*
X-3770D01*
G01X-3731D02*
X-3708Y3526D01*
G01X-3584D02*
X-3646D01*
Y3651D01*
X-3584D01*
G01X-3609Y3590D02*
X-3646D01*
G01X-3386Y3651D02*
X-3349D01*
G01X-3367D02*
Y3526D01*
G01X-3386D02*
X-3349D01*
G01X-3279D02*
Y3651D01*
X-3207Y3526D01*
Y3651D01*
G01X-3035Y3526D02*
Y3651D01*
X-2995Y3547D01*
X-2955Y3651D01*
Y3526D01*
G01X-2890Y3651D02*
X-2853D01*
G01X-2871D02*
Y3526D01*
G01X-2890D02*
X-2853D01*
G01X-2778Y3651D02*
Y3526D01*
X-2716D01*
G01X-2654Y3651D02*
Y3526D01*
X-2592D01*
G01X-2518Y3651D02*
X-2481D01*
G01X-2499D02*
Y3526D01*
G01X-2518D02*
X-2481D01*
G01X-2415D02*
Y3651D01*
X-2375Y3547D01*
X-2335Y3651D01*
Y3526D01*
G01X-2220D02*
X-2282D01*
Y3651D01*
X-2220D01*
G01X-2245Y3590D02*
X-2282D01*
G01X-2127Y3651D02*
Y3526D01*
G01X-2163Y3651D02*
X-2091D01*
G01X-1972Y3526D02*
X-2034D01*
Y3651D01*
X-1972D01*
G01X-1997Y3590D02*
X-2034D01*
G01X-1910Y3526D02*
Y3651D01*
X-1871D01*
X-1859Y3645D01*
X-1851Y3636D01*
X-1848Y3620D01*
X-1851Y3603D01*
X-1861Y3592D01*
X-1871Y3586D01*
X-1910D01*
G01X-1871D02*
X-1848Y3526D01*
G01X-1788Y3542D02*
X-1775Y3532D01*
X-1761Y3526D01*
X-1749D01*
X-1737Y3532D01*
X-1727Y3542D01*
X-1723Y3557D01*
X-1726Y3572D01*
X-1733Y3584D01*
X-1747Y3592D01*
X-1766Y3597D01*
X-1777Y3605D01*
X-1781Y3620D01*
X-1778Y3634D01*
X-1771Y3645D01*
X-1760Y3651D01*
X-1749D01*
X-1738Y3647D01*
X-1729Y3636D01*
G01X-4259Y-2416D02*
X-4409Y-2441D01*
X-4259Y-2466D01*
Y-2416D01*
G01X-4437Y-2441D02*
X-4409D01*
G01Y-2265D02*
Y-2541D01*
G01X-4390Y3432D02*
Y1746D01*
G01X-4297Y-2508D02*
X-4300Y-2506D01*
Y-2501D01*
X-4297Y-2499D01*
X-4294Y-2501D01*
Y-2506D01*
X-4297Y-2508D01*
G01X-4207Y-2485D02*
X-4198Y-2495D01*
X-4187Y-2501D01*
X-4173Y-2503D01*
X-4159Y-2499D01*
X-4148Y-2491D01*
X-4141Y-2476D01*
X-4139Y-2460D01*
X-4142Y-2443D01*
X-4150Y-2433D01*
X-4161Y-2424D01*
X-4172Y-2422D01*
X-4183Y-2424D01*
X-4196Y-2433D01*
X-4192Y-2378D01*
X-4150D01*
G01X-4049Y-2503D02*
Y-2378D01*
X-4068Y-2403D01*
G01Y-2503D02*
X-4031D01*
G01X-4342Y1928D02*
X-4333Y1941D01*
X-4322Y1947D01*
X-4309Y1949D01*
X-4294Y1945D01*
X-4283Y1935D01*
X-4280Y1922D01*
X-4282Y1910D01*
X-4288Y1899D01*
X-4319Y1878D01*
X-4333Y1864D01*
X-4342Y1843D01*
X-4345Y1824D01*
X-4280D01*
G01X-4189Y1820D02*
X-4192Y1822D01*
Y1826D01*
X-4189Y1828D01*
X-4186Y1826D01*
Y1822D01*
X-4189Y1820D01*
G01X-4046Y1824D02*
Y1949D01*
X-4103Y1860D01*
X-4026D01*
G01X-3941Y1824D02*
X-3930Y1826D01*
X-3917Y1833D01*
X-3910Y1843D01*
X-3907Y1858D01*
X-3910Y1872D01*
X-3919Y1885D01*
X-3933Y1891D01*
X-3948D01*
X-3958Y1895D01*
X-3965Y1906D01*
X-3969Y1920D01*
X-3964Y1935D01*
X-3953Y1945D01*
X-3941Y1949D01*
X-3928Y1945D01*
X-3917Y1935D01*
X-3913Y1920D01*
X-3916Y1906D01*
X-3924Y1895D01*
X-3933Y1891D01*
X-3948D01*
X-3962Y1885D01*
X-3972Y1872D01*
X-3975Y1858D01*
X-3972Y1843D01*
X-3964Y1833D01*
X-3951Y1826D01*
X-3941Y1824D01*
G01X-3843Y1839D02*
X-3832Y1828D01*
X-3820Y1824D01*
X-3807Y1828D01*
X-3796Y1841D01*
X-3789Y1860D01*
X-3786Y1878D01*
Y1901D01*
X-3789Y1920D01*
X-3796Y1937D01*
X-3806Y1945D01*
X-3817Y1949D01*
X-3829Y1945D01*
X-3838Y1937D01*
X-3845Y1924D01*
X-3848Y1908D01*
X-3845Y1893D01*
X-3837Y1878D01*
X-3827Y1870D01*
X-3817Y1868D01*
X-3804Y1872D01*
X-3795Y1883D01*
X-3786Y1901D01*
G01X-3722Y1928D02*
X-3713Y1941D01*
X-3702Y1947D01*
X-3690Y1949D01*
X-3674Y1945D01*
X-3663Y1935D01*
X-3660Y1922D01*
X-3662Y1910D01*
X-3668Y1899D01*
X-3699Y1878D01*
X-3713Y1864D01*
X-3722Y1843D01*
X-3725Y1824D01*
X-3660D01*
G01X-4313Y2105D02*
Y2230D01*
X-4331Y2205D01*
G01Y2105D02*
X-4294D01*
G01X-4189Y2101D02*
X-4192Y2103D01*
Y2107D01*
X-4189Y2109D01*
X-4186Y2107D01*
Y2103D01*
X-4189Y2101D01*
G01X-4094Y2209D02*
X-4085Y2222D01*
X-4074Y2228D01*
X-4061Y2230D01*
X-4046Y2226D01*
X-4035Y2216D01*
X-4032Y2203D01*
X-4034Y2191D01*
X-4040Y2180D01*
X-4071Y2159D01*
X-4085Y2145D01*
X-4094Y2124D01*
X-4097Y2105D01*
X-4032D01*
G01X-3941D02*
Y2230D01*
X-3959Y2205D01*
G01Y2105D02*
X-3922D01*
G01X-3843Y2120D02*
X-3832Y2109D01*
X-3820Y2105D01*
X-3807Y2109D01*
X-3796Y2122D01*
X-3789Y2141D01*
X-3786Y2159D01*
Y2182D01*
X-3789Y2201D01*
X-3796Y2218D01*
X-3806Y2226D01*
X-3817Y2230D01*
X-3829Y2226D01*
X-3838Y2218D01*
X-3845Y2205D01*
X-3848Y2189D01*
X-3845Y2174D01*
X-3837Y2159D01*
X-3827Y2151D01*
X-3817Y2149D01*
X-3804Y2153D01*
X-3795Y2164D01*
X-3786Y2182D01*
G01X-3722Y2209D02*
X-3713Y2222D01*
X-3702Y2228D01*
X-3690Y2230D01*
X-3674Y2226D01*
X-3663Y2216D01*
X-3660Y2203D01*
X-3662Y2191D01*
X-3668Y2180D01*
X-3699Y2159D01*
X-3713Y2145D01*
X-3722Y2124D01*
X-3725Y2105D01*
X-3660D01*
G01X-4313Y2511D02*
X-4325Y2507D01*
X-4334Y2497D01*
X-4341Y2484D01*
X-4345Y2468D01*
X-4347Y2449D01*
X-4345Y2430D01*
X-4341Y2413D01*
X-4334Y2401D01*
X-4325Y2390D01*
X-4313Y2386D01*
X-4300Y2390D01*
X-4291Y2401D01*
X-4285Y2413D01*
X-4280Y2430D01*
X-4279Y2449D01*
X-4280Y2468D01*
X-4285Y2484D01*
X-4291Y2497D01*
X-4300Y2507D01*
X-4313Y2511D01*
G01X-4189Y2382D02*
X-4192Y2384D01*
Y2388D01*
X-4189Y2390D01*
X-4186Y2388D01*
Y2384D01*
X-4189Y2382D01*
G01X-4091Y2401D02*
X-4080Y2390D01*
X-4068Y2386D01*
X-4055Y2390D01*
X-4044Y2403D01*
X-4037Y2422D01*
X-4034Y2440D01*
Y2463D01*
X-4037Y2482D01*
X-4044Y2499D01*
X-4054Y2507D01*
X-4065Y2511D01*
X-4077Y2507D01*
X-4086Y2499D01*
X-4093Y2486D01*
X-4096Y2470D01*
X-4093Y2455D01*
X-4085Y2440D01*
X-4075Y2432D01*
X-4065Y2430D01*
X-4052Y2434D01*
X-4043Y2445D01*
X-4034Y2463D01*
G01X-3941Y2386D02*
Y2511D01*
X-3959Y2486D01*
G01Y2386D02*
X-3922D01*
G01X-3798D02*
Y2511D01*
X-3855Y2422D01*
X-3778D01*
G01X-3674Y2386D02*
Y2511D01*
X-3731Y2422D01*
X-3654D01*
G01X-4313Y2792D02*
X-4325Y2788D01*
X-4334Y2778D01*
X-4341Y2765D01*
X-4345Y2749D01*
X-4347Y2730D01*
X-4345Y2711D01*
X-4341Y2694D01*
X-4334Y2682D01*
X-4325Y2671D01*
X-4313Y2667D01*
X-4300Y2671D01*
X-4291Y2682D01*
X-4285Y2694D01*
X-4280Y2711D01*
X-4279Y2730D01*
X-4280Y2749D01*
X-4285Y2765D01*
X-4291Y2778D01*
X-4300Y2788D01*
X-4313Y2792D01*
G01X-4189Y2663D02*
X-4192Y2665D01*
Y2669D01*
X-4189Y2671D01*
X-4186Y2669D01*
Y2665D01*
X-4189Y2663D01*
G01X-4065Y2667D02*
X-4054Y2669D01*
X-4041Y2676D01*
X-4034Y2686D01*
X-4031Y2701D01*
X-4034Y2715D01*
X-4043Y2728D01*
X-4057Y2734D01*
X-4072D01*
X-4082Y2738D01*
X-4089Y2749D01*
X-4093Y2763D01*
X-4088Y2778D01*
X-4077Y2788D01*
X-4065Y2792D01*
X-4052Y2788D01*
X-4041Y2778D01*
X-4037Y2763D01*
X-4040Y2749D01*
X-4048Y2738D01*
X-4057Y2734D01*
X-4072D01*
X-4086Y2728D01*
X-4096Y2715D01*
X-4099Y2701D01*
X-4096Y2686D01*
X-4088Y2676D01*
X-4075Y2669D01*
X-4065Y2667D01*
G01X-3941D02*
Y2792D01*
X-3959Y2767D01*
G01Y2667D02*
X-3922D01*
G01X-3846Y2771D02*
X-3837Y2784D01*
X-3826Y2790D01*
X-3814Y2792D01*
X-3798Y2788D01*
X-3787Y2778D01*
X-3784Y2765D01*
X-3786Y2753D01*
X-3792Y2742D01*
X-3823Y2721D01*
X-3837Y2707D01*
X-3846Y2686D01*
X-3849Y2667D01*
X-3784D01*
G01X-3693D02*
X-3682Y2669D01*
X-3669Y2676D01*
X-3662Y2686D01*
X-3659Y2701D01*
X-3662Y2715D01*
X-3671Y2728D01*
X-3685Y2734D01*
X-3700D01*
X-3710Y2738D01*
X-3717Y2749D01*
X-3721Y2763D01*
X-3716Y2778D01*
X-3705Y2788D01*
X-3693Y2792D01*
X-3680Y2788D01*
X-3669Y2778D01*
X-3665Y2763D01*
X-3668Y2749D01*
X-3676Y2738D01*
X-3685Y2734D01*
X-3700D01*
X-3714Y2728D01*
X-3724Y2715D01*
X-3727Y2701D01*
X-3724Y2686D01*
X-3716Y2676D01*
X-3703Y2669D01*
X-3693Y2667D01*
G01X-4313Y3073D02*
X-4325Y3069D01*
X-4334Y3059D01*
X-4341Y3046D01*
X-4345Y3030D01*
X-4347Y3011D01*
X-4345Y2992D01*
X-4341Y2975D01*
X-4334Y2963D01*
X-4325Y2952D01*
X-4313Y2948D01*
X-4300Y2952D01*
X-4291Y2963D01*
X-4285Y2975D01*
X-4280Y2992D01*
X-4279Y3011D01*
X-4280Y3030D01*
X-4285Y3046D01*
X-4291Y3059D01*
X-4300Y3069D01*
X-4313Y3073D01*
G01X-4189Y2944D02*
X-4192Y2946D01*
Y2950D01*
X-4189Y2952D01*
X-4186Y2950D01*
Y2946D01*
X-4189Y2944D01*
G01X-4046Y2948D02*
Y3073D01*
X-4103Y2984D01*
X-4026D01*
G01X-3941Y3073D02*
X-3953Y3069D01*
X-3962Y3059D01*
X-3969Y3046D01*
X-3973Y3030D01*
X-3975Y3011D01*
X-3973Y2992D01*
X-3969Y2975D01*
X-3962Y2963D01*
X-3953Y2952D01*
X-3941Y2948D01*
X-3928Y2952D01*
X-3919Y2963D01*
X-3913Y2975D01*
X-3908Y2992D01*
X-3907Y3011D01*
X-3908Y3030D01*
X-3913Y3046D01*
X-3919Y3059D01*
X-3928Y3069D01*
X-3941Y3073D01*
G01X-3846Y3000D02*
X-3835Y3015D01*
X-3826Y3023D01*
X-3814Y3027D01*
X-3803Y3023D01*
X-3795Y3015D01*
X-3789Y3002D01*
X-3787Y2988D01*
X-3789Y2975D01*
X-3795Y2963D01*
X-3804Y2952D01*
X-3815Y2948D01*
X-3827Y2952D01*
X-3838Y2965D01*
X-3845Y2984D01*
X-3846Y3005D01*
X-3843Y3032D01*
X-3838Y3046D01*
X-3831Y3061D01*
X-3820Y3071D01*
X-3809Y3073D01*
X-3798Y3069D01*
X-3790Y3059D01*
G01X-3674Y2948D02*
Y3073D01*
X-3731Y2984D01*
X-3654D01*
G01X-4221Y3261D02*
X-4209Y3251D01*
X-4195Y3245D01*
X-4182D01*
X-4170Y3251D01*
X-4161Y3261D01*
X-4156Y3276D01*
X-4159Y3291D01*
X-4167Y3303D01*
X-4181Y3311D01*
X-4199Y3316D01*
X-4210Y3324D01*
X-4215Y3339D01*
X-4212Y3353D01*
X-4204Y3364D01*
X-4193Y3370D01*
X-4182D01*
X-4172Y3366D01*
X-4162Y3355D01*
G01X-4083Y3370D02*
X-4046D01*
G01X-4065D02*
Y3245D01*
G01X-4083D02*
X-4046D01*
G01X-3970Y3370D02*
X-3911D01*
X-3970Y3245D01*
X-3911D01*
G01X-3786D02*
X-3848D01*
Y3370D01*
X-3786D01*
G01X-3810Y3309D02*
X-3848D01*
G01X-4083Y3782D02*
Y3907D01*
X-4052D01*
X-4040Y3900D01*
X-4031Y3892D01*
X-4023Y3880D01*
X-4017Y3865D01*
X-4015Y3844D01*
X-4017Y3823D01*
X-4023Y3809D01*
X-4031Y3796D01*
X-4040Y3788D01*
X-4052Y3782D01*
X-4083D01*
G01X-3956D02*
Y3907D01*
X-3917D01*
X-3905Y3900D01*
X-3897Y3892D01*
X-3894Y3875D01*
X-3897Y3859D01*
X-3907Y3848D01*
X-3917Y3842D01*
X-3956D01*
G01X-3917D02*
X-3894Y3782D01*
G01X-3820Y3907D02*
X-3783D01*
G01X-3801D02*
Y3782D01*
G01X-3820D02*
X-3783D01*
G01X-3708Y3907D02*
Y3782D01*
X-3646D01*
G01X-3584Y3907D02*
Y3782D01*
X-3522D01*
G01X-3271Y3896D02*
X-3280Y3903D01*
X-3291Y3907D01*
X-3304D01*
X-3318Y3900D01*
X-3328Y3890D01*
X-3336Y3878D01*
X-3342Y3857D01*
X-3344Y3838D01*
X-3341Y3819D01*
X-3336Y3807D01*
X-3327Y3794D01*
X-3316Y3786D01*
X-3305Y3782D01*
X-3294D01*
X-3283Y3786D01*
X-3274Y3792D01*
X-3266Y3800D01*
G01X-3214Y3782D02*
Y3907D01*
G01X-3149D02*
Y3782D01*
G01Y3844D02*
X-3214D01*
G01X-3096Y3782D02*
X-3057Y3907D01*
X-3018Y3782D01*
G01X-3032Y3825D02*
X-3082D01*
G01X-2964Y3782D02*
Y3907D01*
X-2925D01*
X-2913Y3900D01*
X-2905Y3892D01*
X-2902Y3875D01*
X-2905Y3859D01*
X-2915Y3848D01*
X-2925Y3842D01*
X-2964D01*
G01X-2925D02*
X-2902Y3782D01*
G01X-2809Y3907D02*
Y3782D01*
G01X-2845Y3907D02*
X-2773D01*
G01X-3898Y-2265D02*
Y-2541D01*
G01X-3926Y-2441D02*
X-3898D01*
G01X-3748Y-2416D02*
X-3898Y-2441D01*
X-3748Y-2466D01*
Y-2416D01*
G01X-3785Y-2508D02*
X-3789Y-2506D01*
Y-2501D01*
X-3785Y-2499D01*
X-3782Y-2501D01*
Y-2506D01*
X-3785Y-2508D01*
G01X-3696Y-2485D02*
X-3686Y-2495D01*
X-3675Y-2501D01*
X-3661Y-2503D01*
X-3647Y-2499D01*
X-3637Y-2491D01*
X-3629Y-2476D01*
X-3627Y-2460D01*
X-3630Y-2443D01*
X-3638Y-2433D01*
X-3649Y-2424D01*
X-3660Y-2422D01*
X-3671Y-2424D01*
X-3685Y-2433D01*
X-3680Y-2378D01*
X-3638D01*
G01X-3537Y-2503D02*
Y-2378D01*
X-3556Y-2403D01*
G01Y-2503D02*
X-3519D01*
G01X-4048Y-2466D02*
X-3898Y-2441D01*
X-4048Y-2416D01*
Y-2466D01*
G01X-3909Y-2441D02*
X-3898D01*
G01Y-2265D02*
Y-2541D01*
G01X-4002Y1060D02*
X-3999Y1087D01*
X-3994Y1110D01*
X-3988Y1130D01*
X-3980Y1153D01*
X-3968Y1185D01*
X-4030D01*
G01X-3875D02*
X-3887Y1180D01*
X-3897Y1170D01*
X-3903Y1157D01*
X-3908Y1141D01*
X-3909Y1122D01*
X-3908Y1103D01*
X-3903Y1087D01*
X-3897Y1074D01*
X-3887Y1064D01*
X-3875Y1060D01*
X-3863Y1064D01*
X-3853Y1074D01*
X-3847Y1087D01*
X-3842Y1103D01*
X-3841Y1122D01*
X-3842Y1141D01*
X-3847Y1157D01*
X-3853Y1170D01*
X-3863Y1180D01*
X-3875Y1185D01*
G01X-4002Y1315D02*
X-3999Y1343D01*
X-3994Y1365D01*
X-3988Y1386D01*
X-3980Y1409D01*
X-3968Y1440D01*
X-4030D01*
G01X-3904Y1420D02*
X-3895Y1432D01*
X-3884Y1438D01*
X-3872Y1440D01*
X-3856Y1436D01*
X-3846Y1426D01*
X-3842Y1413D01*
X-3844Y1401D01*
X-3850Y1390D01*
X-3881Y1370D01*
X-3895Y1355D01*
X-3904Y1334D01*
X-3908Y1315D01*
X-3842D01*
G01X-3536Y-2466D02*
X-3386Y-2441D01*
X-3536Y-2416D01*
Y-2466D01*
G01X-3735Y1122D02*
X-2500D01*
G01X-3735Y1378D02*
X-2461D01*
G01X-3615Y3432D02*
Y1746D01*
G01X-3573Y1824D02*
Y1949D01*
X-3502Y1824D01*
Y1949D01*
G01X-3414Y1824D02*
X-3426Y1826D01*
X-3437Y1835D01*
X-3446Y1847D01*
X-3452Y1862D01*
X-3455Y1878D01*
Y1895D01*
X-3452Y1912D01*
X-3446Y1926D01*
X-3437Y1939D01*
X-3426Y1947D01*
X-3414Y1949D01*
X-3401Y1947D01*
X-3390Y1939D01*
X-3381Y1926D01*
X-3375Y1912D01*
X-3372Y1895D01*
Y1878D01*
X-3375Y1862D01*
X-3381Y1847D01*
X-3390Y1835D01*
X-3401Y1826D01*
X-3414Y1824D01*
G01X-3325D02*
Y1949D01*
X-3254Y1824D01*
Y1949D01*
G01X-3186Y1866D02*
X-3145D01*
G01X-3073Y1824D02*
Y1949D01*
X-3035D01*
X-3023Y1943D01*
X-3014Y1928D01*
X-3011Y1912D01*
X-3014Y1895D01*
X-3021Y1883D01*
X-3035Y1876D01*
X-3073D01*
G01X-2949Y1949D02*
Y1824D01*
X-2887D01*
G01X-2832D02*
X-2794Y1949D01*
X-2755Y1824D01*
G01X-2769Y1868D02*
X-2818D01*
G01X-2670Y1949D02*
Y1824D01*
G01X-2705Y1949D02*
X-2634D01*
G01X-2515Y1824D02*
X-2577D01*
Y1949D01*
X-2515D01*
G01X-2539Y1889D02*
X-2577D01*
G01X-2456Y1824D02*
Y1949D01*
X-2425D01*
X-2412Y1943D01*
X-2403Y1935D01*
X-2395Y1922D01*
X-2389Y1908D01*
X-2388Y1887D01*
X-2389Y1866D01*
X-2395Y1851D01*
X-2403Y1839D01*
X-2412Y1831D01*
X-2425Y1824D01*
X-2456D01*
G01X-3386Y-2265D02*
Y-2541D01*
G01X-3414Y-2441D02*
X-3386D01*
G01X-3236Y-2416D02*
X-3386Y-2441D01*
X-3236Y-2466D01*
Y-2416D01*
G01X-3274Y-2508D02*
X-3277Y-2506D01*
Y-2501D01*
X-3274Y-2499D01*
X-3271Y-2501D01*
Y-2506D01*
X-3274Y-2508D01*
G01X-3184Y-2485D02*
X-3174Y-2495D01*
X-3164Y-2501D01*
X-3150Y-2503D01*
X-3136Y-2499D01*
X-3125Y-2491D01*
X-3117Y-2476D01*
X-3116Y-2460D01*
X-3119Y-2443D01*
X-3126Y-2433D01*
X-3137Y-2424D01*
X-3148Y-2422D01*
X-3159Y-2424D01*
X-3173Y-2433D01*
X-3168Y-2378D01*
X-3126D01*
G01X-3026Y-2503D02*
Y-2378D01*
X-3044Y-2403D01*
G01Y-2503D02*
X-3007D01*
G01X-3386Y-2265D02*
Y-2541D01*
G01X-3397Y-2441D02*
X-3386D01*
G01X-3321Y2105D02*
Y2230D01*
X-3283D01*
X-3271Y2224D01*
X-3262Y2209D01*
X-3259Y2193D01*
X-3262Y2176D01*
X-3269Y2164D01*
X-3283Y2157D01*
X-3321D01*
G01X-3197Y2230D02*
Y2105D01*
X-3135D01*
G01X-3080D02*
X-3042Y2230D01*
X-3003Y2105D01*
G01X-3017Y2149D02*
X-3066D01*
G01X-2918Y2230D02*
Y2105D01*
G01X-2953Y2230D02*
X-2882D01*
G01X-2763Y2105D02*
X-2825D01*
Y2230D01*
X-2763D01*
G01X-2787Y2170D02*
X-2825D01*
G01X-2704Y2105D02*
Y2230D01*
X-2673D01*
X-2660Y2224D01*
X-2651Y2216D01*
X-2643Y2203D01*
X-2637Y2189D01*
X-2636Y2168D01*
X-2637Y2147D01*
X-2643Y2132D01*
X-2651Y2120D01*
X-2660Y2112D01*
X-2673Y2105D01*
X-2704D01*
G01X-3321Y2386D02*
Y2511D01*
X-3283D01*
X-3271Y2505D01*
X-3262Y2490D01*
X-3259Y2474D01*
X-3262Y2457D01*
X-3269Y2445D01*
X-3283Y2438D01*
X-3321D01*
G01X-3197Y2511D02*
Y2386D01*
X-3135D01*
G01X-3080D02*
X-3042Y2511D01*
X-3003Y2386D01*
G01X-3017Y2430D02*
X-3066D01*
G01X-2918Y2511D02*
Y2386D01*
G01X-2953Y2511D02*
X-2882D01*
G01X-2763Y2386D02*
X-2825D01*
Y2511D01*
X-2763D01*
G01X-2787Y2451D02*
X-2825D01*
G01X-2704Y2386D02*
Y2511D01*
X-2673D01*
X-2660Y2505D01*
X-2651Y2497D01*
X-2643Y2484D01*
X-2637Y2470D01*
X-2636Y2449D01*
X-2637Y2428D01*
X-2643Y2413D01*
X-2651Y2401D01*
X-2660Y2393D01*
X-2673Y2386D01*
X-2704D01*
G01X-3321Y2667D02*
Y2792D01*
X-3283D01*
X-3271Y2786D01*
X-3262Y2771D01*
X-3259Y2755D01*
X-3262Y2738D01*
X-3269Y2726D01*
X-3283Y2719D01*
X-3321D01*
G01X-3197Y2792D02*
Y2667D01*
X-3135D01*
G01X-3080D02*
X-3042Y2792D01*
X-3003Y2667D01*
G01X-3017Y2711D02*
X-3066D01*
G01X-2918Y2792D02*
Y2667D01*
G01X-2953Y2792D02*
X-2882D01*
G01X-2763Y2667D02*
X-2825D01*
Y2792D01*
X-2763D01*
G01X-2787Y2732D02*
X-2825D01*
G01X-2704Y2667D02*
Y2792D01*
X-2673D01*
X-2660Y2786D01*
X-2651Y2778D01*
X-2643Y2765D01*
X-2637Y2751D01*
X-2636Y2730D01*
X-2637Y2709D01*
X-2643Y2694D01*
X-2651Y2682D01*
X-2660Y2674D01*
X-2673Y2667D01*
X-2704D01*
G01X-3321Y2948D02*
Y3073D01*
X-3283D01*
X-3271Y3067D01*
X-3262Y3052D01*
X-3259Y3036D01*
X-3262Y3019D01*
X-3269Y3007D01*
X-3283Y3000D01*
X-3321D01*
G01X-3197Y3073D02*
Y2948D01*
X-3135D01*
G01X-3080D02*
X-3042Y3073D01*
X-3003Y2948D01*
G01X-3017Y2992D02*
X-3066D01*
G01X-2918Y3073D02*
Y2948D01*
G01X-2953Y3073D02*
X-2882D01*
G01X-2763Y2948D02*
X-2825D01*
Y3073D01*
X-2763D01*
G01X-2787Y3013D02*
X-2825D01*
G01X-2704Y2948D02*
Y3073D01*
X-2673D01*
X-2660Y3067D01*
X-2651Y3059D01*
X-2643Y3046D01*
X-2637Y3032D01*
X-2636Y3011D01*
X-2637Y2990D01*
X-2643Y2975D01*
X-2651Y2963D01*
X-2660Y2955D01*
X-2673Y2948D01*
X-2704D01*
G01X-3321Y3245D02*
Y3370D01*
X-3283D01*
X-3271Y3364D01*
X-3262Y3349D01*
X-3259Y3332D01*
X-3262Y3316D01*
X-3269Y3303D01*
X-3283Y3297D01*
X-3321D01*
G01X-3197Y3370D02*
Y3245D01*
X-3135D01*
G01X-3080D02*
X-3042Y3370D01*
X-3003Y3245D01*
G01X-3017Y3289D02*
X-3066D01*
G01X-2918Y3370D02*
Y3245D01*
G01X-2953Y3370D02*
X-2882D01*
G01X-2763Y3245D02*
X-2825D01*
Y3370D01*
X-2763D01*
G01X-2787Y3309D02*
X-2825D01*
G01X-2704Y3245D02*
Y3370D01*
X-2673D01*
X-2660Y3364D01*
X-2651Y3355D01*
X-2643Y3343D01*
X-2637Y3328D01*
X-2636Y3307D01*
X-2637Y3286D01*
X-2643Y3272D01*
X-2651Y3259D01*
X-2660Y3251D01*
X-2673Y3245D01*
X-2704D01*
G01X-2874Y-2265D02*
Y-2541D01*
G01X-2902Y-2441D02*
X-2874D01*
G01X-2724Y-2416D02*
X-2874Y-2441D01*
X-2724Y-2466D01*
Y-2416D01*
G01X-2874Y-2265D02*
Y-2541D01*
G01X-2885Y-2441D02*
X-2874D01*
G01X-3024Y-2466D02*
X-2874Y-2441D01*
X-3024Y-2416D01*
Y-2466D01*
G01X-2762Y-2508D02*
X-2765Y-2506D01*
Y-2501D01*
X-2762Y-2499D01*
X-2759Y-2501D01*
Y-2506D01*
X-2762Y-2508D01*
G01X-2672Y-2485D02*
X-2663Y-2495D01*
X-2652Y-2501D01*
X-2638Y-2503D01*
X-2624Y-2499D01*
X-2613Y-2491D01*
X-2605Y-2476D01*
X-2604Y-2460D01*
X-2607Y-2443D01*
X-2615Y-2433D01*
X-2625Y-2424D01*
X-2636Y-2422D01*
X-2647Y-2424D01*
X-2661Y-2433D01*
X-2656Y-2378D01*
X-2615D01*
G01X-2514Y-2503D02*
Y-2378D01*
X-2532Y-2403D01*
G01Y-2503D02*
X-2495D01*
G01X-2618Y1353D02*
X-2461Y1378D01*
X-2618Y1403D01*
Y1353D01*
G01X-2657Y1097D02*
X-2500Y1122D01*
X-2657Y1147D01*
Y1097D01*
G01X-2362Y-2265D02*
Y-2541D01*
G01X-2374Y-2441D02*
X-2362D01*
G01X-2512Y-2466D02*
X-2362Y-2441D01*
X-2512Y-2416D01*
Y-2466D01*
G01X-2461Y-1791D02*
X-2028D01*
G01X-2341Y-562D02*
X-2331Y-547D01*
X-2321Y-539D01*
X-2309Y-535D01*
X-2298Y-539D01*
X-2290Y-547D01*
X-2284Y-560D01*
X-2283Y-574D01*
X-2284Y-587D01*
X-2290Y-599D01*
X-2300Y-610D01*
X-2310Y-614D01*
X-2323Y-610D01*
X-2334Y-597D01*
X-2340Y-578D01*
X-2341Y-557D01*
X-2338Y-530D01*
X-2334Y-516D01*
X-2326Y-501D01*
X-2315Y-491D01*
X-2304Y-489D01*
X-2293Y-493D01*
X-2286Y-503D01*
G01X-2214Y-599D02*
X-2203Y-610D01*
X-2191Y-614D01*
X-2179Y-610D01*
X-2168Y-597D01*
X-2160Y-578D01*
X-2157Y-560D01*
Y-537D01*
X-2160Y-518D01*
X-2168Y-501D01*
X-2177Y-493D01*
X-2188Y-489D01*
X-2200Y-493D01*
X-2210Y-501D01*
X-2216Y-514D01*
X-2219Y-530D01*
X-2216Y-545D01*
X-2208Y-560D01*
X-2199Y-568D01*
X-2188Y-570D01*
X-2176Y-566D01*
X-2166Y-555D01*
X-2157Y-537D01*
G01X-2064Y-618D02*
X-2067Y-616D01*
Y-612D01*
X-2064Y-610D01*
X-2061Y-612D01*
Y-616D01*
X-2064Y-618D01*
G01X-1974Y-595D02*
X-1965Y-605D01*
X-1954Y-612D01*
X-1940Y-614D01*
X-1926Y-610D01*
X-1915Y-601D01*
X-1907Y-587D01*
X-1906Y-570D01*
X-1909Y-553D01*
X-1917Y-543D01*
X-1928Y-535D01*
X-1938Y-532D01*
X-1949Y-535D01*
X-1963Y-543D01*
X-1959Y-489D01*
X-1917D01*
G01X-2461Y748D02*
Y1476D01*
G01X-2500Y945D02*
X-2028D01*
G01X-2500Y1014D02*
Y1220D01*
G01X-2344Y3432D02*
Y1746D01*
G01X-2151Y-1634D02*
X-2126Y-1791D01*
X-2101Y-1634D01*
X-2151D01*
G01X-2126Y-707D02*
Y-1791D01*
G01Y-395D02*
Y945D01*
G01X-2101Y787D02*
X-2126Y945D01*
X-2151Y787D01*
X-2101D01*
G01X-1938Y1824D02*
Y1949D01*
X-1995Y1860D01*
X-1918D01*
G01X-1991Y2130D02*
X-1981Y2116D01*
X-1969Y2107D01*
X-1955Y2105D01*
X-1943Y2107D01*
X-1930Y2118D01*
X-1923Y2130D01*
X-1921Y2143D01*
X-1924Y2157D01*
X-1935Y2168D01*
X-1946Y2172D01*
X-1960D01*
G01X-1946D02*
X-1936Y2178D01*
X-1929Y2189D01*
X-1926Y2201D01*
X-1929Y2214D01*
X-1936Y2224D01*
X-1950Y2230D01*
X-1964Y2228D01*
X-1978Y2220D01*
G01X-2019Y2386D02*
Y2511D01*
X-2037Y2486D01*
G01Y2386D02*
X-2000D01*
G01X-1929Y2405D02*
X-1919Y2395D01*
X-1909Y2388D01*
X-1895Y2386D01*
X-1881Y2390D01*
X-1870Y2399D01*
X-1862Y2413D01*
X-1861Y2430D01*
X-1864Y2447D01*
X-1871Y2457D01*
X-1882Y2465D01*
X-1893Y2468D01*
X-1904Y2465D01*
X-1918Y2457D01*
X-1913Y2511D01*
X-1871D01*
G01X-2048Y2771D02*
X-2039Y2784D01*
X-2028Y2790D01*
X-2016Y2792D01*
X-2000Y2788D01*
X-1989Y2778D01*
X-1986Y2765D01*
X-1988Y2753D01*
X-1994Y2742D01*
X-2025Y2721D01*
X-2039Y2707D01*
X-2048Y2686D01*
X-2051Y2667D01*
X-1986D01*
G01X-1876D02*
Y2792D01*
X-1933Y2703D01*
X-1856D01*
G01X-2053Y2967D02*
X-2043Y2957D01*
X-2033Y2950D01*
X-2019Y2948D01*
X-2005Y2952D01*
X-1994Y2961D01*
X-1986Y2975D01*
X-1985Y2992D01*
X-1988Y3009D01*
X-1995Y3019D01*
X-2006Y3027D01*
X-2017Y3030D01*
X-2028Y3027D01*
X-2042Y3019D01*
X-2037Y3073D01*
X-1995D01*
G01X-1929Y2967D02*
X-1919Y2957D01*
X-1909Y2950D01*
X-1895Y2948D01*
X-1881Y2952D01*
X-1870Y2961D01*
X-1862Y2975D01*
X-1861Y2992D01*
X-1864Y3009D01*
X-1871Y3019D01*
X-1882Y3027D01*
X-1893Y3030D01*
X-1904Y3027D01*
X-1918Y3019D01*
X-1913Y3073D01*
X-1871D01*
G01X-2081Y3245D02*
X-2093Y3247D01*
X-2104Y3255D01*
X-2113Y3268D01*
X-2119Y3282D01*
X-2122Y3299D01*
Y3316D01*
X-2119Y3332D01*
X-2113Y3347D01*
X-2104Y3359D01*
X-2093Y3368D01*
X-2081Y3370D01*
X-2068Y3368D01*
X-2057Y3359D01*
X-2048Y3347D01*
X-2042Y3332D01*
X-2039Y3316D01*
Y3299D01*
X-2042Y3282D01*
X-2048Y3268D01*
X-2057Y3255D01*
X-2068Y3247D01*
X-2081Y3245D01*
G01X-2068Y3278D02*
X-2050Y3245D01*
G01X-1957Y3370D02*
Y3245D01*
G01X-1992Y3370D02*
X-1921D01*
G01X-1833Y3245D02*
Y3301D01*
X-1864Y3370D01*
G01X-1802D02*
X-1833Y3301D01*
M02*
