G04 ================== begin FILE IDENTIFICATION RECORD ==================*
G04 Layout Name:  E:\qpll-only-UOB-HEP-PC005A\worklib\qpll\physical\pc005-placed-e.brd*
G04 Film Name:    GND*
G04 File Format:  Gerber RS274X*
G04 File Origin:  -unreleased*
G04 Origin Date:  Mon Jun 30 11:29:02 2003*
G04 ================== end FILE IDENTIFICATION RECORD ====================*
%FSLAX53Y53*MOIN*%
%IR0*IPPOS*OFA0.00000B0.00000*MIA0B0*SFA1.00000B1.00000*%
%ADD11C,.032*%
%ADD15C,.06*%
%ADD10C,.056*%
%ADD14C,.064*%
%ADD13C,.096*%
%ADD12C,.072*%
%ADD16C,.007874*%
%ADD17C,.005906*%
%ADD23C,.08*%
%ADD24C,.084*%
%ADD18C,.048*%
%ADD20C,.044*%
%ADD26C,.076*%
%ADD25R,.374016X.187008*%
%ADD19C,.18*%
%ADD21C,.096*%
%ADD22C,.092*%
G75*
%LPD*%
G75*
G36*
G01X-5256Y-1762D02*
Y915D01*
X-2500D01*
Y-1762D01*
X-5256D01*
G37*
%LPC*%
G75*
G36*
G01X-2574Y-94D02*
X-2717D01*
Y295D01*
X-2574D01*
Y94D01*
X-2546D01*
Y-9D01*
X-2574D01*
Y-94D01*
G37*
G54D23*
X-4428Y-69D03*
X-4414Y-393D03*
Y-493D03*
Y-593D03*
Y-693D03*
Y-793D03*
Y-893D03*
Y-993D03*
Y-1093D03*
X-3068Y-1278D03*
X-3368D03*
X-3580D03*
X-3880D03*
X-4091D03*
X-4391D03*
X-4800D03*
X-5100D03*
X-2736Y-1575D03*
X-3068Y-1578D03*
X-3368D03*
X-3580D03*
X-3880D03*
X-4091D03*
X-4391D03*
X-4800D03*
X-5100D03*
G54D24*
X-4528Y-69D03*
X-2636Y-1475D03*
X-2836D03*
X-2636Y-1675D03*
X-2836D03*
G54D18*
X-4449Y807D03*
X-4774Y610D03*
X-4360Y325D03*
X-4409Y167D03*
X-4321Y98D03*
X-4409Y69D03*
X-3799Y-20D03*
X-3553Y-128D03*
X-4547Y-187D03*
X-3809Y-207D03*
X-4035Y-246D03*
X-4154D03*
X-4941Y-305D03*
X-5020D03*
X-2894Y-315D03*
X-3337D03*
X-4016Y-404D03*
X-4547Y-463D03*
X-3740Y-482D03*
X-4321D03*
X-4872Y-492D03*
X-4173Y-516D03*
X-5197Y-610D03*
X-4311Y-640D03*
X-4695Y-679D03*
Y-778D03*
X-4823Y-797D03*
X-4193Y-827D03*
X-4695Y-876D03*
X-4705Y-984D03*
X-3041Y-1093D03*
X-3386D03*
X-2598Y-1348D03*
X-2874D03*
G54D20*
X-4163Y512D03*
X-4518Y276D03*
X-3927Y226D03*
X-4675D03*
X-4724Y69D03*
X-3337Y-148D03*
X-4626Y-187D03*
X-3494Y-226D03*
X-3179Y-315D03*
X-3494D03*
X-4016Y-325D03*
X-4094Y-344D03*
X-3504Y-413D03*
X-4094Y-423D03*
X-4626Y-463D03*
X-4271Y-466D03*
X-3337Y-482D03*
X-5103Y-492D03*
X-3671Y-512D03*
X-4085D03*
X-4498D03*
G54D26*
X-3168Y-1378D03*
X-3268D03*
X-3680D03*
X-3780D03*
X-4191D03*
X-4291D03*
X-4900D03*
X-5000D03*
G54D25*
X-4154Y-123D03*
G54D19*
X-2677Y748D03*
X-5079D03*
X-2874Y-1142D03*
X-4606D03*
G54D21*
X-5030Y522D03*
Y325D03*
G54D22*
Y128D03*
%LPD*%
G75*
G54D10*
X-5000Y-1378D03*
X-5100Y-1578D03*
Y-1278D03*
X-4900Y-1378D03*
X-4800Y-1578D03*
Y-1278D03*
X-4391Y-1578D03*
Y-1278D03*
X-4291Y-1378D03*
X-4191D03*
X-4091Y-1578D03*
Y-1278D03*
X-3780Y-1378D03*
X-3880Y-1578D03*
Y-1278D03*
X-3680Y-1378D03*
X-3580Y-1578D03*
Y-1278D03*
X-3268Y-1378D03*
X-3168D03*
X-3368Y-1578D03*
Y-1278D03*
X-3068Y-1578D03*
Y-1278D03*
G54D11*
X-5103Y-492D03*
X-5197Y-610D03*
X-5020Y-305D03*
X-4695Y-876D03*
Y-778D03*
X-4705Y-984D03*
X-4823Y-797D03*
X-4695Y-679D03*
X-4872Y-492D03*
X-4941Y-305D03*
X-4724Y69D03*
X-4675Y226D03*
X-4774Y610D03*
X-4498Y-512D03*
X-4626Y-463D03*
X-4547D03*
X-4626Y-187D03*
X-4547D03*
X-4409Y167D03*
Y69D03*
X-4518Y276D03*
X-4360Y325D03*
X-4449Y807D03*
X-4193Y-827D03*
X-4271Y-466D03*
X-4085Y-512D03*
X-4094Y-423D03*
X-4311Y-640D03*
X-4321Y-482D03*
X-4173Y-516D03*
X-4094Y-344D03*
X-4154Y-246D03*
X-4321Y98D03*
X-4163Y512D03*
X-4016Y-325D03*
Y-404D03*
X-4035Y-246D03*
X-3809Y-207D03*
X-3799Y-20D03*
X-3927Y226D03*
X-3671Y-512D03*
X-3740Y-482D03*
X-3504Y-413D03*
X-3494Y-226D03*
Y-315D03*
X-3553Y-128D03*
X-3386Y-1093D03*
X-3337Y-482D03*
Y-148D03*
X-3179Y-315D03*
X-3337D03*
X-2874Y-1348D03*
X-3041Y-1093D03*
X-2894Y-315D03*
X-2598Y-1348D03*
G54D12*
X-5030Y128D03*
Y325D03*
Y522D03*
G54D13*
X-5079Y748D03*
X-4606Y-1142D03*
X-2874D03*
X-2677Y748D03*
G54D14*
X-4414Y-1093D03*
X-4528Y-69D03*
G54D15*
X-4414Y-993D03*
Y-893D03*
Y-793D03*
Y-693D03*
Y-593D03*
Y-493D03*
Y-393D03*
X-4428Y-69D03*
X-2836Y-1675D03*
Y-1475D03*
X-2636Y-1675D03*
X-2736Y-1575D03*
X-2636Y-1475D03*
G54D16*
G01X-2677Y19D02*
X-2687Y26D01*
X-2692Y35D01*
X-2694Y45D01*
X-2690Y57D01*
X-2682Y66D01*
X-2672Y69D01*
X-2662Y67D01*
X-2654Y62D01*
X-2637Y37D01*
X-2625Y26D01*
X-2608Y19D01*
X-2594Y16D01*
Y69D01*
G54D17*
G01X-5145Y-1578D02*
X-5100D01*
G01D02*
X-5055D01*
G01X-5100Y-1623D02*
Y-1578D01*
G01D02*
Y-1533D01*
G01X-5145Y-1278D02*
X-5100D01*
G01D02*
X-5055D01*
G01X-5100Y-1323D02*
Y-1278D01*
G01D02*
Y-1233D01*
G01X-5222Y-585D02*
X-5197Y-610D01*
G01D02*
X-5171Y-636D01*
G01X-5222D02*
X-5197Y-610D01*
G01D02*
X-5171Y-585D01*
G01X-5045Y-280D02*
X-5020Y-305D01*
G01D02*
X-4994Y-331D01*
G01X-5045D02*
X-5020Y-305D01*
G01D02*
X-4994Y-280D01*
G01X-4966D02*
X-4941Y-305D01*
G01X-4966Y-331D02*
X-4941Y-305D01*
G01X-5083Y325D02*
X-5030D01*
G01D02*
X-4977D01*
G01X-5030Y272D02*
Y325D01*
G01D02*
Y378D01*
G01X-5083Y522D02*
X-5030D01*
G01D02*
X-4977D01*
G01X-5030Y469D02*
Y522D01*
G01D02*
Y575D01*
G01X-4845Y-1578D02*
X-4800D01*
G01D02*
X-4755D01*
G01X-4800Y-1623D02*
Y-1578D01*
G01D02*
Y-1533D01*
G01X-4845Y-1278D02*
X-4800D01*
G01D02*
X-4755D01*
G01X-4800Y-1323D02*
Y-1278D01*
G01D02*
Y-1233D01*
G01X-4720Y-850D02*
X-4695Y-876D01*
G01D02*
X-4669Y-901D01*
G01X-4720D02*
X-4695Y-876D01*
G01D02*
X-4669Y-850D01*
G01X-4720Y-752D02*
X-4695Y-778D01*
G01D02*
X-4669Y-803D01*
G01X-4720D02*
X-4695Y-778D01*
G01D02*
X-4669Y-752D01*
G01X-4730Y-959D02*
X-4705Y-984D01*
G01D02*
X-4679Y-1010D01*
G01X-4730D02*
X-4705Y-984D01*
G01D02*
X-4679Y-959D01*
G01X-4848Y-772D02*
X-4823Y-797D01*
G01D02*
X-4797Y-823D01*
G01X-4848D02*
X-4823Y-797D01*
G01D02*
X-4797Y-772D01*
G01X-4720Y-654D02*
X-4695Y-679D01*
G01D02*
X-4669Y-705D01*
G01X-4720D02*
X-4695Y-679D01*
G01D02*
X-4669Y-654D01*
G01X-4898Y-467D02*
X-4872Y-492D01*
G01D02*
X-4847Y-518D01*
G01X-4898D02*
X-4872Y-492D01*
G01D02*
X-4847Y-467D01*
G01X-4941Y-305D02*
X-4915Y-331D01*
G01X-4941Y-305D02*
X-4915Y-280D01*
G01X-4799Y636D02*
X-4774Y610D01*
G01D02*
X-4748Y585D01*
G01X-4799D02*
X-4774Y610D01*
G01D02*
X-4748Y636D01*
G01X-4436Y-1578D02*
X-4391D01*
G01D02*
X-4346D01*
G01X-4391Y-1623D02*
Y-1578D01*
G01D02*
Y-1533D01*
G01X-4436Y-1278D02*
X-4391D01*
G01D02*
X-4346D01*
G01X-4391Y-1323D02*
Y-1278D01*
G01D02*
Y-1233D01*
G01X-4573Y-437D02*
X-4547Y-463D01*
G01D02*
X-4522Y-488D01*
G01X-4573D02*
X-4547Y-463D01*
G01D02*
X-4522Y-437D01*
G01X-4573Y-162D02*
X-4547Y-187D01*
G01D02*
X-4522Y-213D01*
G01X-4573D02*
X-4547Y-187D01*
G01D02*
X-4522Y-162D01*
G01X-4409Y167D02*
X-4384Y142D01*
G01X-4435D02*
X-4409Y167D01*
G01X-4435Y94D02*
X-4409Y69D01*
G01D02*
X-4384Y43D01*
G01X-4435D02*
X-4409Y69D01*
G01D02*
X-4384Y94D01*
G01X-4575Y-69D02*
X-4528D01*
G01D02*
X-4481D01*
G01X-4528Y-116D02*
Y-69D01*
G01D02*
Y-22D01*
G01X-4435Y193D02*
X-4409Y167D01*
G01D02*
X-4384Y193D01*
G01X-4386Y350D02*
X-4360Y325D01*
G01X-4386Y299D02*
X-4360Y325D01*
G01X-4474Y833D02*
X-4449Y807D01*
G01D02*
X-4423Y782D01*
G01X-4474D02*
X-4449Y807D01*
G01D02*
X-4423Y833D01*
G01X-4136Y-1578D02*
X-4091D01*
G01D02*
X-4046D01*
G01X-4091Y-1623D02*
Y-1578D01*
G01D02*
Y-1533D01*
G01X-4136Y-1278D02*
X-4091D01*
G01D02*
X-4046D01*
G01X-4091Y-1323D02*
Y-1278D01*
G01D02*
Y-1233D01*
G01X-4218Y-801D02*
X-4193Y-827D01*
G01D02*
X-4167Y-852D01*
G01X-4218D02*
X-4193Y-827D01*
G01D02*
X-4167Y-801D01*
G01X-4337Y-614D02*
X-4311Y-640D01*
G01D02*
X-4286Y-665D01*
G01X-4337D02*
X-4311Y-640D01*
G01D02*
X-4286Y-614D01*
G01X-4346Y-457D02*
X-4321Y-482D01*
G01D02*
X-4295Y-508D01*
G01X-4346D02*
X-4321Y-482D01*
G01D02*
X-4295Y-457D01*
G01X-4199Y-491D02*
X-4173Y-516D01*
G01D02*
X-4148Y-542D01*
G01X-4199D02*
X-4173Y-516D01*
G01D02*
X-4148Y-491D01*
G01X-4179Y-221D02*
X-4154Y-246D01*
G01D02*
X-4128Y-272D01*
G01X-4179D02*
X-4154Y-246D01*
G01D02*
X-4128Y-221D01*
G01X-4346Y124D02*
X-4321Y98D01*
G01D02*
X-4295Y73D01*
G01X-4346D02*
X-4321Y98D01*
G01D02*
X-4295Y124D01*
G01X-4360Y325D02*
X-4335Y299D01*
G01X-4360Y325D02*
X-4335Y350D01*
G01X-3925Y-1578D02*
X-3880D01*
G01D02*
X-3835D01*
G01X-3880Y-1623D02*
Y-1578D01*
G01D02*
Y-1533D01*
G01X-3925Y-1278D02*
X-3880D01*
G01D02*
X-3835D01*
G01X-3880Y-1323D02*
Y-1278D01*
G01D02*
Y-1233D01*
G01X-3766Y-457D02*
X-3740Y-482D01*
G01X-3766Y-508D02*
X-3740Y-482D01*
G01X-4041Y-378D02*
X-4016Y-404D01*
G01D02*
X-3990Y-429D01*
G01X-4041D02*
X-4016Y-404D01*
G01D02*
X-3990Y-378D01*
G01X-4061Y-221D02*
X-4035Y-246D01*
G01D02*
X-4010Y-272D01*
G01X-4061D02*
X-4035Y-246D01*
G01D02*
X-4010Y-221D01*
G01X-3835Y-181D02*
X-3809Y-207D01*
G01D02*
X-3784Y-232D01*
G01X-3835D02*
X-3809Y-207D01*
G01D02*
X-3784Y-181D01*
G01X-3825Y6D02*
X-3799Y-20D01*
G01D02*
X-3774Y-45D01*
G01X-3825D02*
X-3799Y-20D01*
G01D02*
X-3774Y6D01*
G01X-3625Y-1578D02*
X-3580D01*
G01D02*
X-3535D01*
G01X-3580Y-1623D02*
Y-1578D01*
G01D02*
Y-1533D01*
G01X-3625Y-1278D02*
X-3580D01*
G01D02*
X-3535D01*
G01X-3580Y-1323D02*
Y-1278D01*
G01D02*
Y-1233D01*
G01X-3740Y-482D02*
X-3715Y-508D01*
G01X-3740Y-482D02*
X-3715Y-457D01*
G01X-3553Y-128D02*
X-3528Y-153D01*
G01X-3579D02*
X-3553Y-128D01*
G01X-3579Y-102D02*
X-3553Y-128D01*
G01D02*
X-3528Y-102D01*
G01X-3413Y-1578D02*
X-3368D01*
G01D02*
X-3323D01*
G01X-3368Y-1623D02*
Y-1578D01*
G01D02*
Y-1533D01*
G01X-3411Y-1067D02*
X-3386Y-1093D01*
G01D02*
X-3360Y-1118D01*
G01X-3411D02*
X-3386Y-1093D01*
G01D02*
X-3360Y-1067D01*
G01X-3413Y-1278D02*
X-3368D01*
G01D02*
X-3323D01*
G01X-3368Y-1323D02*
Y-1278D01*
G01D02*
Y-1233D01*
G01X-3362Y-289D02*
X-3337Y-315D01*
G01D02*
X-3311Y-340D01*
G01X-3362D02*
X-3337Y-315D01*
G01D02*
X-3311Y-289D01*
G01X-2883Y-1675D02*
X-2836D01*
G01X-2900Y-1323D02*
X-2874Y-1348D01*
G01D02*
X-2849Y-1374D01*
G01X-2900D02*
X-2874Y-1348D01*
G01D02*
X-2849Y-1323D01*
G01X-3113Y-1578D02*
X-3068D01*
G01D02*
X-3023D01*
G01X-3068Y-1623D02*
Y-1578D01*
G01D02*
Y-1533D01*
G01X-2883Y-1475D02*
X-2836D01*
G01X-3067Y-1067D02*
X-3041Y-1093D01*
G01D02*
X-3016Y-1118D01*
G01X-3067D02*
X-3041Y-1093D01*
G01D02*
X-3016Y-1067D01*
G01X-3113Y-1278D02*
X-3068D01*
G01D02*
X-3023D01*
G01X-3068Y-1323D02*
Y-1278D01*
G01D02*
Y-1233D01*
G01X-2919Y-289D02*
X-2894Y-315D01*
G01D02*
X-2868Y-340D01*
G01X-2919D02*
X-2894Y-315D01*
G01D02*
X-2868Y-289D01*
G01X-2836Y-1675D02*
X-2789D01*
G01X-2836Y-1722D02*
Y-1675D01*
G01D02*
Y-1628D01*
G01X-2683Y-1675D02*
X-2636D01*
G01D02*
X-2589D01*
G01X-2636Y-1722D02*
Y-1675D01*
G01D02*
Y-1628D01*
G01X-2836Y-1475D02*
X-2789D01*
G01X-2836Y-1522D02*
Y-1475D01*
G01D02*
Y-1428D01*
G01X-2624Y-1323D02*
X-2598Y-1348D01*
G01D02*
X-2573Y-1374D01*
G01X-2624D02*
X-2598Y-1348D01*
G01D02*
X-2573Y-1323D01*
G01X-2683Y-1475D02*
X-2636D01*
G01D02*
X-2589D01*
G01X-2636Y-1522D02*
Y-1475D01*
G01D02*
Y-1428D01*
M02*
