G04 ================== begin FILE IDENTIFICATION RECORD ==================*
G04 Layout Name:  E:\qpll-only-UOB-HEP-PC005A\worklib\qpll\physical\pc005-placed-e.brd*
G04 Film Name:    TOP*
G04 File Format:  Gerber RS274X*
G04 File Origin:  -unreleased*
G04 Origin Date:  Mon Jun 30 09:44:20 2003*
G04 ================== end FILE IDENTIFICATION RECORD ====================*
%FSLAX53Y53*MOIN*%
%IR0*IPPOS*OFA0.00000B0.00000*MIA0B0*SFA1.00000B1.00000*%
%ADD12R,.05X.028*%
%ADD11R,.028X.05*%
%ADD33R,.05X.025*%
%ADD14R,.025X.05*%
%ADD13C,.036*%
%ADD25R,.038X.05*%
%ADD18R,.049X.03*%
%ADD31R,.35X.42*%
%ADD30R,.090551X.165354*%
%ADD26R,.017717X.009843*%
%ADD27R,.009843X.017717*%
%ADD10C,.06*%
%ADD29R,.068X.04*%
%ADD20R,.08X.145*%
%ADD19R,.04X.068*%
%ADD22R,.09X.1*%
%ADD21R,.1X.09*%
%ADD16C,.076*%
%ADD28R,.149606X.149606*%
%ADD24C,.064*%
%ADD17C,.096*%
%ADD15R,.076X.076*%
%ADD32R,.09X.07*%
%ADD23R,.064X.064*%
%ADD34C,.007874*%
%ADD35C,.015748*%
%ADD36C,.019685*%
%ADD37C,.005906*%
%ADD38C,.009843*%
%ADD39C,.031496*%
%ADD40C,.01378*%
G75*
%LPD*%
G75*
G36*
G01X-4232Y-463D02*
X-4075D01*
Y-305D01*
X-4232D01*
Y-463D01*
G37*
G54D10*
X-5000Y-1378D03*
X-5100Y-1578D03*
Y-1278D03*
X-4900Y-1378D03*
X-4800Y-1578D03*
Y-1278D03*
X-4391Y-1578D03*
Y-1278D03*
X-4291Y-1378D03*
X-4191D03*
X-4091Y-1578D03*
Y-1278D03*
X-3780Y-1378D03*
X-3880Y-1578D03*
Y-1278D03*
X-3680Y-1378D03*
X-3580Y-1578D03*
Y-1278D03*
X-3268Y-1378D03*
X-3168D03*
X-3368Y-1578D03*
Y-1278D03*
X-3068Y-1578D03*
Y-1278D03*
G54D20*
X-4632Y502D03*
X-4502D03*
X-4140Y236D03*
X-4010D03*
G54D11*
X-4986Y-1112D03*
X-4956Y-876D03*
X-4986Y-787D03*
X-4916Y-1112D03*
X-4886Y-876D03*
X-4916Y-787D03*
X-4768Y-433D03*
X-4838D03*
Y-354D03*
X-4768D03*
X-4443Y69D03*
X-4513D03*
X-4443Y167D03*
X-4513D03*
X-4474Y325D03*
X-4404D03*
X-4080Y-246D03*
X-4197Y98D03*
X-4267D03*
X-4010Y-246D03*
X-3843Y-207D03*
X-3913D03*
X-3853Y-20D03*
X-3923D03*
X-3676Y-335D03*
X-3746D03*
Y-413D03*
X-3676D03*
X-3165Y-1093D03*
X-3342D03*
X-3272D03*
X-3095D03*
X-2937Y-315D03*
X-3007D03*
X-2642Y-1348D03*
X-2712D03*
X-2840D03*
X-2770D03*
G54D21*
X-4774Y323D03*
Y523D03*
G54D30*
X-4278Y-128D03*
X-4030D03*
G54D12*
X-4990Y-1029D03*
Y-959D03*
X-5138Y-616D03*
Y-546D03*
X-5020Y-339D03*
Y-409D03*
X-4941Y-339D03*
Y-409D03*
X-4823Y-754D03*
X-4911Y-1029D03*
Y-959D03*
X-4823Y-684D03*
X-4547Y-221D03*
Y-291D03*
Y-429D03*
Y-359D03*
X-4626Y-291D03*
Y-221D03*
Y-359D03*
Y-429D03*
X-4193Y-803D03*
Y-733D03*
X-4321Y-439D03*
Y-369D03*
X-3809Y-339D03*
Y-409D03*
G54D40*
G01X-5103Y-493D02*
X-5129D01*
X-5138Y-502D01*
Y-546D01*
G01X-5055Y-493D02*
X-5103D01*
G01X-5197Y-610D02*
X-5191Y-616D01*
X-5138D01*
G01X-3557Y-315D02*
X-3494D01*
G01X-3337Y-535D02*
Y-482D01*
G01X-3117Y-315D02*
X-3179D01*
G01X-3337Y-95D02*
Y-148D01*
G01X-3007Y-315D02*
X-3117D01*
G01X-2937D02*
X-2894D01*
G54D22*
X-4647Y709D03*
X-4447D03*
G54D31*
X-3908Y610D03*
G54D13*
X-5103Y-492D03*
X-5197Y-610D03*
X-5020Y-305D03*
X-4823Y-797D03*
X-4695Y-876D03*
Y-778D03*
X-4705Y-984D03*
X-4695Y-679D03*
X-4872Y-492D03*
X-4941Y-305D03*
X-4724Y69D03*
X-4675Y226D03*
X-4774Y610D03*
X-4498Y-512D03*
X-4626Y-463D03*
X-4547D03*
X-4626Y-187D03*
X-4547D03*
X-4409Y167D03*
Y69D03*
X-4518Y276D03*
X-4360Y325D03*
X-4449Y807D03*
X-4193Y-827D03*
X-4271Y-466D03*
X-4085Y-512D03*
X-4094Y-423D03*
X-4173Y-516D03*
X-4321Y-482D03*
X-4311Y-640D03*
X-4094Y-344D03*
X-4154Y-246D03*
X-4321Y98D03*
X-4163Y512D03*
X-4016Y-325D03*
X-3809Y-207D03*
X-4035Y-246D03*
X-4016Y-404D03*
X-3799Y-20D03*
X-3927Y226D03*
X-3671Y-512D03*
X-3740Y-482D03*
X-3504Y-413D03*
X-3494Y-226D03*
Y-315D03*
X-3553Y-128D03*
X-3386Y-1093D03*
X-3337Y-482D03*
X-3179Y-315D03*
X-3337Y-148D03*
Y-315D03*
X-2874Y-1348D03*
X-3041Y-1093D03*
X-2894Y-315D03*
X-2598Y-1348D03*
G54D23*
X-4414Y-1093D03*
X-4528Y-69D03*
G54D32*
X-4245Y710D03*
Y610D03*
Y510D03*
G54D14*
X-4955Y-688D03*
X-5005D03*
X-5055D03*
X-4955Y-493D03*
X-5055D03*
X-5005D03*
X-4905Y-688D03*
Y-493D03*
X-3487Y-535D03*
Y-95D03*
X-3437Y-535D03*
X-3387D03*
X-3337D03*
X-3287D03*
X-3237D03*
X-3187D03*
X-3437Y-95D03*
X-3387D03*
X-3337D03*
X-3287D03*
X-3237D03*
X-3187D03*
G54D15*
X-5030Y128D03*
G54D24*
X-4414Y-993D03*
Y-893D03*
Y-793D03*
Y-693D03*
Y-593D03*
Y-493D03*
Y-393D03*
X-4428Y-69D03*
X-2836Y-1675D03*
Y-1475D03*
X-2636Y-1675D03*
X-2736Y-1575D03*
X-2636Y-1475D03*
G54D33*
X-3557Y-465D03*
Y-165D03*
Y-215D03*
Y-265D03*
Y-315D03*
Y-365D03*
Y-415D03*
X-3117Y-465D03*
Y-165D03*
Y-215D03*
Y-265D03*
Y-315D03*
Y-365D03*
Y-415D03*
G54D34*
G01X-2594Y-56D02*
X-2694D01*
X-2674Y-71D01*
G01X-2594D02*
Y-41D01*
G54D16*
X-5030Y325D03*
Y522D03*
G54D25*
X-4281Y-571D03*
X-4341D03*
G54D35*
G01X-4197Y98D02*
X-4105D01*
G54D17*
X-5079Y748D03*
X-4606Y-1142D03*
X-2874D03*
X-2677Y748D03*
G54D26*
X-4247Y-443D03*
X-4060D03*
X-4247Y-325D03*
Y-344D03*
Y-364D03*
Y-384D03*
Y-404D03*
Y-423D03*
X-4060D03*
Y-404D03*
Y-384D03*
Y-364D03*
Y-344D03*
Y-325D03*
G54D36*
G01X-4676Y69D02*
X-4724D01*
G01X-4596D02*
X-4513D01*
G01X-4443D02*
X-4409D01*
G01X-4513Y167D02*
X-4596D01*
G01X-4556Y325D02*
X-4518D01*
G01D02*
X-4474D01*
G01X-4518D02*
Y276D01*
G01X-4443Y167D02*
X-4409D01*
G01X-4404Y325D02*
X-4360D01*
G01X-4154Y-382D02*
Y-384D01*
G01X-4075Y-305D02*
X-4065Y-295D01*
X-4034D01*
X-4030Y-291D01*
X-4002D01*
X-3998Y-295D01*
X-3974D01*
G01X-4267Y98D02*
X-4321D01*
G01X-3843Y-207D02*
X-3809D01*
G54D27*
X-4213Y-477D03*
X-4193D03*
X-4173D03*
X-4154D03*
X-4134D03*
X-4114D03*
X-4094D03*
Y-290D03*
X-4114D03*
X-4134D03*
X-4154D03*
X-4173D03*
X-4193D03*
X-4213D03*
G54D18*
X-4747Y-732D03*
Y-782D03*
Y-832D03*
Y-882D03*
Y-932D03*
Y-982D03*
Y-632D03*
Y-682D03*
X-4505Y-982D03*
Y-932D03*
Y-882D03*
Y-832D03*
Y-782D03*
Y-732D03*
Y-682D03*
Y-632D03*
G54D37*
G01X-4986Y-1112D02*
Y-1364D01*
X-5000Y-1378D01*
G01X-4990Y-1029D02*
Y-1108D01*
X-4986Y-1112D01*
G01X-5005Y-688D02*
Y-768D01*
X-4986Y-787D01*
G01D02*
Y-955D01*
X-4990Y-959D01*
G01X-5020Y-409D02*
Y-479D01*
X-5005Y-493D01*
G01X-5020Y-409D02*
Y-384D01*
X-5010Y-374D01*
X-4902D01*
X-4882Y-354D01*
X-4838D01*
G01X-5020Y-339D02*
Y-305D01*
G01X-4916Y-1112D02*
Y-1362D01*
X-4900Y-1378D01*
G01X-4911Y-1029D02*
Y-1108D01*
X-4916Y-1112D01*
G01X-4905Y-688D02*
Y-777D01*
X-4916Y-787D01*
G01D02*
Y-846D01*
X-4886Y-876D01*
G01X-4955Y-688D02*
Y-875D01*
X-4956Y-876D01*
G01D02*
Y-914D01*
X-4911Y-959D01*
G01X-4823Y-754D02*
Y-797D01*
G01X-4747Y-982D02*
X-4707D01*
X-4705Y-984D01*
G01X-4747Y-732D02*
Y-782D01*
G01Y-882D02*
X-4701D01*
X-4695Y-876D01*
G01X-4747Y-932D02*
Y-982D01*
G01Y-832D02*
Y-882D01*
G01Y-782D02*
Y-832D01*
G01Y-882D02*
Y-932D01*
G01Y-782D02*
X-4699D01*
X-4695Y-778D01*
G01X-4505Y-882D02*
X-4585D01*
X-4616Y-851D01*
Y-620D01*
X-4675Y-561D01*
X-4754D01*
X-4803Y-512D01*
Y-305D01*
X-4744Y-246D01*
X-4669D01*
X-4660Y-256D01*
X-4514D01*
X-4504Y-246D01*
X-4232D01*
X-4213Y-266D01*
Y-290D01*
G01X-4193D02*
Y-246D01*
X-4205Y-234D01*
X-4237D01*
X-4509Y-234D01*
X-4519Y-244D01*
X-4655D01*
X-4664Y-234D01*
X-4749D01*
X-4815Y-300D01*
Y-310D01*
X-4815Y-530D01*
X-4764Y-581D01*
X-4685D01*
X-4636Y-630D01*
Y-945D01*
X-4599Y-982D01*
X-4505D01*
G01X-4905Y-688D02*
X-4827D01*
X-4823Y-684D01*
G01X-4941Y-409D02*
Y-479D01*
X-4955Y-493D01*
G01X-4747Y-682D02*
Y-732D01*
G01Y-682D02*
X-4698D01*
X-4695Y-679D01*
G01X-4905Y-493D02*
X-4873D01*
X-4872Y-492D01*
G01X-4768Y-433D02*
Y-418D01*
X-4709Y-359D01*
X-4626D01*
G01X-4768Y-354D02*
Y-339D01*
X-4720Y-291D01*
X-4626D01*
G01X-4941Y-409D02*
X-4896D01*
X-4872Y-433D01*
X-4838D01*
G01X-4941Y-339D02*
Y-305D01*
G01X-4414Y-1093D02*
X-4400D01*
X-4150Y-843D01*
Y-531D01*
X-4146Y-528D01*
Y-505D01*
X-4154Y-498D01*
Y-477D01*
G01X-4414Y-693D02*
X-4419Y-697D01*
Y-738D01*
X-4459Y-778D01*
Y-788D01*
X-4503Y-832D01*
X-4505D01*
G01X-4414Y-793D02*
Y-802D01*
X-4494Y-882D01*
X-4505D01*
G01X-4414Y-593D02*
X-4455Y-633D01*
Y-734D01*
X-4503Y-782D01*
X-4505D01*
G01X-4414Y-993D02*
X-4425Y-982D01*
X-4505D01*
G01X-4414Y-893D02*
Y-896D01*
X-4451Y-932D01*
X-4505D01*
G01Y-682D02*
X-4527D01*
X-4547Y-661D01*
Y-581D01*
X-4528Y-561D01*
X-4488D01*
X-4459Y-531D01*
Y-423D01*
X-4428Y-393D01*
X-4414D01*
G01Y-493D02*
X-4409D01*
X-4390Y-512D01*
X-4272D01*
X-4244Y-485D01*
Y-446D01*
X-4247Y-443D01*
G01X-4414Y-493D02*
Y-517D01*
X-4472Y-574D01*
Y-712D01*
X-4492Y-732D01*
X-4505D01*
G01X-4498Y-512D02*
Y-364D01*
X-4449Y-315D01*
X-4390D01*
X-4370Y-335D01*
Y-371D01*
X-4350Y-391D01*
X-4292D01*
X-4285Y-384D01*
X-4247D01*
G01X-4626Y-429D02*
Y-463D01*
G01X-4547Y-429D02*
Y-463D01*
G01Y-359D02*
X-4626D01*
G01X-4547D02*
X-4532D01*
X-4469Y-295D01*
X-4311D01*
X-4262Y-344D01*
X-4247D01*
G01Y-325D02*
X-4262D01*
X-4311Y-276D01*
X-4507D01*
X-4522Y-291D01*
X-4547D01*
G01D02*
X-4626D01*
G01X-4414Y-393D02*
X-4409D01*
X-4398Y-404D01*
X-4247D01*
G01X-4626Y-221D02*
Y-187D01*
G01X-4547Y-221D02*
Y-187D01*
G01X-4134Y-477D02*
Y-541D01*
G01X-4193Y-803D02*
Y-827D01*
G01X-4281Y-571D02*
Y-566D01*
X-4213Y-497D01*
Y-477D01*
G01X-4193Y-640D02*
Y-733D01*
G01Y-560D02*
Y-540D01*
X-4200Y-533D01*
Y-491D01*
X-4193Y-484D01*
Y-477D01*
G01X-4271Y-466D02*
Y-441D01*
X-4254Y-423D01*
X-4247D01*
G01X-4094Y-477D02*
Y-502D01*
X-4085Y-512D01*
G01X-4154Y-477D02*
Y-384D01*
G01X-4173Y-477D02*
Y-516D01*
G01X-4321Y-439D02*
Y-482D01*
G01X-4341Y-571D02*
Y-610D01*
X-4311Y-640D01*
G01X-4247Y-364D02*
X-4316D01*
X-4321Y-369D01*
G01X-4134Y-290D02*
Y-264D01*
X-4127Y-257D01*
Y-235D01*
X-4134Y-228D01*
Y-177D01*
X-4085Y-128D01*
X-4030D01*
G01X-4173Y-290D02*
Y-264D01*
X-4180Y-257D01*
Y-235D01*
X-4173Y-228D01*
Y-177D01*
X-4222Y-128D01*
X-4278D01*
G01X-4114Y-290D02*
Y-266D01*
X-4094Y-246D01*
X-4080D01*
G01X-4094Y-325D02*
Y-290D01*
G01X-4154Y-384D02*
X-4094Y-325D01*
G01X-4060Y-384D02*
X-4154D01*
G01Y-290D02*
Y-246D01*
G01X-4031Y-507D02*
Y-446D01*
X-4048Y-429D01*
X-4054Y-423D01*
X-4060D01*
G01X-4045Y-522D02*
Y-458D01*
X-4060Y-443D01*
G01X-3746Y-335D02*
X-3805D01*
X-3809Y-339D01*
G01X-4060Y-344D02*
X-4034D01*
X-4027Y-352D01*
X-4005D01*
X-3997Y-344D01*
X-3815D01*
X-3809Y-339D01*
G01Y-409D02*
X-3833D01*
X-3878Y-364D01*
X-4060D01*
G01X-3809Y-409D02*
X-3750D01*
X-3746Y-413D01*
G01X-4060Y-325D02*
X-4016D01*
G01X-3913Y-207D02*
X-3935D01*
X-3936Y-206D01*
G01X-4010Y-246D02*
X-4035D01*
G01X-4060Y-404D02*
X-4016D01*
G01X-3923Y-20D02*
X-3933D01*
X-3936Y-22D01*
G01X-3671Y-512D02*
Y-418D01*
X-3676Y-413D01*
G01X-3445Y-577D02*
X-3458Y-564D01*
Y-506D01*
X-3445Y-493D01*
G01X-3557Y-415D02*
X-3506D01*
X-3504Y-413D01*
G01X-3557Y-265D02*
X-3562D01*
X-3632Y-335D01*
X-3676D01*
G01X-3557Y-265D02*
X-3533D01*
X-3494Y-226D01*
G01X-3676Y-413D02*
X-3666Y-404D01*
X-3622D01*
X-3612Y-394D01*
Y-374D01*
X-3603Y-365D01*
X-3557D01*
G01Y-165D02*
Y-131D01*
X-3553Y-128D01*
G01X-3425Y-496D02*
X-3415Y-506D01*
Y-564D01*
X-3425Y-574D01*
G01X-3342Y-1093D02*
X-3386D01*
G01X-2840Y-1348D02*
X-2874D01*
G01X-3095Y-1093D02*
X-3041D01*
G01X-2736Y-1575D02*
Y-1372D01*
X-2712Y-1348D01*
G01X-2642D02*
X-2598D01*
G54D28*
X-4154Y-384D03*
G54D19*
X-4676Y167D03*
Y69D03*
X-4596Y167D03*
Y69D03*
X-4636Y325D03*
X-4556D03*
X-4105Y98D03*
X-4025D03*
G54D38*
G01X-5103Y-493D02*
Y-492D01*
G01X-4291Y-1378D02*
X-4262D01*
X-4213Y-1427D01*
X-4173D01*
X-4144Y-1398D01*
Y-1240D01*
X-4114Y-1211D01*
Y-477D01*
G01X-4134Y-541D02*
Y-1201D01*
X-4191Y-1258D01*
Y-1378D01*
G01X-3780D02*
X-3750D01*
X-3701Y-1427D01*
X-3652D01*
X-3632Y-1407D01*
Y-1358D01*
X-3661Y-1329D01*
Y-876D01*
X-4031Y-507D01*
G01X-3680Y-1378D02*
Y-887D01*
X-4045Y-522D01*
G01X-3272Y-1093D02*
Y-1067D01*
X-3228Y-1024D01*
Y-945D01*
X-3445Y-728D01*
Y-577D01*
G01Y-493D02*
Y-167D01*
X-3487Y-126D01*
Y-95D01*
G01X-3268Y-1378D02*
X-3228Y-1339D01*
Y-1136D01*
X-3272Y-1093D01*
G01X-3168Y-1378D02*
X-3209Y-1337D01*
Y-1136D01*
X-3165Y-1093D01*
G01X-3437Y-95D02*
Y-126D01*
X-3425Y-138D01*
Y-496D01*
G01Y-574D02*
Y-709D01*
X-3209Y-925D01*
Y-1024D01*
X-3165Y-1067D01*
Y-1093D01*
G01X-3287Y-95D02*
Y-19D01*
X-3248Y20D01*
X-3031D01*
X-2770Y-242D01*
Y-1348D01*
G01X-3387Y-95D02*
X-3386Y-94D01*
Y-39D01*
X-3278Y69D01*
X-3002D01*
X-2712Y-221D01*
Y-1348D01*
G54D29*
X-4193Y-560D03*
Y-640D03*
G54D39*
G01X-5030Y128D02*
X-4852D01*
X-4774Y207D01*
Y323D01*
G01X-4676Y167D02*
Y226D01*
X-4675Y226D01*
G01X-4636Y325D02*
X-4772D01*
X-4774Y323D01*
G01X-4245Y610D02*
X-4549D01*
X-4647Y709D01*
G01X-4774Y523D02*
Y610D01*
G01X-4636Y325D02*
X-4636Y498D01*
X-4632Y502D01*
G01X-4245Y510D02*
X-4494D01*
X-4502Y502D01*
G01X-4449Y807D02*
X-4447Y806D01*
Y709D01*
G01D02*
X-4247D01*
X-4245Y710D01*
G01X-3974Y-295D02*
X-3936Y-257D01*
Y-206D01*
G01X-4140Y236D02*
Y203D01*
X-4104Y167D01*
Y99D01*
X-4105Y98D01*
G01X-4140Y236D02*
X-4144Y240D01*
Y266D01*
X-4105Y305D01*
Y601D01*
X-4114Y610D01*
X-4245D01*
G01Y510D02*
X-4165D01*
X-4163Y512D01*
G01X-3936Y-22D02*
Y-206D01*
G01X-4025Y98D02*
X-4035Y109D01*
Y157D01*
X-4010Y183D01*
Y236D01*
G01X-4025Y98D02*
X-3936Y9D01*
Y-22D01*
G01X-3853Y-20D02*
X-3799D01*
G01X-3927Y226D02*
X-4000D01*
X-4010Y236D01*
M02*
