G04 ================== begin FILE IDENTIFICATION RECORD ==================*
G04 Layout Name:  E:\qpll-only-UOB-HEP-PC005A\worklib\qpll\physical\pc005-placed-e.brd*
G04 Film Name:    toppaste*
G04 File Format:  Gerber RS274X*
G04 File Origin:  -unreleased*
G04 Origin Date:  Mon Jun 30 09:44:21 2003*
G04 ================== end FILE IDENTIFICATION RECORD ====================*
%FSLAX53Y53*MOIN*%
%IR0*IPPOS*OFA0.00000B0.00000*MIA0B0*SFA1.00000B1.00000*%
%ADD25R,.045X.02*%
%ADD12R,.02X.045*%
%ADD11R,.045X.025*%
%ADD10R,.025X.045*%
%ADD21R,.06X.036*%
%ADD14R,.036X.06*%
%ADD18R,.034X.045*%
%ADD13R,.044X.027*%
%ADD19R,.015945X.008858*%
%ADD20R,.008858X.015945*%
%ADD22R,.081496X.148819*%
%ADD24R,.082X.063*%
%ADD23R,.315X.38*%
%ADD15R,.072X.13*%
%ADD17R,.082X.09*%
%ADD16R,.09X.082*%
G75*
%LPD*%
G75*
G54D10*
G01X-5295Y945D02*
Y-1791D01*
X-2461D01*
Y945D01*
X-5295D01*
X-4986Y-1112D03*
X-4956Y-876D03*
X-4986Y-787D03*
X-4916Y-1112D03*
X-4886Y-876D03*
X-4916Y-787D03*
X-4768Y-433D03*
X-4838D03*
Y-354D03*
X-4768D03*
X-4443Y69D03*
X-4513D03*
X-4443Y167D03*
X-4513D03*
X-4474Y325D03*
X-4404D03*
X-4080Y-246D03*
X-4197Y98D03*
X-4267D03*
X-4010Y-246D03*
X-3843Y-207D03*
X-3913D03*
X-3853Y-20D03*
X-3923D03*
X-3676Y-335D03*
X-3746D03*
Y-413D03*
X-3676D03*
X-3165Y-1093D03*
X-3342D03*
X-3272D03*
X-3095D03*
X-2937Y-315D03*
X-3007D03*
X-2642Y-1348D03*
X-2712D03*
X-2840D03*
X-2770D03*
G54D20*
X-4213Y-477D03*
X-4193D03*
X-4173D03*
X-4154D03*
X-4134D03*
X-4114D03*
X-4094D03*
Y-290D03*
X-4114D03*
X-4134D03*
X-4154D03*
X-4173D03*
X-4193D03*
X-4213D03*
G54D11*
X-4990Y-1029D03*
Y-959D03*
X-5138Y-616D03*
Y-546D03*
X-5020Y-339D03*
Y-409D03*
X-4941Y-339D03*
Y-409D03*
X-4823Y-754D03*
X-4911Y-1029D03*
Y-959D03*
X-4823Y-684D03*
X-4547Y-221D03*
Y-291D03*
Y-429D03*
Y-359D03*
X-4626Y-291D03*
Y-221D03*
Y-359D03*
Y-429D03*
X-4193Y-803D03*
Y-733D03*
X-4321Y-439D03*
Y-369D03*
X-3809Y-339D03*
Y-409D03*
G54D21*
X-4193Y-560D03*
Y-640D03*
G54D12*
X-4955Y-688D03*
X-5005D03*
X-5055D03*
X-4955Y-493D03*
X-5055D03*
X-5005D03*
X-4905Y-688D03*
Y-493D03*
X-3487Y-535D03*
Y-95D03*
X-3437Y-535D03*
X-3387D03*
X-3337D03*
X-3287D03*
X-3237D03*
X-3187D03*
X-3437Y-95D03*
X-3387D03*
X-3337D03*
X-3287D03*
X-3237D03*
X-3187D03*
G54D22*
X-4278Y-128D03*
X-4030D03*
G54D13*
X-4747Y-732D03*
Y-782D03*
Y-832D03*
Y-882D03*
Y-932D03*
Y-982D03*
Y-632D03*
Y-682D03*
X-4505Y-982D03*
Y-932D03*
Y-882D03*
Y-832D03*
Y-782D03*
Y-732D03*
Y-682D03*
Y-632D03*
G54D23*
X-3908Y610D03*
G54D14*
X-4676Y167D03*
Y69D03*
X-4596Y167D03*
Y69D03*
X-4636Y325D03*
X-4556D03*
X-4105Y98D03*
X-4025D03*
G54D15*
X-4632Y502D03*
X-4502D03*
X-4140Y236D03*
X-4010D03*
G54D24*
X-4245Y710D03*
Y610D03*
Y510D03*
G54D16*
X-4774Y323D03*
Y523D03*
G54D25*
X-3557Y-465D03*
Y-165D03*
Y-215D03*
Y-265D03*
Y-315D03*
Y-365D03*
Y-415D03*
X-3117Y-465D03*
Y-165D03*
Y-215D03*
Y-265D03*
Y-315D03*
Y-365D03*
Y-415D03*
G54D17*
X-4647Y709D03*
X-4447D03*
G54D18*
X-4281Y-571D03*
X-4341D03*
G54D19*
X-4247Y-443D03*
X-4060D03*
X-4247Y-325D03*
Y-344D03*
Y-364D03*
Y-384D03*
Y-404D03*
Y-423D03*
X-4060D03*
Y-404D03*
Y-384D03*
Y-364D03*
Y-344D03*
Y-325D03*
M02*
